<svg width="225" height="60" viewBox="0 0 225 60" fill="none" xmlns="http://www.w3.org/2000/svg">
<path d="M80.42 24.2C79.2333 24.2 78.2133 24.02 77.36 23.66C76.5067 23.3 75.86 22.8267 75.42 22.24C74.98 21.6533 74.7467 21.02 74.72 20.34C74.72 20.22 74.76 20.12 74.84 20.04C74.92 19.96 75.02 19.92 75.14 19.92H76.92C77.08 19.92 77.2 19.9533 77.28 20.02C77.3733 20.0733 77.46 20.1667 77.54 20.3C77.6733 20.7533 77.98 21.1333 78.46 21.44C78.94 21.7467 79.5933 21.9 80.42 21.9C81.3667 21.9 82.08 21.7467 82.56 21.44C83.04 21.12 83.28 20.68 83.28 20.12C83.28 19.7467 83.1533 19.44 82.9 19.2C82.66 18.96 82.2933 18.7533 81.8 18.58C81.32 18.4067 80.6 18.1933 79.64 17.94C78.0667 17.5667 76.9133 17.0733 76.18 16.46C75.46 15.8333 75.1 14.9467 75.1 13.8C75.1 13.0267 75.3067 12.34 75.72 11.74C76.1467 11.14 76.7533 10.6667 77.54 10.32C78.34 9.97333 79.2667 9.8 80.32 9.8C81.4133 9.8 82.36 9.99333 83.16 10.38C83.96 10.7667 84.5667 11.2533 84.98 11.84C85.4067 12.4133 85.6333 12.9867 85.66 13.56C85.66 13.68 85.62 13.78 85.54 13.86C85.46 13.94 85.36 13.98 85.24 13.98H83.38C83.1 13.98 82.9067 13.8533 82.8 13.6C82.72 13.1733 82.4533 12.82 82 12.54C81.5467 12.2467 80.9867 12.1 80.32 12.1C79.5733 12.1 78.9867 12.24 78.56 12.52C78.1333 12.8 77.92 13.2067 77.92 13.74C77.92 14.1133 78.0267 14.42 78.24 14.66C78.4533 14.9 78.7867 15.1133 79.24 15.3C79.7067 15.4867 80.3733 15.6933 81.24 15.92C82.4133 16.1867 83.3467 16.4867 84.04 16.82C84.7467 17.1533 85.2667 17.5733 85.6 18.08C85.9333 18.5867 86.1 19.2333 86.1 20.02C86.1 20.8733 85.86 21.62 85.38 22.26C84.9133 22.8867 84.2467 23.3667 83.38 23.7C82.5267 24.0333 81.54 24.2 80.42 24.2ZM88.632 24C88.4987 24 88.3854 23.9533 88.292 23.86C88.1987 23.7667 88.152 23.6533 88.152 23.52V14.08C88.152 13.9467 88.1987 13.8333 88.292 13.74C88.3854 13.6467 88.4987 13.6 88.632 13.6H90.192C90.3254 13.6 90.4387 13.6467 90.532 13.74C90.6254 13.8333 90.672 13.9467 90.672 14.08V14.76C91.3654 13.8533 92.332 13.4 93.572 13.4C95.052 13.4 96.0854 13.9933 96.672 15.18C96.992 14.6467 97.4454 14.22 98.032 13.9C98.6187 13.5667 99.252 13.4 99.932 13.4C101.025 13.4 101.919 13.7733 102.612 14.52C103.305 15.2667 103.652 16.3533 103.652 17.78V23.52C103.652 23.6533 103.605 23.7667 103.512 23.86C103.432 23.9533 103.319 24 103.172 24H101.532C101.399 24 101.285 23.9533 101.192 23.86C101.099 23.7667 101.052 23.6533 101.052 23.52V17.94C101.052 17.1 100.872 16.4933 100.512 16.12C100.165 15.7333 99.6987 15.54 99.112 15.54C98.592 15.54 98.1454 15.7333 97.772 16.12C97.412 16.5067 97.232 17.1133 97.232 17.94V23.52C97.232 23.6533 97.1854 23.7667 97.092 23.86C96.9987 23.9533 96.8854 24 96.752 24H95.112C94.9787 24 94.8654 23.9533 94.772 23.86C94.6787 23.7667 94.632 23.6533 94.632 23.52V17.94C94.632 17.1 94.4454 16.4933 94.072 16.12C93.712 15.7333 93.252 15.54 92.692 15.54C92.1587 15.54 91.7054 15.7333 91.332 16.12C90.972 16.5067 90.792 17.1133 90.792 17.94V23.52C90.792 23.6533 90.7454 23.7667 90.652 23.86C90.5587 23.9533 90.4454 24 90.312 24H88.632ZM109.219 24.2C108.539 24.2 107.912 24.0667 107.339 23.8C106.779 23.52 106.332 23.1467 105.999 22.68C105.679 22.2133 105.519 21.7 105.519 21.14C105.519 20.2333 105.886 19.5 106.619 18.94C107.352 18.38 108.359 18 109.639 17.8L112.379 17.4V16.98C112.379 16.3933 112.232 15.9533 111.939 15.66C111.646 15.3667 111.172 15.22 110.519 15.22C110.079 15.22 109.719 15.3067 109.439 15.48C109.172 15.64 108.959 15.8 108.799 15.96C108.639 16.1333 108.532 16.2467 108.479 16.3C108.426 16.46 108.326 16.54 108.179 16.54H106.639C106.519 16.54 106.412 16.5 106.319 16.42C106.239 16.34 106.199 16.2333 106.199 16.1C106.212 15.7667 106.372 15.3867 106.679 14.96C106.999 14.5333 107.486 14.1667 108.139 13.86C108.792 13.5533 109.592 13.4 110.539 13.4C112.112 13.4 113.259 13.7533 113.979 14.46C114.699 15.1667 115.059 16.0933 115.059 17.24V23.52C115.059 23.6533 115.012 23.7667 114.919 23.86C114.839 23.9533 114.726 24 114.579 24H112.959C112.826 24 112.712 23.9533 112.619 23.86C112.526 23.7667 112.479 23.6533 112.479 23.52V22.74C112.186 23.1667 111.766 23.52 111.219 23.8C110.686 24.0667 110.019 24.2 109.219 24.2ZM109.899 22.3C110.632 22.3 111.232 22.06 111.699 21.58C112.166 21.1 112.399 20.4 112.399 19.48V19.06L110.399 19.38C109.626 19.5 109.039 19.6933 108.639 19.96C108.252 20.2267 108.059 20.5533 108.059 20.94C108.059 21.3667 108.239 21.7 108.599 21.94C108.959 22.18 109.392 22.3 109.899 22.3ZM118.105 24C117.971 24 117.858 23.9533 117.765 23.86C117.671 23.7667 117.625 23.6533 117.625 23.52V14.1C117.625 13.9667 117.671 13.8533 117.765 13.76C117.858 13.6533 117.971 13.6 118.105 13.6H119.725C119.871 13.6 119.991 13.6467 120.085 13.74C120.178 13.8333 120.225 13.9533 120.225 14.1V14.92C120.545 14.4933 120.945 14.1667 121.425 13.94C121.918 13.7133 122.478 13.6 123.105 13.6H123.925C124.071 13.6 124.185 13.6467 124.265 13.74C124.358 13.82 124.405 13.9333 124.405 14.08V15.52C124.405 15.6533 124.358 15.7667 124.265 15.86C124.185 15.9533 124.071 16 123.925 16H122.365C121.738 16 121.245 16.18 120.885 16.54C120.525 16.9 120.345 17.3933 120.345 18.02V23.52C120.345 23.6533 120.298 23.7667 120.205 23.86C120.111 23.9533 119.991 24 119.845 24H118.105ZM130.665 24C129.451 24 128.538 23.6867 127.925 23.06C127.325 22.42 127.025 21.4867 127.025 20.26V15.72H125.445C125.311 15.72 125.198 15.6733 125.105 15.58C125.011 15.4733 124.965 15.3533 124.965 15.22V14.08C124.965 13.9467 125.011 13.8333 125.105 13.74C125.198 13.6467 125.311 13.6 125.445 13.6H127.025V10.28C127.025 10.1333 127.071 10.02 127.165 9.94C127.258 9.84667 127.371 9.8 127.505 9.8H129.125C129.271 9.8 129.385 9.84667 129.465 9.94C129.558 10.02 129.605 10.1333 129.605 10.28V13.6H132.105C132.251 13.6 132.365 13.6467 132.445 13.74C132.538 13.82 132.585 13.9333 132.585 14.08V15.22C132.585 15.3667 132.538 15.4867 132.445 15.58C132.351 15.6733 132.238 15.72 132.105 15.72H129.605V20.06C129.605 20.6333 129.705 21.0667 129.905 21.36C130.105 21.6533 130.438 21.8 130.905 21.8H132.285C132.418 21.8 132.531 21.8467 132.625 21.94C132.718 22.0333 132.765 22.1467 132.765 22.28V23.52C132.765 23.6533 132.718 23.7667 132.625 23.86C132.545 23.9533 132.431 24 132.285 24H130.665ZM144.789 24.2C142.962 24.2 141.536 23.7267 140.509 22.78C139.496 21.8333 138.956 20.5133 138.889 18.82C138.876 18.4333 138.869 17.8133 138.869 16.96C138.869 16.1067 138.876 15.4867 138.889 15.1C138.956 13.4467 139.502 12.1533 140.529 11.22C141.569 10.2733 142.989 9.8 144.789 9.8C146.016 9.8 147.069 10.0067 147.949 10.42C148.829 10.8333 149.496 11.3533 149.949 11.98C150.402 12.5933 150.642 13.2 150.669 13.8V13.84C150.669 13.9467 150.629 14.04 150.549 14.12C150.469 14.1867 150.369 14.22 150.249 14.22H148.189C148.056 14.22 147.956 14.2 147.889 14.16C147.822 14.1067 147.762 14.02 147.709 13.9C147.522 13.4067 147.196 12.9867 146.729 12.64C146.262 12.28 145.616 12.1 144.789 12.1C143.856 12.1 143.122 12.3533 142.589 12.86C142.069 13.3667 141.789 14.1467 141.749 15.2C141.736 15.5867 141.729 16.1733 141.729 16.96C141.729 17.7333 141.736 18.32 141.749 18.72C141.829 20.84 142.856 21.9 144.829 21.9C145.776 21.9 146.536 21.6467 147.109 21.14C147.682 20.62 147.969 19.8533 147.969 18.84V18.22H145.529C145.382 18.22 145.262 18.1733 145.169 18.08C145.089 17.9867 145.049 17.8667 145.049 17.72V16.66C145.049 16.5133 145.089 16.3933 145.169 16.3C145.262 16.2067 145.382 16.16 145.529 16.16H150.309C150.456 16.16 150.569 16.2067 150.649 16.3C150.742 16.3933 150.789 16.5133 150.789 16.66V18.76C150.789 19.8667 150.542 20.8333 150.049 21.66C149.569 22.4733 148.876 23.1 147.969 23.54C147.062 23.98 146.002 24.2 144.789 24.2ZM153.513 11.88C153.38 11.88 153.266 11.8333 153.173 11.74C153.08 11.6467 153.033 11.5333 153.033 11.4V9.96C153.033 9.82667 153.08 9.71333 153.173 9.62C153.266 9.52667 153.38 9.48 153.513 9.48H155.333C155.466 9.48 155.58 9.52667 155.673 9.62C155.78 9.71333 155.833 9.82667 155.833 9.96V11.4C155.833 11.5333 155.786 11.6467 155.693 11.74C155.6 11.8333 155.48 11.88 155.333 11.88H153.513ZM153.593 24C153.46 24 153.346 23.9533 153.253 23.86C153.16 23.7667 153.113 23.6533 153.113 23.52V14.08C153.113 13.9467 153.16 13.8333 153.253 13.74C153.346 13.6467 153.46 13.6 153.593 13.6H155.253C155.4 13.6 155.513 13.6467 155.593 13.74C155.686 13.82 155.733 13.9333 155.733 14.08V23.52C155.733 23.6533 155.686 23.7667 155.593 23.86C155.513 23.9533 155.4 24 155.253 24H153.593ZM159.986 24C159.853 24 159.74 23.9533 159.646 23.86C159.553 23.7667 159.506 23.6533 159.506 23.52V15.72H157.886C157.753 15.72 157.64 15.6733 157.546 15.58C157.453 15.4733 157.406 15.3533 157.406 15.22V14.08C157.406 13.9467 157.453 13.8333 157.546 13.74C157.64 13.6467 157.753 13.6 157.886 13.6H159.506V12.78C159.506 10.3933 160.813 9.2 163.426 9.2H164.786C164.933 9.2 165.046 9.24667 165.126 9.34C165.22 9.42 165.266 9.53333 165.266 9.68V10.82C165.266 10.9667 165.22 11.0867 165.126 11.18C165.033 11.2733 164.92 11.32 164.786 11.32H163.506C162.986 11.32 162.62 11.4467 162.406 11.7C162.206 11.9533 162.106 12.3467 162.106 12.88V13.6H164.586C164.733 13.6 164.846 13.6467 164.926 13.74C165.02 13.82 165.066 13.9333 165.066 14.08V15.22C165.066 15.3667 165.02 15.4867 164.926 15.58C164.833 15.6733 164.72 15.72 164.586 15.72H162.106V23.52C162.106 23.6533 162.06 23.7667 161.966 23.86C161.873 23.9533 161.76 24 161.626 24H159.986ZM171.368 24C170.154 24 169.241 23.6867 168.628 23.06C168.028 22.42 167.728 21.4867 167.728 20.26V15.72H166.148C166.014 15.72 165.901 15.6733 165.808 15.58C165.714 15.4733 165.668 15.3533 165.668 15.22V14.08C165.668 13.9467 165.714 13.8333 165.808 13.74C165.901 13.6467 166.014 13.6 166.148 13.6H167.728V10.28C167.728 10.1333 167.774 10.02 167.868 9.94C167.961 9.84667 168.074 9.8 168.208 9.8H169.828C169.974 9.8 170.088 9.84667 170.168 9.94C170.261 10.02 170.308 10.1333 170.308 10.28V13.6H172.808C172.954 13.6 173.068 13.6467 173.148 13.74C173.241 13.82 173.288 13.9333 173.288 14.08V15.22C173.288 15.3667 173.241 15.4867 173.148 15.58C173.054 15.6733 172.941 15.72 172.808 15.72H170.308V20.06C170.308 20.6333 170.408 21.0667 170.608 21.36C170.808 21.6533 171.141 21.8 171.608 21.8H172.988C173.121 21.8 173.234 21.8467 173.328 21.94C173.421 22.0333 173.468 22.1467 173.468 22.28V23.52C173.468 23.6533 173.421 23.7667 173.328 23.86C173.248 23.9533 173.134 24 172.988 24H171.368ZM185.452 24.2C183.612 24.2 182.186 23.7267 181.172 22.78C180.172 21.8333 179.639 20.5 179.572 18.78C179.559 18.42 179.552 17.8333 179.552 17.02C179.552 16.1933 179.559 15.5933 179.572 15.22C179.639 13.5133 180.179 12.1867 181.192 11.24C182.219 10.28 183.639 9.8 185.452 9.8C186.639 9.8 187.672 10.0067 188.552 10.42C189.432 10.82 190.112 11.3733 190.592 12.08C191.072 12.7733 191.326 13.56 191.352 14.44V14.48C191.352 14.5867 191.306 14.68 191.212 14.76C191.132 14.8267 191.039 14.86 190.932 14.86H189.032C188.872 14.86 188.752 14.8267 188.672 14.76C188.592 14.6933 188.526 14.5667 188.472 14.38C188.259 13.54 187.906 12.9533 187.412 12.62C186.919 12.2733 186.259 12.1 185.432 12.1C183.512 12.1 182.512 13.1733 182.432 15.32C182.419 15.68 182.412 16.2333 182.412 16.98C182.412 17.7267 182.419 18.2933 182.432 18.68C182.512 20.8267 183.512 21.9 185.432 21.9C186.259 21.9 186.919 21.7267 187.412 21.38C187.919 21.0333 188.272 20.4467 188.472 19.62C188.512 19.4333 188.572 19.3067 188.652 19.24C188.746 19.1733 188.872 19.14 189.032 19.14H190.932C191.052 19.14 191.152 19.18 191.232 19.26C191.326 19.34 191.366 19.44 191.352 19.56C191.326 20.44 191.072 21.2333 190.592 21.94C190.112 22.6333 189.432 23.1867 188.552 23.6C187.672 24 186.639 24.2 185.452 24.2ZM196.504 24.2C195.824 24.2 195.197 24.0667 194.624 23.8C194.064 23.52 193.617 23.1467 193.284 22.68C192.964 22.2133 192.804 21.7 192.804 21.14C192.804 20.2333 193.171 19.5 193.904 18.94C194.637 18.38 195.644 18 196.924 17.8L199.664 17.4V16.98C199.664 16.3933 199.517 15.9533 199.224 15.66C198.931 15.3667 198.457 15.22 197.804 15.22C197.364 15.22 197.004 15.3067 196.724 15.48C196.457 15.64 196.244 15.8 196.084 15.96C195.924 16.1333 195.817 16.2467 195.764 16.3C195.711 16.46 195.611 16.54 195.464 16.54H193.924C193.804 16.54 193.697 16.5 193.604 16.42C193.524 16.34 193.484 16.2333 193.484 16.1C193.497 15.7667 193.657 15.3867 193.964 14.96C194.284 14.5333 194.771 14.1667 195.424 13.86C196.077 13.5533 196.877 13.4 197.824 13.4C199.397 13.4 200.544 13.7533 201.264 14.46C201.984 15.1667 202.344 16.0933 202.344 17.24V23.52C202.344 23.6533 202.297 23.7667 202.204 23.86C202.124 23.9533 202.011 24 201.864 24H200.244C200.111 24 199.997 23.9533 199.904 23.86C199.811 23.7667 199.764 23.6533 199.764 23.52V22.74C199.471 23.1667 199.051 23.52 198.504 23.8C197.971 24.0667 197.304 24.2 196.504 24.2ZM197.184 22.3C197.917 22.3 198.517 22.06 198.984 21.58C199.451 21.1 199.684 20.4 199.684 19.48V19.06L197.684 19.38C196.911 19.5 196.324 19.6933 195.924 19.96C195.537 20.2267 195.344 20.5533 195.344 20.94C195.344 21.3667 195.524 21.7 195.884 21.94C196.244 22.18 196.677 22.3 197.184 22.3ZM205.39 24C205.257 24 205.143 23.9533 205.05 23.86C204.957 23.7667 204.91 23.6533 204.91 23.52V14.1C204.91 13.9667 204.957 13.8533 205.05 13.76C205.143 13.6533 205.257 13.6 205.39 13.6H207.01C207.157 13.6 207.277 13.6467 207.37 13.74C207.463 13.8333 207.51 13.9533 207.51 14.1V14.92C207.83 14.4933 208.23 14.1667 208.71 13.94C209.203 13.7133 209.763 13.6 210.39 13.6H211.21C211.357 13.6 211.47 13.6467 211.55 13.74C211.643 13.82 211.69 13.9333 211.69 14.08V15.52C211.69 15.6533 211.643 15.7667 211.55 15.86C211.47 15.9533 211.357 16 211.21 16H209.65C209.023 16 208.53 16.18 208.17 16.54C207.81 16.9 207.63 17.3933 207.63 18.02V23.52C207.63 23.6533 207.583 23.7667 207.49 23.86C207.397 23.9533 207.277 24 207.13 24H205.39ZM216.953 24.2C215.607 24.2 214.573 23.7667 213.853 22.9C213.133 22.0333 212.747 20.88 212.693 19.44L212.673 18.78L212.693 18.14C212.733 16.74 213.113 15.6 213.833 14.72C214.567 13.84 215.607 13.4 216.953 13.4C218.247 13.4 219.273 13.84 220.033 14.72V10.28C220.033 10.1333 220.08 10.02 220.173 9.94C220.267 9.84667 220.38 9.8 220.513 9.8H222.213C222.36 9.8 222.473 9.84667 222.553 9.94C222.647 10.02 222.693 10.1333 222.693 10.28V23.52C222.693 23.6533 222.647 23.7667 222.553 23.86C222.473 23.9533 222.36 24 222.213 24H220.633C220.5 24 220.387 23.9533 220.293 23.86C220.2 23.7667 220.153 23.6533 220.153 23.52V22.78C219.393 23.7267 218.327 24.2 216.953 24.2ZM217.693 22.06C218.467 22.06 219.04 21.8133 219.413 21.32C219.787 20.8267 219.993 20.22 220.033 19.5C220.047 19.34 220.053 19.08 220.053 18.72C220.053 18.3733 220.047 18.12 220.033 17.96C220.007 17.2933 219.793 16.7267 219.393 16.26C219.007 15.78 218.44 15.54 217.693 15.54C216.253 15.54 215.487 16.4267 215.393 18.2L215.373 18.8L215.393 19.4C215.487 21.1733 216.253 22.06 217.693 22.06Z" fill="#555555"/>
<path d="M75.54 47C75.4467 47 75.3673 46.972 75.302 46.916C75.246 46.8507 75.218 46.7713 75.218 46.678V37.536C75.218 37.4333 75.246 37.354 75.302 37.298C75.3673 37.2327 75.4467 37.2 75.54 37.2H79.376C80.3747 37.2 81.126 37.438 81.63 37.914C82.134 38.39 82.386 39.0153 82.386 39.79C82.386 40.3127 82.2647 40.7467 82.022 41.092C81.7887 41.4373 81.5087 41.6893 81.182 41.848C81.574 42.044 81.9053 42.3473 82.176 42.758C82.4467 43.1687 82.582 43.64 82.582 44.172C82.582 44.6947 82.4607 45.1707 82.218 45.6C81.9847 46.0293 81.6347 46.37 81.168 46.622C80.7013 46.874 80.1413 47 79.488 47H75.54ZM79.166 41.344C79.754 41.344 80.202 41.2087 80.51 40.938C80.8273 40.6673 80.986 40.2893 80.986 39.804C80.986 39.328 80.832 38.964 80.524 38.712C80.216 38.46 79.7633 38.334 79.166 38.334H76.59V41.344H79.166ZM79.306 45.866C79.894 45.866 80.3513 45.7073 80.678 45.39C81.014 45.0727 81.182 44.6667 81.182 44.172C81.182 43.6587 81.014 43.248 80.678 42.94C80.3513 42.6227 79.894 42.464 79.306 42.464H76.59V45.866H79.306ZM87.1036 47.14C86.2169 47.14 85.5309 46.8553 85.0456 46.286C84.5602 45.7073 84.3176 44.942 84.3176 43.99V40.042C84.3176 39.9487 84.3456 39.874 84.4016 39.818C84.4669 39.7527 84.5462 39.72 84.6396 39.72H85.3396C85.4329 39.72 85.5076 39.7527 85.5636 39.818C85.6289 39.874 85.6616 39.9487 85.6616 40.042V43.92C85.6616 45.3107 86.2682 46.006 87.4816 46.006C88.0696 46.006 88.5362 45.824 88.8816 45.46C89.2269 45.0867 89.3996 44.5733 89.3996 43.92V40.042C89.3996 39.9487 89.4276 39.874 89.4836 39.818C89.5489 39.7527 89.6282 39.72 89.7216 39.72H90.4216C90.5149 39.72 90.5896 39.7527 90.6456 39.818C90.7016 39.874 90.7296 39.9487 90.7296 40.042V46.678C90.7296 46.7713 90.7016 46.8507 90.6456 46.916C90.5896 46.972 90.5149 47 90.4216 47H89.7636C89.6702 47 89.5909 46.972 89.5256 46.916C89.4696 46.8507 89.4416 46.7713 89.4416 46.678V46.062C89.1802 46.4167 88.8629 46.6873 88.4896 46.874C88.1162 47.0513 87.6542 47.14 87.1036 47.14ZM94.0834 49.66C94.0088 49.66 93.9434 49.632 93.8874 49.576C93.8314 49.52 93.8034 49.4547 93.8034 49.38C93.8034 49.3147 93.8268 49.2307 93.8734 49.128L94.9514 46.566L92.2774 40.252C92.2308 40.1307 92.2074 40.0513 92.2074 40.014C92.2074 39.93 92.2354 39.86 92.2914 39.804C92.3474 39.748 92.4174 39.72 92.5014 39.72H93.1874C93.3368 39.72 93.4488 39.7993 93.5234 39.958L95.6514 45.054L97.8354 39.958C97.9101 39.7993 98.0268 39.72 98.1854 39.72H98.8434C98.9274 39.72 98.9974 39.748 99.0534 39.804C99.1094 39.86 99.1374 39.9253 99.1374 40C99.1374 40.028 99.1141 40.112 99.0674 40.252L95.0914 49.422C95.0168 49.5807 94.9001 49.66 94.7414 49.66H94.0834ZM106.621 48.4C106.527 48.4 106.448 48.3673 106.383 48.302C106.327 48.246 106.299 48.1713 106.299 48.078V47.098C105.645 47.042 105.081 46.8927 104.605 46.65C104.129 46.398 103.765 46.09 103.513 45.726C103.27 45.3527 103.139 44.956 103.121 44.536C103.121 44.4613 103.149 44.396 103.205 44.34C103.27 44.2747 103.345 44.242 103.429 44.242H104.157C104.325 44.242 104.441 44.3353 104.507 44.522C104.6 44.914 104.843 45.25 105.235 45.53C105.627 45.81 106.182 45.95 106.901 45.95C107.675 45.95 108.259 45.8147 108.651 45.544C109.043 45.264 109.239 44.8767 109.239 44.382C109.239 44.0647 109.141 43.808 108.945 43.612C108.758 43.416 108.478 43.2433 108.105 43.094C107.731 42.9447 107.171 42.758 106.425 42.534C105.697 42.3287 105.118 42.1093 104.689 41.876C104.259 41.6427 103.937 41.3533 103.723 41.008C103.508 40.6627 103.401 40.2287 103.401 39.706C103.401 39.0153 103.657 38.432 104.171 37.956C104.684 37.4707 105.393 37.1813 106.299 37.088V36.122C106.299 36.0287 106.327 35.954 106.383 35.898C106.448 35.8327 106.527 35.8 106.621 35.8H107.153C107.246 35.8 107.321 35.8327 107.377 35.898C107.442 35.954 107.475 36.0287 107.475 36.122V37.102C108.072 37.1767 108.581 37.3447 109.001 37.606C109.43 37.8673 109.752 38.1753 109.967 38.53C110.191 38.8847 110.312 39.2393 110.331 39.594C110.331 39.6687 110.303 39.734 110.247 39.79C110.2 39.846 110.13 39.874 110.037 39.874H109.295C109.099 39.874 108.977 39.7853 108.931 39.608C108.875 39.216 108.655 38.894 108.273 38.642C107.89 38.3807 107.409 38.25 106.831 38.25C106.196 38.25 105.697 38.3713 105.333 38.614C104.969 38.8567 104.787 39.216 104.787 39.692C104.787 40.0093 104.871 40.2707 105.039 40.476C105.216 40.6813 105.482 40.8633 105.837 41.022C106.191 41.1713 106.709 41.344 107.391 41.54C108.184 41.7547 108.809 41.9787 109.267 42.212C109.724 42.436 110.065 42.7207 110.289 43.066C110.513 43.402 110.625 43.8313 110.625 44.354C110.625 45.1473 110.345 45.7867 109.785 46.272C109.225 46.748 108.455 47.028 107.475 47.112V48.078C107.475 48.1713 107.442 48.246 107.377 48.302C107.321 48.3673 107.246 48.4 107.153 48.4H106.621ZM115.079 47C114.986 47 114.906 46.972 114.841 46.916C114.785 46.8507 114.757 46.7713 114.757 46.678V38.838L112.433 40.63C112.368 40.686 112.298 40.714 112.223 40.714C112.139 40.714 112.06 40.6673 111.985 40.574L111.621 40.112C111.574 40.0467 111.551 39.9813 111.551 39.916C111.551 39.804 111.598 39.7153 111.691 39.65L114.743 37.298C114.846 37.2327 114.967 37.2 115.107 37.2H115.821C115.914 37.2 115.989 37.2327 116.045 37.298C116.11 37.354 116.143 37.4287 116.143 37.522V46.678C116.143 46.7713 116.11 46.8507 116.045 46.916C115.989 46.972 115.914 47 115.821 47H115.079ZM121.641 47.14C120.437 47.14 119.555 46.79 118.995 46.09C118.435 45.39 118.136 44.4707 118.099 43.332C118.09 43.08 118.085 42.674 118.085 42.114C118.085 41.5353 118.09 41.1153 118.099 40.854C118.127 39.734 118.426 38.824 118.995 38.124C119.564 37.4147 120.446 37.06 121.641 37.06C122.845 37.06 123.732 37.4147 124.301 38.124C124.87 38.824 125.169 39.734 125.197 40.854C125.216 41.3767 125.225 41.7967 125.225 42.114C125.225 42.422 125.216 42.828 125.197 43.332C125.16 44.4707 124.861 45.39 124.301 46.09C123.741 46.79 122.854 47.14 121.641 47.14ZM121.641 45.936C122.341 45.936 122.868 45.7027 123.223 45.236C123.587 44.7693 123.778 44.1113 123.797 43.262C123.816 42.7207 123.825 42.3287 123.825 42.086C123.825 41.8247 123.816 41.442 123.797 40.938C123.778 40.098 123.592 39.44 123.237 38.964C122.882 38.488 122.35 38.25 121.641 38.25C120.941 38.25 120.409 38.488 120.045 38.964C119.69 39.44 119.504 40.098 119.485 40.938L119.471 42.086L119.485 43.262C119.504 44.1113 119.69 44.7693 120.045 45.236C120.409 45.7027 120.941 45.936 121.641 45.936ZM130.528 47.14C129.324 47.14 128.442 46.79 127.882 46.09C127.322 45.39 127.023 44.4707 126.986 43.332C126.977 43.08 126.972 42.674 126.972 42.114C126.972 41.5353 126.977 41.1153 126.986 40.854C127.014 39.734 127.313 38.824 127.882 38.124C128.451 37.4147 129.333 37.06 130.528 37.06C131.732 37.06 132.619 37.4147 133.188 38.124C133.757 38.824 134.056 39.734 134.084 40.854C134.103 41.3767 134.112 41.7967 134.112 42.114C134.112 42.422 134.103 42.828 134.084 43.332C134.047 44.4707 133.748 45.39 133.188 46.09C132.628 46.79 131.741 47.14 130.528 47.14ZM130.528 45.936C131.228 45.936 131.755 45.7027 132.11 45.236C132.474 44.7693 132.665 44.1113 132.684 43.262C132.703 42.7207 132.712 42.3287 132.712 42.086C132.712 41.8247 132.703 41.442 132.684 40.938C132.665 40.098 132.479 39.44 132.124 38.964C131.769 38.488 131.237 38.25 130.528 38.25C129.828 38.25 129.296 38.488 128.932 38.964C128.577 39.44 128.391 40.098 128.372 40.938L128.358 42.086L128.372 43.262C128.391 44.1113 128.577 44.7693 128.932 45.236C129.296 45.7027 129.828 45.936 130.528 45.936ZM139.415 47.14C138.211 47.14 137.329 46.79 136.769 46.09C136.209 45.39 135.91 44.4707 135.873 43.332C135.863 43.08 135.859 42.674 135.859 42.114C135.859 41.5353 135.863 41.1153 135.873 40.854C135.901 39.734 136.199 38.824 136.769 38.124C137.338 37.4147 138.22 37.06 139.415 37.06C140.619 37.06 141.505 37.4147 142.075 38.124C142.644 38.824 142.943 39.734 142.971 40.854C142.989 41.3767 142.999 41.7967 142.999 42.114C142.999 42.422 142.989 42.828 142.971 43.332C142.933 44.4707 142.635 45.39 142.075 46.09C141.515 46.79 140.628 47.14 139.415 47.14ZM139.415 45.936C140.115 45.936 140.642 45.7027 140.997 45.236C141.361 44.7693 141.552 44.1113 141.571 43.262C141.589 42.7207 141.599 42.3287 141.599 42.086C141.599 41.8247 141.589 41.442 141.571 40.938C141.552 40.098 141.365 39.44 141.011 38.964C140.656 38.488 140.124 38.25 139.415 38.25C138.715 38.25 138.183 38.488 137.819 38.964C137.464 39.44 137.277 40.098 137.259 40.938L137.245 42.086L137.259 43.262C137.277 44.1113 137.464 44.7693 137.819 45.236C138.183 45.7027 138.715 45.936 139.415 45.936ZM150.872 47C149.397 47 148.66 46.1787 148.66 44.536V40.84H147.568C147.475 40.84 147.395 40.812 147.33 40.756C147.274 40.6907 147.246 40.6113 147.246 40.518V40.042C147.246 39.9487 147.274 39.874 147.33 39.818C147.395 39.7527 147.475 39.72 147.568 39.72H148.66V37.382C148.66 37.2887 148.688 37.214 148.744 37.158C148.809 37.0927 148.889 37.06 148.982 37.06H149.64C149.733 37.06 149.808 37.0927 149.864 37.158C149.929 37.214 149.962 37.2887 149.962 37.382V39.72H151.698C151.791 39.72 151.866 39.7527 151.922 39.818C151.987 39.874 152.02 39.9487 152.02 40.042V40.518C152.02 40.6113 151.987 40.6907 151.922 40.756C151.866 40.812 151.791 40.84 151.698 40.84H149.962V44.438C149.962 44.9047 150.041 45.2593 150.2 45.502C150.359 45.7353 150.62 45.852 150.984 45.852H151.838C151.931 45.852 152.006 45.8847 152.062 45.95C152.127 46.006 152.16 46.0807 152.16 46.174V46.678C152.16 46.7713 152.127 46.8507 152.062 46.916C152.006 46.972 151.931 47 151.838 47H150.872ZM156.481 47.14C155.454 47.14 154.656 46.8507 154.087 46.272C153.527 45.6933 153.228 44.9233 153.191 43.962L153.177 43.36L153.191 42.758C153.228 41.806 153.532 41.0407 154.101 40.462C154.67 39.874 155.464 39.58 156.481 39.58C157.498 39.58 158.292 39.874 158.861 40.462C159.43 41.0407 159.734 41.806 159.771 42.758C159.78 42.8607 159.785 43.0613 159.785 43.36C159.785 43.6587 159.78 43.8593 159.771 43.962C159.734 44.9233 159.43 45.6933 158.861 46.272C158.301 46.8507 157.508 47.14 156.481 47.14ZM156.481 46.062C157.069 46.062 157.531 45.8753 157.867 45.502C158.212 45.1287 158.399 44.592 158.427 43.892C158.436 43.7987 158.441 43.6213 158.441 43.36C158.441 43.0987 158.436 42.9213 158.427 42.828C158.399 42.128 158.212 41.5913 157.867 41.218C157.531 40.8447 157.069 40.658 156.481 40.658C155.893 40.658 155.426 40.8447 155.081 41.218C154.736 41.5913 154.554 42.128 154.535 42.828L154.521 43.36L154.535 43.892C154.554 44.592 154.736 45.1287 155.081 45.502C155.426 45.8753 155.893 46.062 156.481 46.062ZM167.952 50.08C167.186 50.08 166.57 49.9493 166.104 49.688C165.637 49.436 165.306 49.1467 165.11 48.82C164.914 48.4933 164.806 48.1993 164.788 47.938C164.778 47.8447 164.806 47.7653 164.872 47.7C164.946 47.6347 165.026 47.602 165.11 47.602H165.782C165.866 47.602 165.936 47.6207 165.992 47.658C166.048 47.7047 166.094 47.784 166.132 47.896C166.244 48.1947 166.426 48.4513 166.678 48.666C166.939 48.89 167.34 49.002 167.882 49.002C168.572 49.002 169.081 48.8527 169.408 48.554C169.734 48.2647 169.898 47.7467 169.898 47V46.048C169.655 46.356 169.347 46.6033 168.974 46.79C168.6 46.9673 168.157 47.056 167.644 47.056C166.654 47.056 165.912 46.7433 165.418 46.118C164.932 45.4833 164.676 44.6807 164.648 43.71L164.634 43.318L164.648 42.94C164.676 41.9787 164.937 41.1807 165.432 40.546C165.926 39.902 166.664 39.58 167.644 39.58C168.624 39.58 169.389 39.9393 169.94 40.658V40.056C169.94 39.9627 169.968 39.8833 170.024 39.818C170.089 39.7527 170.168 39.72 170.262 39.72H170.906C170.999 39.72 171.078 39.7527 171.144 39.818C171.209 39.8833 171.242 39.9627 171.242 40.056V46.846C171.242 49.002 170.145 50.08 167.952 50.08ZM167.924 45.936C168.558 45.936 169.039 45.726 169.366 45.306C169.692 44.886 169.87 44.3867 169.898 43.808C169.907 43.724 169.912 43.5607 169.912 43.318C169.912 43.0847 169.907 42.926 169.898 42.842C169.87 42.2633 169.692 41.764 169.366 41.344C169.048 40.924 168.568 40.714 167.924 40.714C167.261 40.714 166.78 40.9193 166.482 41.33C166.183 41.7407 166.02 42.282 165.992 42.954L165.978 43.318L165.992 43.696C166.02 44.3587 166.183 44.9 166.482 45.32C166.78 45.7307 167.261 45.936 167.924 45.936ZM176.235 47.14C175.274 47.14 174.504 46.846 173.925 46.258C173.356 45.6607 173.043 44.8487 172.987 43.822L172.973 43.346L172.987 42.884C173.052 41.876 173.37 41.0733 173.939 40.476C174.518 39.8787 175.278 39.58 176.221 39.58C177.257 39.58 178.06 39.9113 178.629 40.574C179.198 41.2273 179.483 42.114 179.483 43.234V43.472C179.483 43.5653 179.45 43.6447 179.385 43.71C179.329 43.766 179.254 43.794 179.161 43.794H174.317V43.92C174.345 44.5267 174.527 45.0447 174.863 45.474C175.208 45.894 175.661 46.104 176.221 46.104C176.65 46.104 177 46.02 177.271 45.852C177.551 45.6747 177.756 45.4927 177.887 45.306C177.971 45.194 178.032 45.1287 178.069 45.11C178.116 45.082 178.195 45.068 178.307 45.068H178.993C179.077 45.068 179.147 45.0913 179.203 45.138C179.259 45.1847 179.287 45.25 179.287 45.334C179.287 45.5393 179.156 45.7867 178.895 46.076C178.643 46.3653 178.284 46.6173 177.817 46.832C177.36 47.0373 176.832 47.14 176.235 47.14ZM178.153 42.828V42.786C178.153 42.142 177.976 41.6193 177.621 41.218C177.276 40.8073 176.809 40.602 176.221 40.602C175.633 40.602 175.166 40.8073 174.821 41.218C174.485 41.6193 174.317 42.142 174.317 42.786V42.828H178.153ZM183.958 47C182.483 47 181.746 46.1787 181.746 44.536V40.84H180.654C180.561 40.84 180.481 40.812 180.416 40.756C180.36 40.6907 180.332 40.6113 180.332 40.518V40.042C180.332 39.9487 180.36 39.874 180.416 39.818C180.481 39.7527 180.561 39.72 180.654 39.72H181.746V37.382C181.746 37.2887 181.774 37.214 181.83 37.158C181.895 37.0927 181.975 37.06 182.068 37.06H182.726C182.819 37.06 182.894 37.0927 182.95 37.158C183.015 37.214 183.048 37.2887 183.048 37.382V39.72H184.784C184.877 39.72 184.952 39.7527 185.008 39.818C185.073 39.874 185.106 39.9487 185.106 40.042V40.518C185.106 40.6113 185.073 40.6907 185.008 40.756C184.952 40.812 184.877 40.84 184.784 40.84H183.048V44.438C183.048 44.9047 183.127 45.2593 183.286 45.502C183.445 45.7353 183.706 45.852 184.07 45.852H184.924C185.017 45.852 185.092 45.8847 185.148 45.95C185.213 46.006 185.246 46.0807 185.246 46.174V46.678C185.246 46.7713 185.213 46.8507 185.148 46.916C185.092 46.972 185.017 47 184.924 47H183.958ZM192.956 47.14C191.958 47.14 191.174 46.86 190.604 46.3C190.044 45.7307 189.746 44.9373 189.708 43.92L189.694 43.36L189.708 42.8C189.746 41.7827 190.044 40.994 190.604 40.434C191.174 39.8647 191.958 39.58 192.956 39.58C193.628 39.58 194.198 39.7013 194.664 39.944C195.131 40.1867 195.476 40.4853 195.7 40.84C195.934 41.1947 196.06 41.5493 196.078 41.904C196.088 41.9973 196.06 42.072 195.994 42.128C195.929 42.184 195.85 42.212 195.756 42.212H195.084C194.991 42.212 194.921 42.1933 194.874 42.156C194.828 42.1187 194.781 42.044 194.734 41.932C194.576 41.484 194.352 41.1667 194.062 40.98C193.773 40.784 193.409 40.686 192.97 40.686C192.392 40.686 191.93 40.868 191.584 41.232C191.248 41.5867 191.066 42.1327 191.038 42.87L191.024 43.374L191.038 43.85C191.066 44.5967 191.248 45.1473 191.584 45.502C191.92 45.8567 192.382 46.034 192.97 46.034C193.409 46.034 193.773 45.9407 194.062 45.754C194.352 45.558 194.576 45.236 194.734 44.788C194.781 44.676 194.828 44.6013 194.874 44.564C194.921 44.5173 194.991 44.494 195.084 44.494H195.756C195.85 44.494 195.929 44.5267 195.994 44.592C196.06 44.648 196.088 44.7227 196.078 44.816C196.06 45.1613 195.934 45.516 195.7 45.88C195.476 46.2347 195.131 46.5333 194.664 46.776C194.207 47.0187 193.638 47.14 192.956 47.14ZM199.771 47.14C199.314 47.14 198.889 47.0467 198.497 46.86C198.105 46.6733 197.792 46.4213 197.559 46.104C197.335 45.7773 197.223 45.418 197.223 45.026C197.223 44.41 197.475 43.906 197.979 43.514C198.492 43.1127 199.183 42.8513 200.051 42.73L202.137 42.436V42.03C202.137 41.078 201.591 40.602 200.499 40.602C200.088 40.602 199.752 40.6907 199.491 40.868C199.23 41.036 199.034 41.2367 198.903 41.47C198.875 41.554 198.838 41.6147 198.791 41.652C198.754 41.6893 198.698 41.708 198.623 41.708H198.021C197.937 41.708 197.862 41.68 197.797 41.624C197.741 41.5587 197.713 41.484 197.713 41.4C197.722 41.176 197.825 40.924 198.021 40.644C198.226 40.3547 198.539 40.1073 198.959 39.902C199.379 39.6873 199.897 39.58 200.513 39.58C201.558 39.58 202.31 39.8273 202.767 40.322C203.224 40.8073 203.453 41.414 203.453 42.142V46.678C203.453 46.7713 203.42 46.8507 203.355 46.916C203.299 46.972 203.224 47 203.131 47H202.487C202.394 47 202.314 46.972 202.249 46.916C202.193 46.8507 202.165 46.7713 202.165 46.678V46.076C201.96 46.3747 201.661 46.6267 201.269 46.832C200.877 47.0373 200.378 47.14 199.771 47.14ZM200.065 46.09C200.672 46.09 201.166 45.894 201.549 45.502C201.941 45.1007 202.137 44.5267 202.137 43.78V43.388L200.513 43.626C199.85 43.7193 199.351 43.878 199.015 44.102C198.679 44.3167 198.511 44.592 198.511 44.928C198.511 45.3013 198.665 45.5907 198.973 45.796C199.281 45.992 199.645 46.09 200.065 46.09ZM205.788 47C205.694 47 205.615 46.972 205.55 46.916C205.494 46.8507 205.466 46.7713 205.466 46.678V40.056C205.466 39.9627 205.494 39.8833 205.55 39.818C205.615 39.7527 205.694 39.72 205.788 39.72H206.432C206.525 39.72 206.604 39.7527 206.67 39.818C206.735 39.8833 206.768 39.9627 206.768 40.056V40.672C207.15 40.0373 207.804 39.72 208.728 39.72H209.274C209.367 39.72 209.442 39.7527 209.498 39.818C209.563 39.874 209.596 39.9487 209.596 40.042V40.616C209.596 40.7093 209.563 40.784 209.498 40.84C209.442 40.896 209.367 40.924 209.274 40.924H208.434C207.93 40.924 207.533 41.0733 207.244 41.372C206.954 41.6613 206.81 42.058 206.81 42.562V46.678C206.81 46.7713 206.777 46.8507 206.712 46.916C206.646 46.972 206.567 47 206.474 47H205.788ZM213.294 47.14C212.323 47.14 211.59 46.8227 211.096 46.188C210.601 45.5533 210.34 44.7507 210.312 43.78L210.298 43.36L210.312 42.94C210.34 41.9787 210.601 41.1807 211.096 40.546C211.59 39.902 212.323 39.58 213.294 39.58C214.255 39.58 215.011 39.9207 215.562 40.602V37.382C215.562 37.2887 215.59 37.214 215.646 37.158C215.711 37.0927 215.79 37.06 215.884 37.06H216.556C216.649 37.06 216.724 37.0927 216.78 37.158C216.845 37.214 216.878 37.2887 216.878 37.382V46.678C216.878 46.7713 216.845 46.8507 216.78 46.916C216.724 46.972 216.649 47 216.556 47H215.926C215.832 47 215.753 46.972 215.688 46.916C215.632 46.8507 215.604 46.7713 215.604 46.678V46.09C215.062 46.79 214.292 47.14 213.294 47.14ZM213.588 46.006C214.232 46.006 214.712 45.796 215.03 45.376C215.356 44.9467 215.534 44.438 215.562 43.85C215.571 43.7473 215.576 43.57 215.576 43.318C215.576 43.0567 215.571 42.8747 215.562 42.772C215.543 42.2213 215.366 41.7407 215.03 41.33C214.694 40.9193 214.213 40.714 213.588 40.714C212.925 40.714 212.44 40.9193 212.132 41.33C211.833 41.7407 211.67 42.282 211.642 42.954L211.628 43.36C211.628 45.124 212.281 46.006 213.588 46.006Z" fill="#515151" fill-opacity="0.71"/>
<mask id="path-3-outside-1_2_221" maskUnits="userSpaceOnUse" x="0" y="0" width="60" height="60" fill="black">
<rect fill="white" width="60" height="60"/>
<path d="M7.42459 18.7252C6.4521 19.215 5.83715 20.2095 5.83346 21.2984V28.0651C5.83346 29.1328 6.69904 29.9984 7.76679 29.9984V56.0984C7.76679 57.7 9.06517 58.9984 10.6668 58.9984H49.3335C50.9351 58.9984 52.2335 57.7 52.2335 56.0984V29.9984C53.3012 29.9984 54.1668 29.1328 54.1668 28.0651V21.2984C54.1631 20.2095 53.5482 19.215 52.5757 18.7252C56.597 16.147 58.7942 11.334 58.917 11.0576C59.0499 10.7585 59.0224 10.4126 58.8441 10.1382C58.6657 9.86388 58.3607 9.69838 58.0335 9.69842H54.1668V5.83175C54.167 5.4564 53.9498 5.11488 53.6099 4.95578C53.2699 4.79668 52.8686 4.84875 52.5805 5.08935L49.3528 7.78442C47.881 5.10025 45.6566 2.90483 42.9535 1.46822C42.3384 1.12871 41.6405 0.968309 40.9389 1.00518C34.4642 1.41022 31.3631 6.64278 30.0001 10.1818C28.6313 6.64665 25.5303 1.42762 19.0613 1.02355C18.3601 0.984053 17.6619 1.14285 17.0468 1.48175C14.3484 2.91586 12.1268 5.10584 10.6542 7.78345L7.41879 5.08838C7.13054 4.84829 6.72939 4.79665 6.38973 4.95592C6.05007 5.11519 5.83322 5.4566 5.83346 5.83175V9.69842H1.96679C1.63957 9.69838 1.33454 9.86388 1.1562 10.1382C0.977856 10.4126 0.950408 10.7585 1.08326 11.0576C1.20603 11.334 3.40326 16.147 7.42459 18.7252ZM23.2335 20.3318V28.0651H7.76679V21.2984C7.76679 20.7645 8.19958 20.3318 8.73346 20.3318H23.2335ZM25.0991 14.6439C22.8524 12.7087 21.2871 10.1027 20.6341 7.21022C23.6878 8.54808 25.2838 12.1915 25.8618 13.8135C25.5762 14.0597 25.3202 14.3384 25.0991 14.6439ZM26.1335 17.4318C26.1335 15.8301 27.4318 14.5318 29.0335 14.5318H30.9668C32.5684 14.5318 33.8668 15.8301 33.8668 17.4318V18.3984H26.1335V17.4318ZM34.8335 28.0651H25.1668V20.3318H34.8335V28.0651ZM34.1384 13.8135C34.7184 12.1915 36.3134 8.54808 39.3662 7.21022C38.7137 10.1029 37.1483 12.709 34.9011 14.6439C34.68 14.3384 34.424 14.0597 34.1384 13.8135ZM9.70013 56.0984V29.9984H25.1668V57.0651H10.6668C10.1329 57.0651 9.70013 56.6323 9.70013 56.0984ZM27.1001 57.0651V29.9984H32.9001V57.0651H27.1001ZM50.3001 56.0984C50.3001 56.6323 49.8673 57.0651 49.3335 57.0651H34.8335V29.9984H50.3001V56.0984ZM51.2668 20.3318C51.8007 20.3318 52.2335 20.7645 52.2335 21.2984V28.0651H36.7668V20.3318H51.2668ZM53.2001 11.6318H56.4327C55.089 13.945 51.9145 18.3984 47.4001 18.3984H45.2348C46.9031 17.036 48.3486 15.4216 49.5191 13.6134C50.2791 12.4468 50.4953 11.0078 50.1116 9.66942L52.2335 7.89848V10.6651C52.2335 11.199 52.6663 11.6318 53.2001 11.6318ZM41.0598 2.93175C41.4001 2.91682 41.7377 2.99788 42.0342 3.16568C43.459 3.93902 46.9139 6.14785 48.2131 10.0435C48.5007 10.8848 48.3856 11.8115 47.9009 12.5569C46.8201 14.2089 44.5697 17.1331 41.5325 18.3984H35.8001V17.4318C35.8 17.11 35.7676 16.7891 35.7035 16.4738C39.6668 13.6705 41.0414 8.79072 41.4551 6.74525C41.5562 6.25263 41.391 5.74313 41.0201 5.40352C40.646 5.05359 40.1155 4.92619 39.6233 5.06808C35.4193 6.25225 33.2926 10.5336 32.4284 12.8498C32.0306 12.7206 31.6175 12.6442 31.1998 12.6226C31.9141 9.94975 34.3443 3.35515 41.0598 2.93175ZM11.7872 10.0571C13.0835 6.16622 16.5403 3.95642 17.9651 3.18695C18.2625 3.02065 18.6 2.9397 18.9405 2.95302C25.6501 3.37255 28.0813 9.94782 28.8005 12.6197C28.3834 12.6414 27.971 12.7178 27.5738 12.8469C26.7096 10.5269 24.5829 6.24935 20.3789 5.06518C19.8867 4.92488 19.3569 5.05209 18.9821 5.40062C18.6122 5.74084 18.4482 6.25025 18.55 6.74235C18.9589 8.79072 20.3335 13.6734 24.2968 16.4738C24.2326 16.7891 24.2002 17.11 24.2001 17.4318V18.3984H18.4678C15.4305 17.135 13.1782 14.2137 12.0994 12.5627C11.6156 11.8199 11.5005 10.8958 11.7872 10.0571ZM6.80013 11.6318C7.334 11.6318 7.76679 11.199 7.76679 10.6651V7.89462L9.89346 9.66555C9.50515 11.0066 9.72007 12.4503 10.4822 13.6202C11.6516 15.426 13.0958 17.0381 14.7626 18.3984H12.6001C8.09836 18.3984 4.91899 13.946 3.57049 11.6318H6.80013Z"/>
</mask>
<path d="M7.42459 18.7252C6.4521 19.215 5.83715 20.2095 5.83346 21.2984V28.0651C5.83346 29.1328 6.69904 29.9984 7.76679 29.9984V56.0984C7.76679 57.7 9.06517 58.9984 10.6668 58.9984H49.3335C50.9351 58.9984 52.2335 57.7 52.2335 56.0984V29.9984C53.3012 29.9984 54.1668 29.1328 54.1668 28.0651V21.2984C54.1631 20.2095 53.5482 19.215 52.5757 18.7252C56.597 16.147 58.7942 11.334 58.917 11.0576C59.0499 10.7585 59.0224 10.4126 58.8441 10.1382C58.6657 9.86388 58.3607 9.69838 58.0335 9.69842H54.1668V5.83175C54.167 5.4564 53.9498 5.11488 53.6099 4.95578C53.2699 4.79668 52.8686 4.84875 52.5805 5.08935L49.3528 7.78442C47.881 5.10025 45.6566 2.90483 42.9535 1.46822C42.3384 1.12871 41.6405 0.968309 40.9389 1.00518C34.4642 1.41022 31.3631 6.64278 30.0001 10.1818C28.6313 6.64665 25.5303 1.42762 19.0613 1.02355C18.3601 0.984053 17.6619 1.14285 17.0468 1.48175C14.3484 2.91586 12.1268 5.10584 10.6542 7.78345L7.41879 5.08838C7.13054 4.84829 6.72939 4.79665 6.38973 4.95592C6.05007 5.11519 5.83322 5.4566 5.83346 5.83175V9.69842H1.96679C1.63957 9.69838 1.33454 9.86388 1.1562 10.1382C0.977856 10.4126 0.950408 10.7585 1.08326 11.0576C1.20603 11.334 3.40326 16.147 7.42459 18.7252ZM23.2335 20.3318V28.0651H7.76679V21.2984C7.76679 20.7645 8.19958 20.3318 8.73346 20.3318H23.2335ZM25.0991 14.6439C22.8524 12.7087 21.2871 10.1027 20.6341 7.21022C23.6878 8.54808 25.2838 12.1915 25.8618 13.8135C25.5762 14.0597 25.3202 14.3384 25.0991 14.6439ZM26.1335 17.4318C26.1335 15.8301 27.4318 14.5318 29.0335 14.5318H30.9668C32.5684 14.5318 33.8668 15.8301 33.8668 17.4318V18.3984H26.1335V17.4318ZM34.8335 28.0651H25.1668V20.3318H34.8335V28.0651ZM34.1384 13.8135C34.7184 12.1915 36.3134 8.54808 39.3662 7.21022C38.7137 10.1029 37.1483 12.709 34.9011 14.6439C34.68 14.3384 34.424 14.0597 34.1384 13.8135ZM9.70013 56.0984V29.9984H25.1668V57.0651H10.6668C10.1329 57.0651 9.70013 56.6323 9.70013 56.0984ZM27.1001 57.0651V29.9984H32.9001V57.0651H27.1001ZM50.3001 56.0984C50.3001 56.6323 49.8673 57.0651 49.3335 57.0651H34.8335V29.9984H50.3001V56.0984ZM51.2668 20.3318C51.8007 20.3318 52.2335 20.7645 52.2335 21.2984V28.0651H36.7668V20.3318H51.2668ZM53.2001 11.6318H56.4327C55.089 13.945 51.9145 18.3984 47.4001 18.3984H45.2348C46.9031 17.036 48.3486 15.4216 49.5191 13.6134C50.2791 12.4468 50.4953 11.0078 50.1116 9.66942L52.2335 7.89848V10.6651C52.2335 11.199 52.6663 11.6318 53.2001 11.6318ZM41.0598 2.93175C41.4001 2.91682 41.7377 2.99788 42.0342 3.16568C43.459 3.93902 46.9139 6.14785 48.2131 10.0435C48.5007 10.8848 48.3856 11.8115 47.9009 12.5569C46.8201 14.2089 44.5697 17.1331 41.5325 18.3984H35.8001V17.4318C35.8 17.11 35.7676 16.7891 35.7035 16.4738C39.6668 13.6705 41.0414 8.79072 41.4551 6.74525C41.5562 6.25263 41.391 5.74313 41.0201 5.40352C40.646 5.05359 40.1155 4.92619 39.6233 5.06808C35.4193 6.25225 33.2926 10.5336 32.4284 12.8498C32.0306 12.7206 31.6175 12.6442 31.1998 12.6226C31.9141 9.94975 34.3443 3.35515 41.0598 2.93175ZM11.7872 10.0571C13.0835 6.16622 16.5403 3.95642 17.9651 3.18695C18.2625 3.02065 18.6 2.9397 18.9405 2.95302C25.6501 3.37255 28.0813 9.94782 28.8005 12.6197C28.3834 12.6414 27.971 12.7178 27.5738 12.8469C26.7096 10.5269 24.5829 6.24935 20.3789 5.06518C19.8867 4.92488 19.3569 5.05209 18.9821 5.40062C18.6122 5.74084 18.4482 6.25025 18.55 6.74235C18.9589 8.79072 20.3335 13.6734 24.2968 16.4738C24.2326 16.7891 24.2002 17.11 24.2001 17.4318V18.3984H18.4678C15.4305 17.135 13.1782 14.2137 12.0994 12.5627C11.6156 11.8199 11.5005 10.8958 11.7872 10.0571ZM6.80013 11.6318C7.334 11.6318 7.76679 11.199 7.76679 10.6651V7.89462L9.89346 9.66555C9.50515 11.0066 9.72007 12.4503 10.4822 13.6202C11.6516 15.426 13.0958 17.0381 14.7626 18.3984H12.6001C8.09836 18.3984 4.91899 13.946 3.57049 11.6318H6.80013Z" fill="#7AC751"/>
<path d="M7.42459 18.7252C6.4521 19.215 5.83715 20.2095 5.83346 21.2984V28.0651C5.83346 29.1328 6.69904 29.9984 7.76679 29.9984V56.0984C7.76679 57.7 9.06517 58.9984 10.6668 58.9984H49.3335C50.9351 58.9984 52.2335 57.7 52.2335 56.0984V29.9984C53.3012 29.9984 54.1668 29.1328 54.1668 28.0651V21.2984C54.1631 20.2095 53.5482 19.215 52.5757 18.7252C56.597 16.147 58.7942 11.334 58.917 11.0576C59.0499 10.7585 59.0224 10.4126 58.8441 10.1382C58.6657 9.86388 58.3607 9.69838 58.0335 9.69842H54.1668V5.83175C54.167 5.4564 53.9498 5.11488 53.6099 4.95578C53.2699 4.79668 52.8686 4.84875 52.5805 5.08935L49.3528 7.78442C47.881 5.10025 45.6566 2.90483 42.9535 1.46822C42.3384 1.12871 41.6405 0.968309 40.9389 1.00518C34.4642 1.41022 31.3631 6.64278 30.0001 10.1818C28.6313 6.64665 25.5303 1.42762 19.0613 1.02355C18.3601 0.984053 17.6619 1.14285 17.0468 1.48175C14.3484 2.91586 12.1268 5.10584 10.6542 7.78345L7.41879 5.08838C7.13054 4.84829 6.72939 4.79665 6.38973 4.95592C6.05007 5.11519 5.83322 5.4566 5.83346 5.83175V9.69842H1.96679C1.63957 9.69838 1.33454 9.86388 1.1562 10.1382C0.977856 10.4126 0.950408 10.7585 1.08326 11.0576C1.20603 11.334 3.40326 16.147 7.42459 18.7252ZM23.2335 20.3318V28.0651H7.76679V21.2984C7.76679 20.7645 8.19958 20.3318 8.73346 20.3318H23.2335ZM25.0991 14.6439C22.8524 12.7087 21.2871 10.1027 20.6341 7.21022C23.6878 8.54808 25.2838 12.1915 25.8618 13.8135C25.5762 14.0597 25.3202 14.3384 25.0991 14.6439ZM26.1335 17.4318C26.1335 15.8301 27.4318 14.5318 29.0335 14.5318H30.9668C32.5684 14.5318 33.8668 15.8301 33.8668 17.4318V18.3984H26.1335V17.4318ZM34.8335 28.0651H25.1668V20.3318H34.8335V28.0651ZM34.1384 13.8135C34.7184 12.1915 36.3134 8.54808 39.3662 7.21022C38.7137 10.1029 37.1483 12.709 34.9011 14.6439C34.68 14.3384 34.424 14.0597 34.1384 13.8135ZM9.70013 56.0984V29.9984H25.1668V57.0651H10.6668C10.1329 57.0651 9.70013 56.6323 9.70013 56.0984ZM27.1001 57.0651V29.9984H32.9001V57.0651H27.1001ZM50.3001 56.0984C50.3001 56.6323 49.8673 57.0651 49.3335 57.0651H34.8335V29.9984H50.3001V56.0984ZM51.2668 20.3318C51.8007 20.3318 52.2335 20.7645 52.2335 21.2984V28.0651H36.7668V20.3318H51.2668ZM53.2001 11.6318H56.4327C55.089 13.945 51.9145 18.3984 47.4001 18.3984H45.2348C46.9031 17.036 48.3486 15.4216 49.5191 13.6134C50.2791 12.4468 50.4953 11.0078 50.1116 9.66942L52.2335 7.89848V10.6651C52.2335 11.199 52.6663 11.6318 53.2001 11.6318ZM41.0598 2.93175C41.4001 2.91682 41.7377 2.99788 42.0342 3.16568C43.459 3.93902 46.9139 6.14785 48.2131 10.0435C48.5007 10.8848 48.3856 11.8115 47.9009 12.5569C46.8201 14.2089 44.5697 17.1331 41.5325 18.3984H35.8001V17.4318C35.8 17.11 35.7676 16.7891 35.7035 16.4738C39.6668 13.6705 41.0414 8.79072 41.4551 6.74525C41.5562 6.25263 41.391 5.74313 41.0201 5.40352C40.646 5.05359 40.1155 4.92619 39.6233 5.06808C35.4193 6.25225 33.2926 10.5336 32.4284 12.8498C32.0306 12.7206 31.6175 12.6442 31.1998 12.6226C31.9141 9.94975 34.3443 3.35515 41.0598 2.93175ZM11.7872 10.0571C13.0835 6.16622 16.5403 3.95642 17.9651 3.18695C18.2625 3.02065 18.6 2.9397 18.9405 2.95302C25.6501 3.37255 28.0813 9.94782 28.8005 12.6197C28.3834 12.6414 27.971 12.7178 27.5738 12.8469C26.7096 10.5269 24.5829 6.24935 20.3789 5.06518C19.8867 4.92488 19.3569 5.05209 18.9821 5.40062C18.6122 5.74084 18.4482 6.25025 18.55 6.74235C18.9589 8.79072 20.3335 13.6734 24.2968 16.4738C24.2326 16.7891 24.2002 17.11 24.2001 17.4318V18.3984H18.4678C15.4305 17.135 13.1782 14.2137 12.0994 12.5627C11.6156 11.8199 11.5005 10.8958 11.7872 10.0571ZM6.80013 11.6318C7.334 11.6318 7.76679 11.199 7.76679 10.6651V7.89462L9.89346 9.66555C9.50515 11.0066 9.72007 12.4503 10.4822 13.6202C11.6516 15.426 13.0958 17.0381 14.7626 18.3984H12.6001C8.09836 18.3984 4.91899 13.946 3.57049 11.6318H6.80013Z" stroke="#7AC751" stroke-width="0.5" mask="url(#path-3-outside-1_2_221)"/>
<path d="M12.6001 31.8059C11.9971 31.8059 11.5084 32.2947 11.5084 32.8976V34.8309C11.5084 35.4338 11.9971 35.9226 12.6001 35.9226C13.203 35.9226 13.6917 35.4338 13.6917 34.8309V32.8976C13.6917 32.2947 13.203 31.8059 12.6001 31.8059Z" fill="#7AC751" stroke="#7AC751" stroke-width="0.25"/>
<path d="M12.6001 37.606C11.9971 37.606 11.5084 38.0947 11.5084 38.6976V54.1643C11.5084 54.7672 11.9971 55.256 12.6001 55.256C13.203 55.256 13.6917 54.7672 13.6917 54.1643V38.6976C13.6917 38.0947 13.203 37.606 12.6001 37.606Z" fill="#7AC751" stroke="#7AC751" stroke-width="0.25"/>
<path d="M47.4003 35.9226C48.0032 35.9226 48.492 35.4338 48.492 34.8309V32.8976C48.492 32.2947 48.0032 31.8059 47.4003 31.8059C46.7974 31.8059 46.3087 32.2947 46.3087 32.8976V34.8309C46.3087 35.4338 46.7974 35.9226 47.4003 35.9226Z" fill="#7AC751" stroke="#7AC751" stroke-width="0.25"/>
<path d="M47.4003 55.256C48.0032 55.256 48.492 54.7672 48.492 54.1643V38.6976C48.492 38.0947 48.0032 37.606 47.4003 37.606C46.7974 37.606 46.3087 38.0947 46.3087 38.6976V54.1643C46.3087 54.7672 46.7974 55.256 47.4003 55.256Z" fill="#7AC751" stroke="#7AC751" stroke-width="0.25"/>
</svg>
