<svg width="20" height="16" viewBox="0 0 20 16" fill="none" xmlns="http://www.w3.org/2000/svg">
<path d="M18.8992 5.69511C17.6439 3.64829 14.7885 0.214233 9.77697 0.214233C4.76546 0.214233 1.91006 3.64829 0.654754 5.69511C0.266692 6.32351 0.0611382 7.0477 0.0611382 7.7865C0.0611382 8.5253 0.266692 9.2495 0.654754 9.87789C1.91006 11.9247 4.76546 15.3588 9.77697 15.3588C14.7885 15.3588 17.6439 11.9247 18.8992 9.87789C19.2872 9.2495 19.4928 8.5253 19.4928 7.7865C19.4928 7.0477 19.2872 6.32351 18.8992 5.69511ZM17.5192 9.02951C16.4412 10.7846 14.001 13.7382 9.77697 13.7382C5.55296 13.7382 3.11276 10.7846 2.0347 9.02951C1.80414 8.65599 1.68203 8.22558 1.68203 7.7865C1.68203 7.34742 1.80414 6.91701 2.0347 6.5435C3.11276 4.78839 5.55296 1.83484 9.77697 1.83484C14.001 1.83484 16.4412 4.78514 17.5192 6.5435C17.7498 6.91701 17.8719 7.34742 17.8719 7.7865C17.8719 8.22558 17.7498 8.65599 17.5192 9.02951Z" fill="#757575"/>
<path d="M9.77692 3.73499C8.97655 3.73499 8.19415 3.9726 7.52866 4.41779C6.86317 4.86297 6.34449 5.49573 6.0382 6.23605C5.73191 6.97636 5.65177 7.79099 5.80792 8.5769C5.96406 9.36282 6.34948 10.0847 6.91543 10.6513C7.48138 11.218 8.20244 11.6038 8.98744 11.7602C9.77243 11.9165 10.5861 11.8362 11.3255 11.5296C12.065 11.2229 12.697 10.7037 13.1417 10.0374C13.5863 9.37112 13.8237 8.58781 13.8237 7.78649C13.8224 6.71236 13.3956 5.68259 12.637 4.92307C11.8784 4.16354 10.8498 3.73627 9.77692 3.73499ZM9.77692 10.2174C9.2967 10.2174 8.82726 10.0748 8.42796 9.80772C8.02867 9.54061 7.71746 9.16095 7.53369 8.71676C7.34991 8.27257 7.30183 7.7838 7.39552 7.31225C7.4892 6.8407 7.72045 6.40755 8.06002 6.06758C8.39959 5.72762 8.83223 5.49609 9.30323 5.4023C9.77423 5.3085 10.2624 5.35664 10.7061 5.54063C11.1498 5.72462 11.529 6.03619 11.7958 6.43595C12.0626 6.83571 12.205 7.30571 12.205 7.78649C12.205 8.43121 11.9492 9.04952 11.4938 9.5054C11.0385 9.96129 10.4209 10.2174 9.77692 10.2174Z" fill="#757575"/>
</svg>
