<svg width="14" height="14" viewBox="0 0 14 14" fill="none" xmlns="http://www.w3.org/2000/svg">
<path fill-rule="evenodd" clip-rule="evenodd" d="M6.18207 0.465088C6.70077 0.465088 7.19777 0.673363 7.56461 1.04467L13.1414 6.6894C13.3231 6.87317 13.4672 7.09138 13.5655 7.33154C13.6639 7.57171 13.7145 7.82913 13.7145 8.0891C13.7145 8.34907 13.6639 8.60649 13.5655 8.84666C13.4672 9.08682 13.3231 9.30503 13.1414 9.48881L9.48097 13.1938C9.2994 13.3777 9.08382 13.5236 8.84655 13.6231C8.60927 13.7226 8.35494 13.7738 8.0981 13.7738C7.84126 13.7738 7.58693 13.7226 7.34966 13.6231C7.11238 13.5236 6.8968 13.3777 6.71523 13.1938L1.1384 7.54912C0.956853 7.36534 0.812843 7.14718 0.714595 6.90707C0.616347 6.66697 0.565785 6.40963 0.565796 6.14974V2.44404C0.565796 1.91919 0.771784 1.41583 1.13844 1.04471C1.50511 0.673584 2.0024 0.465088 2.52094 0.465088H6.18207ZM6.18207 1.79592H2.52094C2.35112 1.79592 2.18825 1.8642 2.06817 1.98575C1.94808 2.1073 1.88062 2.27215 1.88062 2.44404V6.14974C1.88062 6.32142 1.94833 6.48644 2.06798 6.60822L7.64481 12.2529C7.89463 12.5058 8.30091 12.5058 8.55073 12.2529L12.2119 8.54724C12.2714 8.48705 12.3186 8.41558 12.3508 8.33691C12.383 8.25825 12.3996 8.17392 12.3996 8.08877C12.3996 8.00361 12.383 7.91929 12.3508 7.84062C12.3186 7.76196 12.2714 7.69049 12.2119 7.6303L6.63503 1.98557C6.57546 1.92531 6.50472 1.87755 6.42689 1.84501C6.34905 1.81247 6.26563 1.79579 6.18141 1.79592H6.18207ZM4.51027 3.12676C4.85898 3.12676 5.19342 3.26697 5.43999 3.51655C5.68657 3.76613 5.8251 4.10463 5.8251 4.45759C5.8251 4.81055 5.68657 5.14905 5.43999 5.39863C5.19342 5.64821 4.85898 5.78842 4.51027 5.78842C4.16156 5.78842 3.82713 5.64821 3.58055 5.39863C3.33397 5.14905 3.19545 4.81055 3.19545 4.45759C3.19545 4.10463 3.33397 3.76613 3.58055 3.51655C3.82713 3.26697 4.16156 3.12676 4.51027 3.12676Z" fill="#7AC751"/>
</svg>
