<svg width="218" height="58" viewBox="0 0 218 58" fill="none" xmlns="http://www.w3.org/2000/svg">
<g clip-path="url(#clip0_2_211)">
<path d="M55.3638 29.2433V21.0915C55.3638 18.3273 53.2197 16.0793 50.5107 15.8613L42.9404 2.6385C42.2388 1.41557 41.106 0.541509 39.7505 0.178561C38.4014 -0.181914 36.9906 0.00740666 35.7831 0.710192L9.83148 15.8188H5.27357C2.36567 15.8188 0.000888824 18.1834 0.000888824 21.0915V52.7273C0.000888824 55.6352 2.36555 58 5.27357 58H50.0911C52.999 58 55.3638 55.6353 55.3638 52.7273V44.5755C56.8948 44.0296 58 42.5801 58 40.8639V32.9549C58 31.2387 56.8948 29.7892 55.3638 29.2433ZM47.4474 15.8188H35.9582L44.5752 10.802L47.4474 15.8188ZM43.2654 8.51424L30.7187 15.8188H25.5145L41.9641 6.24152L43.2654 8.51424ZM37.1102 2.98859C37.7063 2.63973 38.4026 2.54705 39.0682 2.72475C39.7415 2.90493 40.3027 3.34005 40.6516 3.94891L40.6543 3.95373L20.2751 15.8188H15.0712L37.1102 2.98859ZM52.7274 52.7273C52.7274 54.1806 51.5443 55.3636 50.0911 55.3636H5.27357C3.8203 55.3636 2.63729 54.1806 2.63729 52.7273V21.0915C2.63729 19.6382 3.8203 18.4552 5.27357 18.4552H50.0911C51.5443 18.4552 52.7274 19.6382 52.7274 21.0915V29.0004H44.8184C40.4571 29.0004 36.9094 32.5481 36.9094 36.9094C36.9094 41.2707 40.4571 44.8183 44.8184 44.8183H52.7274V52.7273ZM55.3638 40.8639C55.3638 41.5911 54.7729 42.1821 54.0456 42.1821H44.8184C41.9105 42.1821 39.5457 39.8174 39.5457 36.9094C39.5457 34.0015 41.9104 31.6367 44.8184 31.6367H54.0456C54.7728 31.6367 55.3638 32.2275 55.3638 32.9549V40.8639Z" fill="#7AC751"/>
<path d="M44.818 34.2732C43.3647 34.2732 42.1817 35.4562 42.1817 36.9095C42.1817 38.3627 43.3647 39.5457 44.818 39.5457C46.2712 39.5457 47.4542 38.3627 47.4542 36.9095C47.4544 35.4562 46.2713 34.2732 44.818 34.2732Z" fill="#7AC751"/>
</g>
<path d="M83.54 25.3C83.38 25.3 83.24 25.2533 83.12 25.16C83.0133 25.08 82.9133 24.9733 82.82 24.84L82.08 23.84C81.4667 24.08 80.7533 24.2 79.94 24.2C78.1267 24.2 76.7133 23.74 75.7 22.82C74.6867 21.9 74.1467 20.5333 74.08 18.72C74.0667 18.3333 74.06 17.7667 74.06 17.02C74.06 16.26 74.0667 15.6867 74.08 15.3C74.1333 13.5267 74.68 12.1667 75.72 11.22C76.7733 10.2733 78.18 9.8 79.94 9.8C81.7 9.8 83.1 10.2733 84.14 11.22C85.18 12.1667 85.7267 13.5267 85.78 15.3C85.8067 16.0733 85.82 16.6467 85.82 17.02C85.82 17.38 85.8067 17.9467 85.78 18.72C85.7267 20.4533 85.2467 21.78 84.34 22.7L85.74 24.68C85.78 24.76 85.8 24.8267 85.8 24.88V24.92C85.8 25.0267 85.76 25.1133 85.68 25.18C85.6 25.26 85.5067 25.3 85.4 25.3H83.54ZM79.94 21.9C80.8333 21.9 81.54 21.6333 82.06 21.1C82.5933 20.5533 82.88 19.7267 82.92 18.62C82.9467 17.82 82.96 17.28 82.96 17C82.96 16.6933 82.9467 16.1533 82.92 15.38C82.88 14.2733 82.5933 13.4533 82.06 12.92C81.5267 12.3733 80.82 12.1 79.94 12.1C79.0467 12.1 78.3333 12.3733 77.8 12.92C77.2667 13.4533 76.98 14.2733 76.94 15.38C76.9267 15.7667 76.92 16.3067 76.92 17C76.92 17.68 76.9267 18.22 76.94 18.62C76.98 19.7267 77.2667 20.5533 77.8 21.1C78.3333 21.6333 79.0467 21.9 79.94 21.9ZM92.0863 24.2C90.8596 24.2 89.8929 23.8 89.1863 23C88.4796 22.1867 88.1263 21.0867 88.1263 19.7V14.08C88.1263 13.9467 88.1729 13.8333 88.2663 13.74C88.3596 13.6467 88.4729 13.6 88.6063 13.6H90.3663C90.5129 13.6 90.6263 13.6467 90.7063 13.74C90.7996 13.82 90.8463 13.9333 90.8463 14.08V19.58C90.8463 21.2333 91.5729 22.06 93.0263 22.06C93.7196 22.06 94.2663 21.84 94.6663 21.4C95.0796 20.96 95.2863 20.3533 95.2863 19.58V14.08C95.2863 13.9467 95.3329 13.8333 95.4263 13.74C95.5196 13.6467 95.6329 13.6 95.7663 13.6H97.5263C97.6729 13.6 97.7863 13.6467 97.8663 13.74C97.9596 13.82 98.0063 13.9333 98.0063 14.08V23.52C98.0063 23.6533 97.9596 23.7667 97.8663 23.86C97.7863 23.9533 97.6729 24 97.5263 24H95.9063C95.7729 24 95.6596 23.9533 95.5663 23.86C95.4729 23.7667 95.4263 23.6533 95.4263 23.52V22.7C94.6796 23.7 93.5663 24.2 92.0863 24.2ZM101.048 11.88C100.915 11.88 100.801 11.8333 100.708 11.74C100.615 11.6467 100.568 11.5333 100.568 11.4V9.96C100.568 9.82667 100.615 9.71333 100.708 9.62C100.801 9.52667 100.915 9.48 101.048 9.48H102.868C103.001 9.48 103.115 9.52667 103.208 9.62C103.315 9.71333 103.368 9.82667 103.368 9.96V11.4C103.368 11.5333 103.321 11.6467 103.228 11.74C103.135 11.8333 103.015 11.88 102.868 11.88H101.048ZM101.128 24C100.995 24 100.881 23.9533 100.788 23.86C100.695 23.7667 100.648 23.6533 100.648 23.52V14.08C100.648 13.9467 100.695 13.8333 100.788 13.74C100.881 13.6467 100.995 13.6 101.128 13.6H102.788C102.935 13.6 103.048 13.6467 103.128 13.74C103.221 13.82 103.268 13.9333 103.268 14.08V23.52C103.268 23.6533 103.221 23.7667 103.128 23.86C103.048 23.9533 102.935 24 102.788 24H101.128ZM110.422 24.2C108.955 24.2 107.782 23.7933 106.902 22.98C106.035 22.1667 105.575 21.04 105.522 19.6L105.502 18.8L105.522 18C105.575 16.56 106.035 15.4333 106.902 14.62C107.782 13.8067 108.955 13.4 110.422 13.4C111.462 13.4 112.342 13.5867 113.062 13.96C113.795 14.3333 114.335 14.7933 114.682 15.34C115.042 15.8733 115.235 16.38 115.262 16.86C115.275 16.9933 115.228 17.1067 115.122 17.2C115.028 17.2933 114.915 17.34 114.782 17.34H113.022C112.888 17.34 112.782 17.3133 112.702 17.26C112.635 17.1933 112.568 17.0867 112.502 16.94C112.302 16.42 112.035 16.0467 111.702 15.82C111.382 15.5933 110.968 15.48 110.462 15.48C109.782 15.48 109.248 15.7 108.862 16.14C108.475 16.5667 108.268 17.22 108.242 18.1L108.222 18.84L108.242 19.5C108.295 21.2467 109.035 22.12 110.462 22.12C110.982 22.12 111.402 22.0067 111.722 21.78C112.042 21.5533 112.302 21.18 112.502 20.66C112.568 20.5133 112.635 20.4133 112.702 20.36C112.782 20.2933 112.888 20.26 113.022 20.26H114.782C114.915 20.26 115.028 20.3067 115.122 20.4C115.228 20.4933 115.275 20.6067 115.262 20.74C115.235 21.2067 115.048 21.7067 114.702 22.24C114.355 22.7733 113.822 23.2333 113.102 23.62C112.382 24.0067 111.488 24.2 110.422 24.2ZM117.847 24C117.714 24 117.601 23.9533 117.507 23.86C117.414 23.7667 117.367 23.6533 117.367 23.52V10.28C117.367 10.1333 117.414 10.02 117.507 9.94C117.601 9.84667 117.714 9.8 117.847 9.8H119.467C119.614 9.8 119.727 9.84667 119.807 9.94C119.901 10.02 119.947 10.1333 119.947 10.28V17.12L123.307 13.94C123.347 13.9133 123.414 13.86 123.507 13.78C123.587 13.7133 123.667 13.6667 123.747 13.64C123.827 13.6133 123.927 13.6 124.047 13.6H125.907C126.041 13.6 126.147 13.64 126.227 13.72C126.307 13.8 126.347 13.9067 126.347 14.04C126.347 14.16 126.281 14.28 126.147 14.4L122.027 18.26L126.647 23.22C126.781 23.3533 126.847 23.4667 126.847 23.56C126.847 23.6933 126.801 23.8 126.707 23.88C126.627 23.96 126.527 24 126.407 24H124.507C124.321 24 124.181 23.98 124.087 23.94C124.007 23.8867 123.901 23.7933 123.767 23.66L119.947 19.64V23.52C119.947 23.6533 119.901 23.7667 119.807 23.86C119.727 23.9533 119.614 24 119.467 24H117.847ZM133.497 24C133.364 24 133.25 23.9533 133.157 23.86C133.064 23.7667 133.017 23.6533 133.017 23.52V10.5C133.017 10.3533 133.057 10.2333 133.137 10.14C133.23 10.0467 133.35 10 133.497 10H138.857C140.457 10 141.717 10.38 142.637 11.14C143.557 11.8867 144.017 12.9867 144.017 14.44C144.017 15.8933 143.557 16.9933 142.637 17.74C141.73 18.4733 140.47 18.84 138.857 18.84H135.877V23.52C135.877 23.6533 135.83 23.7667 135.737 23.86C135.657 23.9533 135.544 24 135.397 24H133.497ZM138.757 16.62C139.53 16.62 140.124 16.44 140.537 16.08C140.95 15.7067 141.157 15.16 141.157 14.44C141.157 13.7467 140.957 13.2067 140.557 12.82C140.157 12.42 139.557 12.22 138.757 12.22H135.837V16.62H138.757ZM148.766 24.2C148.086 24.2 147.459 24.0667 146.886 23.8C146.326 23.52 145.879 23.1467 145.546 22.68C145.226 22.2133 145.066 21.7 145.066 21.14C145.066 20.2333 145.432 19.5 146.166 18.94C146.899 18.38 147.906 18 149.186 17.8L151.926 17.4V16.98C151.926 16.3933 151.779 15.9533 151.486 15.66C151.192 15.3667 150.719 15.22 150.066 15.22C149.626 15.22 149.266 15.3067 148.986 15.48C148.719 15.64 148.506 15.8 148.346 15.96C148.186 16.1333 148.079 16.2467 148.026 16.3C147.972 16.46 147.872 16.54 147.726 16.54H146.186C146.066 16.54 145.959 16.5 145.866 16.42C145.786 16.34 145.746 16.2333 145.746 16.1C145.759 15.7667 145.919 15.3867 146.226 14.96C146.546 14.5333 147.032 14.1667 147.686 13.86C148.339 13.5533 149.139 13.4 150.086 13.4C151.659 13.4 152.806 13.7533 153.526 14.46C154.246 15.1667 154.606 16.0933 154.606 17.24V23.52C154.606 23.6533 154.559 23.7667 154.466 23.86C154.386 23.9533 154.272 24 154.126 24H152.506C152.372 24 152.259 23.9533 152.166 23.86C152.072 23.7667 152.026 23.6533 152.026 23.52V22.74C151.732 23.1667 151.312 23.52 150.766 23.8C150.232 24.0667 149.566 24.2 148.766 24.2ZM149.446 22.3C150.179 22.3 150.779 22.06 151.246 21.58C151.712 21.1 151.946 20.4 151.946 19.48V19.06L149.946 19.38C149.172 19.5 148.586 19.6933 148.186 19.96C147.799 20.2267 147.606 20.5533 147.606 20.94C147.606 21.3667 147.786 21.7 148.146 21.94C148.506 22.18 148.939 22.3 149.446 22.3ZM158.778 27.8C158.671 27.8 158.578 27.76 158.498 27.68C158.418 27.6 158.378 27.5067 158.378 27.4C158.378 27.28 158.405 27.1733 158.458 27.08L160.018 23.38L156.178 14.32C156.125 14.2 156.098 14.1067 156.098 14.04C156.111 13.92 156.158 13.82 156.238 13.74C156.318 13.6467 156.418 13.6 156.538 13.6H158.158C158.411 13.6 158.591 13.7267 158.698 13.98L161.358 20.52L164.098 13.98C164.205 13.7267 164.385 13.6 164.638 13.6H166.238C166.345 13.6 166.438 13.64 166.518 13.72C166.611 13.8 166.658 13.8933 166.658 14C166.658 14.0933 166.631 14.2 166.578 14.32L160.918 27.42C160.798 27.6733 160.611 27.8 160.358 27.8H158.778ZM168.863 24C168.729 24 168.616 23.9533 168.523 23.86C168.429 23.7667 168.382 23.6533 168.382 23.52V14.08C168.382 13.9467 168.429 13.8333 168.523 13.74C168.616 13.6467 168.729 13.6 168.863 13.6H170.423C170.556 13.6 170.669 13.6467 170.763 13.74C170.856 13.8333 170.903 13.9467 170.903 14.08V14.76C171.596 13.8533 172.563 13.4 173.803 13.4C175.283 13.4 176.316 13.9933 176.903 15.18C177.223 14.6467 177.676 14.22 178.263 13.9C178.849 13.5667 179.483 13.4 180.163 13.4C181.256 13.4 182.149 13.7733 182.843 14.52C183.536 15.2667 183.883 16.3533 183.883 17.78V23.52C183.883 23.6533 183.836 23.7667 183.743 23.86C183.663 23.9533 183.549 24 183.403 24H181.763C181.629 24 181.516 23.9533 181.423 23.86C181.329 23.7667 181.283 23.6533 181.283 23.52V17.94C181.283 17.1 181.103 16.4933 180.743 16.12C180.396 15.7333 179.929 15.54 179.343 15.54C178.823 15.54 178.376 15.7333 178.003 16.12C177.643 16.5067 177.463 17.1133 177.463 17.94V23.52C177.463 23.6533 177.416 23.7667 177.323 23.86C177.229 23.9533 177.116 24 176.983 24H175.343C175.209 24 175.096 23.9533 175.003 23.86C174.909 23.7667 174.863 23.6533 174.863 23.52V17.94C174.863 17.1 174.676 16.4933 174.303 16.12C173.943 15.7333 173.483 15.54 172.923 15.54C172.389 15.54 171.936 15.7333 171.563 16.12C171.203 16.5067 171.023 17.1133 171.023 17.94V23.52C171.023 23.6533 170.976 23.7667 170.883 23.86C170.789 23.9533 170.676 24 170.543 24H168.863ZM190.909 24.2C189.429 24.2 188.249 23.7733 187.369 22.92C186.503 22.0533 186.043 20.84 185.989 19.28L185.969 18.78L185.989 18.28C186.056 16.76 186.523 15.5667 187.389 14.7C188.269 13.8333 189.443 13.4 190.909 13.4C192.483 13.4 193.696 13.88 194.549 14.84C195.416 15.8 195.849 17.08 195.849 18.68V19.1C195.849 19.2333 195.803 19.3467 195.709 19.44C195.616 19.5333 195.496 19.58 195.349 19.58H188.709V19.74C188.736 20.4733 188.936 21.0933 189.309 21.6C189.696 22.0933 190.223 22.34 190.889 22.34C191.676 22.34 192.309 22.0333 192.789 21.42C192.909 21.2733 193.003 21.18 193.069 21.14C193.149 21.1 193.263 21.08 193.409 21.08H195.129C195.249 21.08 195.349 21.12 195.429 21.2C195.523 21.2667 195.569 21.3533 195.569 21.46C195.569 21.78 195.376 22.16 194.989 22.6C194.616 23.0267 194.076 23.4 193.369 23.72C192.663 24.04 191.843 24.2 190.909 24.2ZM193.129 17.9V17.84C193.129 17.0533 192.929 16.42 192.529 15.94C192.143 15.46 191.603 15.22 190.909 15.22C190.216 15.22 189.676 15.46 189.289 15.94C188.903 16.42 188.709 17.0533 188.709 17.84V17.9H193.129ZM198.452 24C198.319 24 198.206 23.9533 198.112 23.86C198.019 23.7667 197.972 23.6533 197.972 23.52V14.08C197.972 13.9467 198.019 13.8333 198.112 13.74C198.206 13.6467 198.319 13.6 198.452 13.6H200.092C200.226 13.6 200.339 13.6467 200.432 13.74C200.526 13.8333 200.572 13.9467 200.572 14.08V14.9C201.359 13.9 202.472 13.4 203.912 13.4C205.139 13.4 206.112 13.8067 206.832 14.62C207.552 15.42 207.912 16.5133 207.912 17.9V23.52C207.912 23.6533 207.866 23.7667 207.772 23.86C207.692 23.9533 207.579 24 207.432 24H205.672C205.539 24 205.426 23.9533 205.332 23.86C205.239 23.7667 205.192 23.6533 205.192 23.52V18.02C205.192 17.2333 204.999 16.6267 204.612 16.2C204.239 15.76 203.692 15.54 202.972 15.54C202.266 15.54 201.706 15.76 201.292 16.2C200.892 16.64 200.692 17.2467 200.692 18.02V23.52C200.692 23.6533 200.646 23.7667 200.552 23.86C200.472 23.9533 200.359 24 200.212 24H198.452ZM215.036 24C213.822 24 212.909 23.6867 212.296 23.06C211.696 22.42 211.396 21.4867 211.396 20.26V15.72H209.816C209.682 15.72 209.569 15.6733 209.476 15.58C209.382 15.4733 209.336 15.3533 209.336 15.22V14.08C209.336 13.9467 209.382 13.8333 209.476 13.74C209.569 13.6467 209.682 13.6 209.816 13.6H211.396V10.28C211.396 10.1333 211.442 10.02 211.536 9.94C211.629 9.84667 211.742 9.8 211.876 9.8H213.496C213.642 9.8 213.756 9.84667 213.836 9.94C213.929 10.02 213.976 10.1333 213.976 10.28V13.6H216.476C216.622 13.6 216.736 13.6467 216.816 13.74C216.909 13.82 216.956 13.9333 216.956 14.08V15.22C216.956 15.3667 216.909 15.4867 216.816 15.58C216.722 15.6733 216.609 15.72 216.476 15.72H213.976V20.06C213.976 20.6333 214.076 21.0667 214.276 21.36C214.476 21.6533 214.809 21.8 215.276 21.8H216.656C216.789 21.8 216.902 21.8467 216.996 21.94C217.089 22.0333 217.136 22.1467 217.136 22.28V23.52C217.136 23.6533 217.089 23.7667 216.996 23.86C216.916 23.9533 216.802 24 216.656 24H215.036Z" fill="#555555"/>
<path d="M76.864 47C76.7707 47 76.6913 46.972 76.626 46.916C76.57 46.8507 76.542 46.7713 76.542 46.678V38.838L74.218 40.63C74.1527 40.686 74.0827 40.714 74.008 40.714C73.924 40.714 73.8447 40.6673 73.77 40.574L73.406 40.112C73.3593 40.0467 73.336 39.9813 73.336 39.916C73.336 39.804 73.3827 39.7153 73.476 39.65L76.528 37.298C76.6307 37.2327 76.752 37.2 76.892 37.2H77.606C77.6993 37.2 77.774 37.2327 77.83 37.298C77.8953 37.354 77.928 37.4287 77.928 37.522V46.678C77.928 46.7713 77.8953 46.8507 77.83 46.916C77.774 46.972 77.6993 47 77.606 47H76.864ZM83.4263 47.14C82.2223 47.14 81.3403 46.79 80.7803 46.09C80.2203 45.39 79.9216 44.4707 79.8843 43.332C79.8749 43.08 79.8703 42.674 79.8703 42.114C79.8703 41.5353 79.8749 41.1153 79.8843 40.854C79.9123 39.734 80.2109 38.824 80.7803 38.124C81.3496 37.4147 82.2316 37.06 83.4263 37.06C84.6303 37.06 85.5169 37.4147 86.0863 38.124C86.6556 38.824 86.9543 39.734 86.9823 40.854C87.0009 41.3767 87.0103 41.7967 87.0103 42.114C87.0103 42.422 87.0009 42.828 86.9823 43.332C86.9449 44.4707 86.6463 45.39 86.0863 46.09C85.5263 46.79 84.6396 47.14 83.4263 47.14ZM83.4263 45.936C84.1263 45.936 84.6536 45.7027 85.0083 45.236C85.3723 44.7693 85.5636 44.1113 85.5823 43.262C85.6009 42.7207 85.6103 42.3287 85.6103 42.086C85.6103 41.8247 85.6009 41.442 85.5823 40.938C85.5636 40.098 85.3769 39.44 85.0223 38.964C84.6676 38.488 84.1356 38.25 83.4263 38.25C82.7263 38.25 82.1943 38.488 81.8303 38.964C81.4756 39.44 81.2889 40.098 81.2703 40.938L81.2563 42.086L81.2703 43.262C81.2889 44.1113 81.4756 44.7693 81.8303 45.236C82.1943 45.7027 82.7263 45.936 83.4263 45.936ZM92.313 47.14C91.109 47.14 90.227 46.79 89.667 46.09C89.107 45.39 88.8083 44.4707 88.771 43.332C88.7617 43.08 88.757 42.674 88.757 42.114C88.757 41.5353 88.7617 41.1153 88.771 40.854C88.799 39.734 89.0977 38.824 89.667 38.124C90.2363 37.4147 91.1183 37.06 92.313 37.06C93.517 37.06 94.4037 37.4147 94.973 38.124C95.5423 38.824 95.841 39.734 95.869 40.854C95.8877 41.3767 95.897 41.7967 95.897 42.114C95.897 42.422 95.8877 42.828 95.869 43.332C95.8317 44.4707 95.533 45.39 94.973 46.09C94.413 46.79 93.5263 47.14 92.313 47.14ZM92.313 45.936C93.013 45.936 93.5403 45.7027 93.895 45.236C94.259 44.7693 94.4503 44.1113 94.469 43.262C94.4877 42.7207 94.497 42.3287 94.497 42.086C94.497 41.8247 94.4877 41.442 94.469 40.938C94.4503 40.098 94.2637 39.44 93.909 38.964C93.5543 38.488 93.0223 38.25 92.313 38.25C91.613 38.25 91.081 38.488 90.717 38.964C90.3623 39.44 90.1757 40.098 90.157 40.938L90.143 42.086L90.157 43.262C90.1757 44.1113 90.3623 44.7693 90.717 45.236C91.081 45.7027 91.613 45.936 92.313 45.936ZM99.4637 42.114C98.8571 42.114 98.3764 41.9553 98.0217 41.638C97.6764 41.3113 97.4851 40.8633 97.4477 40.294C97.4384 40.1353 97.4337 39.93 97.4337 39.678C97.4337 39.4073 97.4384 39.188 97.4477 39.02C97.4757 38.4413 97.6577 37.984 97.9937 37.648C98.3391 37.3027 98.8291 37.13 99.4637 37.13C100.098 37.13 100.584 37.3027 100.92 37.648C101.265 37.984 101.452 38.4413 101.48 39.02C101.498 39.3933 101.508 39.6313 101.508 39.734C101.508 39.8273 101.498 40.014 101.48 40.294C101.452 40.8633 101.26 41.3113 100.906 41.638C100.551 41.9553 100.07 42.114 99.4637 42.114ZM98.2877 47C98.2037 47 98.1337 46.9767 98.0777 46.93C98.0217 46.874 97.9937 46.804 97.9937 46.72C97.9937 46.664 98.0124 46.6127 98.0497 46.566L104.966 37.466C105.04 37.3633 105.106 37.2933 105.162 37.256C105.227 37.2187 105.316 37.2 105.428 37.2H105.89C105.983 37.2 106.053 37.228 106.1 37.284C106.156 37.3307 106.184 37.396 106.184 37.48C106.184 37.536 106.165 37.5873 106.128 37.634L99.2257 46.734C99.1511 46.8367 99.0811 46.9067 99.0157 46.944C98.9597 46.9813 98.8711 47 98.7497 47H98.2877ZM99.4637 41.246C99.7997 41.246 100.042 41.148 100.192 40.952C100.35 40.756 100.444 40.518 100.472 40.238C100.49 39.902 100.5 39.706 100.5 39.65C100.5 39.566 100.49 39.3747 100.472 39.076C100.453 38.7867 100.36 38.544 100.192 38.348C100.033 38.152 99.7904 38.054 99.4637 38.054C99.1371 38.054 98.8944 38.152 98.7357 38.348C98.5771 38.544 98.4884 38.7867 98.4697 39.076C98.4604 39.2253 98.4557 39.4167 98.4557 39.65C98.4557 39.874 98.4604 40.07 98.4697 40.238C98.4977 40.5273 98.5864 40.77 98.7357 40.966C98.8944 41.1527 99.1371 41.246 99.4637 41.246ZM104.7 47.084C104.093 47.084 103.612 46.916 103.258 46.58C102.912 46.2347 102.721 45.7773 102.684 45.208C102.674 45.0493 102.67 44.844 102.67 44.592C102.67 44.3213 102.674 44.102 102.684 43.934C102.721 43.3553 102.908 42.898 103.244 42.562C103.589 42.2167 104.074 42.044 104.7 42.044C105.334 42.044 105.82 42.2167 106.156 42.562C106.501 42.898 106.692 43.3553 106.73 43.934C106.748 44.27 106.758 44.4893 106.758 44.592C106.758 44.6853 106.748 44.8907 106.73 45.208C106.692 45.7773 106.496 46.2347 106.142 46.58C105.787 46.916 105.306 47.084 104.7 47.084ZM104.7 46.16C105.036 46.16 105.278 46.062 105.428 45.866C105.586 45.67 105.68 45.432 105.708 45.152C105.726 44.816 105.736 44.62 105.736 44.564C105.736 44.48 105.726 44.2887 105.708 43.99C105.689 43.7007 105.6 43.458 105.442 43.262C105.283 43.066 105.036 42.968 104.7 42.968C104.373 42.968 104.13 43.066 103.972 43.262C103.813 43.458 103.724 43.7007 103.706 43.99C103.696 44.1393 103.692 44.3307 103.692 44.564C103.692 44.788 103.696 44.984 103.706 45.152C103.734 45.432 103.822 45.67 103.972 45.866C104.13 46.062 104.373 46.16 104.7 46.16ZM114.4 47.14C113.746 47.14 113.196 47.0373 112.748 46.832C112.309 46.6173 111.978 46.3747 111.754 46.104C111.539 45.8333 111.432 45.6093 111.432 45.432C111.432 45.3387 111.464 45.2687 111.53 45.222C111.604 45.166 111.679 45.138 111.754 45.138H112.384C112.477 45.138 112.561 45.1847 112.636 45.278C112.86 45.5393 113.102 45.7447 113.364 45.894C113.625 46.0433 113.975 46.118 114.414 46.118C114.899 46.118 115.291 46.0247 115.59 45.838C115.898 45.642 116.052 45.376 116.052 45.04C116.052 44.816 115.986 44.634 115.856 44.494C115.734 44.3447 115.52 44.2187 115.212 44.116C114.913 44.004 114.465 43.8827 113.868 43.752C113.056 43.5747 112.477 43.318 112.132 42.982C111.796 42.646 111.628 42.212 111.628 41.68C111.628 41.3253 111.73 40.9893 111.936 40.672C112.15 40.3453 112.458 40.084 112.86 39.888C113.27 39.6827 113.76 39.58 114.33 39.58C114.927 39.58 115.436 39.678 115.856 39.874C116.276 40.07 116.588 40.3033 116.794 40.574C117.008 40.8353 117.116 41.0547 117.116 41.232C117.116 41.316 117.083 41.386 117.018 41.442C116.962 41.498 116.892 41.526 116.808 41.526H116.22C116.108 41.526 116.014 41.4793 115.94 41.386C115.79 41.2087 115.66 41.0733 115.548 40.98C115.445 40.8773 115.291 40.7887 115.086 40.714C114.89 40.6393 114.638 40.602 114.33 40.602C113.882 40.602 113.536 40.7 113.294 40.896C113.051 41.0827 112.93 41.33 112.93 41.638C112.93 41.834 112.981 42.002 113.084 42.142C113.186 42.2727 113.382 42.394 113.672 42.506C113.97 42.618 114.4 42.7347 114.96 42.856C115.846 43.0427 116.472 43.3133 116.836 43.668C117.209 44.0133 117.396 44.4567 117.396 44.998C117.396 45.3993 117.279 45.7633 117.046 46.09C116.812 46.4167 116.467 46.6733 116.01 46.86C115.562 47.0467 115.025 47.14 114.4 47.14ZM121.928 47.14C120.967 47.14 120.197 46.846 119.618 46.258C119.049 45.6607 118.736 44.8487 118.68 43.822L118.666 43.346L118.68 42.884C118.746 41.876 119.063 41.0733 119.632 40.476C120.211 39.8787 120.972 39.58 121.914 39.58C122.95 39.58 123.753 39.9113 124.322 40.574C124.892 41.2273 125.176 42.114 125.176 43.234V43.472C125.176 43.5653 125.144 43.6447 125.078 43.71C125.022 43.766 124.948 43.794 124.854 43.794H120.01V43.92C120.038 44.5267 120.22 45.0447 120.556 45.474C120.902 45.894 121.354 46.104 121.914 46.104C122.344 46.104 122.694 46.02 122.964 45.852C123.244 45.6747 123.45 45.4927 123.58 45.306C123.664 45.194 123.725 45.1287 123.762 45.11C123.809 45.082 123.888 45.068 124 45.068H124.686C124.77 45.068 124.84 45.0913 124.896 45.138C124.952 45.1847 124.98 45.25 124.98 45.334C124.98 45.5393 124.85 45.7867 124.588 46.076C124.336 46.3653 123.977 46.6173 123.51 46.832C123.053 47.0373 122.526 47.14 121.928 47.14ZM123.846 42.828V42.786C123.846 42.142 123.669 41.6193 123.314 41.218C122.969 40.8073 122.502 40.602 121.914 40.602C121.326 40.602 120.86 40.8073 120.514 41.218C120.178 41.6193 120.01 42.142 120.01 42.786V42.828H123.846ZM129.79 47.14C128.792 47.14 128.008 46.86 127.438 46.3C126.878 45.7307 126.58 44.9373 126.542 43.92L126.528 43.36L126.542 42.8C126.58 41.7827 126.878 40.994 127.438 40.434C128.008 39.8647 128.792 39.58 129.79 39.58C130.462 39.58 131.032 39.7013 131.498 39.944C131.965 40.1867 132.31 40.4853 132.534 40.84C132.768 41.1947 132.894 41.5493 132.912 41.904C132.922 41.9973 132.894 42.072 132.828 42.128C132.763 42.184 132.684 42.212 132.59 42.212H131.918C131.825 42.212 131.755 42.1933 131.708 42.156C131.662 42.1187 131.615 42.044 131.568 41.932C131.41 41.484 131.186 41.1667 130.896 40.98C130.607 40.784 130.243 40.686 129.804 40.686C129.226 40.686 128.764 40.868 128.418 41.232C128.082 41.5867 127.9 42.1327 127.872 42.87L127.858 43.374L127.872 43.85C127.9 44.5967 128.082 45.1473 128.418 45.502C128.754 45.8567 129.216 46.034 129.804 46.034C130.243 46.034 130.607 45.9407 130.896 45.754C131.186 45.558 131.41 45.236 131.568 44.788C131.615 44.676 131.662 44.6013 131.708 44.564C131.755 44.5173 131.825 44.494 131.918 44.494H132.59C132.684 44.494 132.763 44.5267 132.828 44.592C132.894 44.648 132.922 44.7227 132.912 44.816C132.894 45.1613 132.768 45.516 132.534 45.88C132.31 46.2347 131.965 46.5333 131.498 46.776C131.041 47.0187 130.472 47.14 129.79 47.14ZM137.291 47.14C136.404 47.14 135.718 46.8553 135.233 46.286C134.748 45.7073 134.505 44.942 134.505 43.99V40.042C134.505 39.9487 134.533 39.874 134.589 39.818C134.654 39.7527 134.734 39.72 134.827 39.72H135.527C135.62 39.72 135.695 39.7527 135.751 39.818C135.816 39.874 135.849 39.9487 135.849 40.042V43.92C135.849 45.3107 136.456 46.006 137.669 46.006C138.257 46.006 138.724 45.824 139.069 45.46C139.414 45.0867 139.587 44.5733 139.587 43.92V40.042C139.587 39.9487 139.615 39.874 139.671 39.818C139.736 39.7527 139.816 39.72 139.909 39.72H140.609C140.702 39.72 140.777 39.7527 140.833 39.818C140.889 39.874 140.917 39.9487 140.917 40.042V46.678C140.917 46.7713 140.889 46.8507 140.833 46.916C140.777 46.972 140.702 47 140.609 47H139.951C139.858 47 139.778 46.972 139.713 46.916C139.657 46.8507 139.629 46.7713 139.629 46.678V46.062C139.368 46.4167 139.05 46.6873 138.677 46.874C138.304 47.0513 137.842 47.14 137.291 47.14ZM143.319 47C143.226 47 143.146 46.972 143.081 46.916C143.025 46.8507 142.997 46.7713 142.997 46.678V40.056C142.997 39.9627 143.025 39.8833 143.081 39.818C143.146 39.7527 143.226 39.72 143.319 39.72H143.963C144.056 39.72 144.136 39.7527 144.201 39.818C144.266 39.8833 144.299 39.9627 144.299 40.056V40.672C144.682 40.0373 145.335 39.72 146.259 39.72H146.805C146.898 39.72 146.973 39.7527 147.029 39.818C147.094 39.874 147.127 39.9487 147.127 40.042V40.616C147.127 40.7093 147.094 40.784 147.029 40.84C146.973 40.896 146.898 40.924 146.805 40.924H145.965C145.461 40.924 145.064 41.0733 144.775 41.372C144.486 41.6613 144.341 42.058 144.341 42.562V46.678C144.341 46.7713 144.308 46.8507 144.243 46.916C144.178 46.972 144.098 47 144.005 47H143.319ZM151.091 47.14C150.129 47.14 149.359 46.846 148.781 46.258C148.211 45.6607 147.899 44.8487 147.843 43.822L147.829 43.346L147.843 42.884C147.908 41.876 148.225 41.0733 148.795 40.476C149.373 39.8787 150.134 39.58 151.077 39.58C152.113 39.58 152.915 39.9113 153.485 40.574C154.054 41.2273 154.339 42.114 154.339 43.234V43.472C154.339 43.5653 154.306 43.6447 154.241 43.71C154.185 43.766 154.11 43.794 154.017 43.794H149.173V43.92C149.201 44.5267 149.383 45.0447 149.719 45.474C150.064 45.894 150.517 46.104 151.077 46.104C151.506 46.104 151.856 46.02 152.127 45.852C152.407 45.6747 152.612 45.4927 152.743 45.306C152.827 45.194 152.887 45.1287 152.925 45.11C152.971 45.082 153.051 45.068 153.163 45.068H153.849C153.933 45.068 154.003 45.0913 154.059 45.138C154.115 45.1847 154.143 45.25 154.143 45.334C154.143 45.5393 154.012 45.7867 153.751 46.076C153.499 46.3653 153.139 46.6173 152.673 46.832C152.215 47.0373 151.688 47.14 151.091 47.14ZM153.009 42.828V42.786C153.009 42.142 152.831 41.6193 152.477 41.218C152.131 40.8073 151.665 40.602 151.077 40.602C150.489 40.602 150.022 40.8073 149.677 41.218C149.341 41.6193 149.173 42.142 149.173 42.786V42.828H153.009ZM159.78 49.66C159.687 49.66 159.608 49.6273 159.542 49.562C159.486 49.506 159.458 49.4313 159.458 49.338V40.042C159.458 39.9487 159.486 39.874 159.542 39.818C159.608 39.7527 159.687 39.72 159.78 39.72H160.424C160.518 39.72 160.592 39.7527 160.648 39.818C160.714 39.874 160.746 39.9487 160.746 40.042V40.658C161.269 39.9393 162.034 39.58 163.042 39.58C164.022 39.58 164.755 39.888 165.24 40.504C165.735 41.12 166.001 41.9133 166.038 42.884C166.048 42.9867 166.052 43.1453 166.052 43.36C166.052 43.5747 166.048 43.7333 166.038 43.836C166.001 44.7973 165.735 45.5907 165.24 46.216C164.746 46.832 164.013 47.14 163.042 47.14C162.072 47.14 161.316 46.79 160.774 46.09V49.338C160.774 49.4313 160.746 49.506 160.69 49.562C160.634 49.6273 160.56 49.66 160.466 49.66H159.78ZM162.748 46.006C163.411 46.006 163.892 45.8007 164.19 45.39C164.498 44.9793 164.666 44.438 164.694 43.766C164.704 43.6727 164.708 43.5373 164.708 43.36C164.708 41.596 164.055 40.714 162.748 40.714C162.104 40.714 161.619 40.9287 161.292 41.358C160.975 41.778 160.802 42.282 160.774 42.87L160.76 43.402L160.774 43.948C160.793 44.4987 160.97 44.9793 161.306 45.39C161.642 45.8007 162.123 46.006 162.748 46.006ZM169.814 47.14C169.357 47.14 168.932 47.0467 168.54 46.86C168.148 46.6733 167.835 46.4213 167.602 46.104C167.378 45.7773 167.266 45.418 167.266 45.026C167.266 44.41 167.518 43.906 168.022 43.514C168.535 43.1127 169.226 42.8513 170.094 42.73L172.18 42.436V42.03C172.18 41.078 171.634 40.602 170.542 40.602C170.131 40.602 169.795 40.6907 169.534 40.868C169.273 41.036 169.077 41.2367 168.946 41.47C168.918 41.554 168.881 41.6147 168.834 41.652C168.797 41.6893 168.741 41.708 168.666 41.708H168.064C167.98 41.708 167.905 41.68 167.84 41.624C167.784 41.5587 167.756 41.484 167.756 41.4C167.765 41.176 167.868 40.924 168.064 40.644C168.269 40.3547 168.582 40.1073 169.002 39.902C169.422 39.6873 169.94 39.58 170.556 39.58C171.601 39.58 172.353 39.8273 172.81 40.322C173.267 40.8073 173.496 41.414 173.496 42.142V46.678C173.496 46.7713 173.463 46.8507 173.398 46.916C173.342 46.972 173.267 47 173.174 47H172.53C172.437 47 172.357 46.972 172.292 46.916C172.236 46.8507 172.208 46.7713 172.208 46.678V46.076C172.003 46.3747 171.704 46.6267 171.312 46.832C170.92 47.0373 170.421 47.14 169.814 47.14ZM170.108 46.09C170.715 46.09 171.209 45.894 171.592 45.502C171.984 45.1007 172.18 44.5267 172.18 43.78V43.388L170.556 43.626C169.893 43.7193 169.394 43.878 169.058 44.102C168.722 44.3167 168.554 44.592 168.554 44.928C168.554 45.3013 168.708 45.5907 169.016 45.796C169.324 45.992 169.688 46.09 170.108 46.09ZM176.632 49.66C176.558 49.66 176.492 49.632 176.436 49.576C176.38 49.52 176.352 49.4547 176.352 49.38C176.352 49.3147 176.376 49.2307 176.422 49.128L177.5 46.566L174.826 40.252C174.78 40.1307 174.756 40.0513 174.756 40.014C174.756 39.93 174.784 39.86 174.84 39.804C174.896 39.748 174.966 39.72 175.05 39.72H175.736C175.886 39.72 175.998 39.7993 176.072 39.958L178.2 45.054L180.384 39.958C180.459 39.7993 180.576 39.72 180.734 39.72H181.392C181.476 39.72 181.546 39.748 181.602 39.804C181.658 39.86 181.686 39.9253 181.686 40C181.686 40.028 181.663 40.112 181.616 40.252L177.64 49.422C177.566 49.5807 177.449 49.66 177.29 49.66H176.632ZM183.405 47C183.312 47 183.232 46.972 183.167 46.916C183.111 46.8507 183.083 46.7713 183.083 46.678V40.042C183.083 39.9487 183.111 39.874 183.167 39.818C183.232 39.7527 183.312 39.72 183.405 39.72H184.035C184.128 39.72 184.203 39.7527 184.259 39.818C184.324 39.874 184.357 39.9487 184.357 40.042V40.532C184.842 39.8973 185.519 39.58 186.387 39.58C187.423 39.58 188.156 40.0093 188.585 40.868C188.809 40.476 189.126 40.1633 189.537 39.93C189.948 39.6967 190.41 39.58 190.923 39.58C191.688 39.58 192.314 39.8413 192.799 40.364C193.284 40.8867 193.527 41.6427 193.527 42.632V46.678C193.527 46.7713 193.494 46.8507 193.429 46.916C193.373 46.972 193.298 47 193.205 47H192.547C192.454 47 192.374 46.972 192.309 46.916C192.253 46.8507 192.225 46.7713 192.225 46.678V42.758C192.225 42.03 192.071 41.5073 191.763 41.19C191.464 40.8727 191.068 40.714 190.573 40.714C190.134 40.714 189.756 40.8773 189.439 41.204C189.122 41.5213 188.963 42.0393 188.963 42.758V46.678C188.963 46.7713 188.93 46.8507 188.865 46.916C188.809 46.972 188.734 47 188.641 47H187.983C187.89 47 187.81 46.972 187.745 46.916C187.689 46.8507 187.661 46.7713 187.661 46.678V42.758C187.661 42.03 187.502 41.5073 187.185 41.19C186.877 40.8727 186.485 40.714 186.009 40.714C185.57 40.714 185.192 40.8773 184.875 41.204C184.558 41.5213 184.399 42.0347 184.399 42.744V46.678C184.399 46.7713 184.366 46.8507 184.301 46.916C184.245 46.972 184.17 47 184.077 47H183.405ZM198.436 47.14C197.475 47.14 196.705 46.846 196.126 46.258C195.557 45.6607 195.244 44.8487 195.188 43.822L195.174 43.346L195.188 42.884C195.254 41.876 195.571 41.0733 196.14 40.476C196.719 39.8787 197.48 39.58 198.422 39.58C199.458 39.58 200.261 39.9113 200.83 40.574C201.4 41.2273 201.684 42.114 201.684 43.234V43.472C201.684 43.5653 201.652 43.6447 201.586 43.71C201.53 43.766 201.456 43.794 201.362 43.794H196.518V43.92C196.546 44.5267 196.728 45.0447 197.064 45.474C197.41 45.894 197.862 46.104 198.422 46.104C198.852 46.104 199.202 46.02 199.472 45.852C199.752 45.6747 199.958 45.4927 200.088 45.306C200.172 45.194 200.233 45.1287 200.27 45.11C200.317 45.082 200.396 45.068 200.508 45.068H201.194C201.278 45.068 201.348 45.0913 201.404 45.138C201.46 45.1847 201.488 45.25 201.488 45.334C201.488 45.5393 201.358 45.7867 201.096 46.076C200.844 46.3653 200.485 46.6173 200.018 46.832C199.561 47.0373 199.034 47.14 198.436 47.14ZM200.354 42.828V42.786C200.354 42.142 200.177 41.6193 199.822 41.218C199.477 40.8073 199.01 40.602 198.422 40.602C197.834 40.602 197.368 40.8073 197.022 41.218C196.686 41.6193 196.518 42.142 196.518 42.786V42.828H200.354ZM203.68 47C203.587 47 203.508 46.972 203.442 46.916C203.386 46.8507 203.358 46.7713 203.358 46.678V40.042C203.358 39.9487 203.386 39.874 203.442 39.818C203.508 39.7527 203.587 39.72 203.68 39.72H204.338C204.432 39.72 204.506 39.7527 204.562 39.818C204.628 39.874 204.66 39.9487 204.66 40.042V40.658C204.931 40.3127 205.248 40.0467 205.612 39.86C205.986 39.6733 206.448 39.58 206.998 39.58C207.894 39.58 208.59 39.8693 209.084 40.448C209.588 41.0173 209.84 41.778 209.84 42.73V46.678C209.84 46.7713 209.808 46.8507 209.742 46.916C209.686 46.972 209.612 47 209.518 47H208.818C208.725 47 208.646 46.972 208.58 46.916C208.524 46.8507 208.496 46.7713 208.496 46.678V42.8C208.496 42.1373 208.333 41.624 208.006 41.26C207.689 40.896 207.227 40.714 206.62 40.714C206.032 40.714 205.566 40.9007 205.22 41.274C204.875 41.638 204.702 42.1467 204.702 42.8V46.678C204.702 46.7713 204.67 46.8507 204.604 46.916C204.548 46.972 204.474 47 204.38 47H203.68ZM214.595 47C213.12 47 212.383 46.1787 212.383 44.536V40.84H211.291C211.197 40.84 211.118 40.812 211.053 40.756C210.997 40.6907 210.969 40.6113 210.969 40.518V40.042C210.969 39.9487 210.997 39.874 211.053 39.818C211.118 39.7527 211.197 39.72 211.291 39.72H212.383V37.382C212.383 37.2887 212.411 37.214 212.467 37.158C212.532 37.0927 212.611 37.06 212.705 37.06H213.363C213.456 37.06 213.531 37.0927 213.587 37.158C213.652 37.214 213.685 37.2887 213.685 37.382V39.72H215.421C215.514 39.72 215.589 39.7527 215.645 39.818C215.71 39.874 215.743 39.9487 215.743 40.042V40.518C215.743 40.6113 215.71 40.6907 215.645 40.756C215.589 40.812 215.514 40.84 215.421 40.84H213.685V44.438C213.685 44.9047 213.764 45.2593 213.923 45.502C214.081 45.7353 214.343 45.852 214.707 45.852H215.561C215.654 45.852 215.729 45.8847 215.785 45.95C215.85 46.006 215.883 46.0807 215.883 46.174V46.678C215.883 46.7713 215.85 46.8507 215.785 46.916C215.729 46.972 215.654 47 215.561 47H214.595Z" fill="#515151" fill-opacity="0.71"/>
<defs>
<clipPath id="clip0_2_211">
<rect width="58" height="58" fill="white"/>
</clipPath>
</defs>
</svg>
