<svg width="203" height="58" viewBox="0 0 203 58" fill="none" xmlns="http://www.w3.org/2000/svg">
<path d="M74.38 24C74.2467 24 74.1333 23.9533 74.04 23.86C73.9467 23.7667 73.9 23.6533 73.9 23.52V22.5C73.9 22.14 74.0667 21.8267 74.4 21.56L77.56 18.42C78.9333 17.34 79.8867 16.5 80.42 15.9C80.9667 15.2867 81.24 14.6867 81.24 14.1C81.24 13.4733 81.0667 12.98 80.72 12.62C80.3867 12.26 79.88 12.08 79.2 12.08C78.5333 12.08 78.0067 12.28 77.62 12.68C77.2333 13.0667 76.9933 13.5733 76.9 14.2C76.86 14.36 76.7867 14.48 76.68 14.56C76.5733 14.6267 76.4533 14.66 76.32 14.66H74.54C74.42 14.66 74.32 14.62 74.24 14.54C74.16 14.46 74.12 14.3667 74.12 14.26C74.1467 13.4733 74.36 12.74 74.76 12.06C75.16 11.3667 75.74 10.8133 76.5 10.4C77.26 9.97333 78.1533 9.76 79.18 9.76C80.2467 9.76 81.1467 9.94667 81.88 10.32C82.6267 10.68 83.1867 11.18 83.56 11.82C83.9333 12.46 84.12 13.1867 84.12 14C84.12 14.8933 83.8667 15.7 83.36 16.42C82.8667 17.14 82.1067 17.9133 81.08 18.74L78.24 21.62H83.94C84.0867 21.62 84.2 21.6667 84.28 21.76C84.3733 21.84 84.42 21.9533 84.42 22.1V23.52C84.42 23.6533 84.3733 23.7667 84.28 23.86C84.2 23.9533 84.0867 24 83.94 24H74.38ZM93.1461 24C93.0128 24 92.8994 23.9533 92.8061 23.86C92.7128 23.7667 92.6661 23.6533 92.6661 23.52V20.96H86.3261C86.1928 20.96 86.0794 20.9133 85.9861 20.82C85.8928 20.7267 85.8461 20.6133 85.8461 20.48V19.12C85.8461 18.9067 85.9194 18.7067 86.0661 18.52L91.9661 10.34C92.0328 10.2333 92.1328 10.1533 92.2661 10.1C92.3994 10.0333 92.5461 10 92.7061 10H94.8861C95.0328 10 95.1461 10.0467 95.2261 10.14C95.3194 10.22 95.3661 10.3333 95.3661 10.48V18.6H97.1461C97.2928 18.6 97.4128 18.6467 97.5061 18.74C97.5994 18.82 97.6461 18.9333 97.6461 19.08V20.48C97.6461 20.6133 97.5994 20.7267 97.5061 20.82C97.4128 20.9133 97.2994 20.96 97.1661 20.96H95.3661V23.52C95.3661 23.6533 95.3194 23.7667 95.2261 23.86C95.1461 23.9533 95.0328 24 94.8861 24H93.1461ZM92.7261 18.68V12.9L88.6261 18.68H92.7261ZM99.0953 25.68C98.9886 25.68 98.8953 25.64 98.8153 25.56C98.7353 25.48 98.6953 25.38 98.6953 25.26C98.6953 25.18 98.7086 25.1067 98.7353 25.04L105.555 8.7C105.595 8.59333 105.662 8.5 105.755 8.42C105.862 8.32667 105.995 8.28 106.155 8.28H107.455C107.562 8.28 107.655 8.32 107.735 8.4C107.829 8.48 107.875 8.58 107.875 8.7C107.875 8.74 107.855 8.81333 107.815 8.92L100.995 25.26C100.862 25.54 100.655 25.68 100.375 25.68H99.0953ZM111.252 24C111.132 24 111.032 23.96 110.952 23.88C110.872 23.7867 110.832 23.68 110.832 23.56C110.832 23.52 110.845 23.46 110.872 23.38L115.692 12.38H109.412C109.278 12.38 109.165 12.3333 109.072 12.24C108.978 12.1467 108.932 12.0333 108.932 11.9V10.5C108.932 10.3533 108.972 10.2333 109.052 10.14C109.145 10.0467 109.265 10 109.412 10H118.192C118.338 10 118.452 10.0467 118.532 10.14C118.625 10.2333 118.672 10.3533 118.672 10.5V11.74C118.672 12.0067 118.612 12.2933 118.492 12.6L113.712 23.52C113.565 23.84 113.352 24 113.072 24H111.252ZM130.201 24.2C129.015 24.2 127.995 24.02 127.141 23.66C126.288 23.3 125.641 22.8267 125.201 22.24C124.761 21.6533 124.528 21.02 124.501 20.34C124.501 20.22 124.541 20.12 124.621 20.04C124.701 19.96 124.801 19.92 124.921 19.92H126.701C126.861 19.92 126.981 19.9533 127.061 20.02C127.155 20.0733 127.241 20.1667 127.321 20.3C127.455 20.7533 127.761 21.1333 128.241 21.44C128.721 21.7467 129.375 21.9 130.201 21.9C131.148 21.9 131.861 21.7467 132.341 21.44C132.821 21.12 133.061 20.68 133.061 20.12C133.061 19.7467 132.935 19.44 132.681 19.2C132.441 18.96 132.075 18.7533 131.581 18.58C131.101 18.4067 130.381 18.1933 129.421 17.94C127.848 17.5667 126.695 17.0733 125.961 16.46C125.241 15.8333 124.881 14.9467 124.881 13.8C124.881 13.0267 125.088 12.34 125.501 11.74C125.928 11.14 126.535 10.6667 127.321 10.32C128.121 9.97333 129.048 9.8 130.101 9.8C131.195 9.8 132.141 9.99333 132.941 10.38C133.741 10.7667 134.348 11.2533 134.761 11.84C135.188 12.4133 135.415 12.9867 135.441 13.56C135.441 13.68 135.401 13.78 135.321 13.86C135.241 13.94 135.141 13.98 135.021 13.98H133.161C132.881 13.98 132.688 13.8533 132.581 13.6C132.501 13.1733 132.235 12.82 131.781 12.54C131.328 12.2467 130.768 12.1 130.101 12.1C129.355 12.1 128.768 12.24 128.341 12.52C127.915 12.8 127.701 13.2067 127.701 13.74C127.701 14.1133 127.808 14.42 128.021 14.66C128.235 14.9 128.568 15.1133 129.021 15.3C129.488 15.4867 130.155 15.6933 131.021 15.92C132.195 16.1867 133.128 16.4867 133.821 16.82C134.528 17.1533 135.048 17.5733 135.381 18.08C135.715 18.5867 135.881 19.2333 135.881 20.02C135.881 20.8733 135.641 21.62 135.161 22.26C134.695 22.8867 134.028 23.3667 133.161 23.7C132.308 24.0333 131.321 24.2 130.201 24.2ZM141.793 24.2C140.567 24.2 139.6 23.8 138.893 23C138.187 22.1867 137.833 21.0867 137.833 19.7V14.08C137.833 13.9467 137.88 13.8333 137.973 13.74C138.067 13.6467 138.18 13.6 138.313 13.6H140.073C140.22 13.6 140.333 13.6467 140.413 13.74C140.507 13.82 140.553 13.9333 140.553 14.08V19.58C140.553 21.2333 141.28 22.06 142.733 22.06C143.427 22.06 143.973 21.84 144.373 21.4C144.787 20.96 144.993 20.3533 144.993 19.58V14.08C144.993 13.9467 145.04 13.8333 145.133 13.74C145.227 13.6467 145.34 13.6 145.473 13.6H147.233C147.38 13.6 147.493 13.6467 147.573 13.74C147.667 13.82 147.713 13.9333 147.713 14.08V23.52C147.713 23.6533 147.667 23.7667 147.573 23.86C147.493 23.9533 147.38 24 147.233 24H145.613C145.48 24 145.367 23.9533 145.273 23.86C145.18 23.7667 145.133 23.6533 145.133 23.52V22.7C144.387 23.7 143.273 24.2 141.793 24.2ZM150.855 27.8C150.722 27.8 150.608 27.7533 150.515 27.66C150.422 27.58 150.375 27.4667 150.375 27.32V14.08C150.375 13.9333 150.422 13.82 150.515 13.74C150.608 13.6467 150.722 13.6 150.855 13.6H152.435C152.582 13.6 152.695 13.6467 152.775 13.74C152.868 13.82 152.915 13.9333 152.915 14.08V14.88C153.662 13.8933 154.728 13.4 156.115 13.4C157.462 13.4 158.495 13.8267 159.215 14.68C159.935 15.52 160.322 16.66 160.375 18.1C160.388 18.26 160.395 18.4933 160.395 18.8C160.395 19.12 160.388 19.36 160.375 19.52C160.322 20.92 159.935 22.0533 159.215 22.92C158.495 23.7733 157.462 24.2 156.115 24.2C154.768 24.2 153.742 23.7267 153.035 22.78V27.32C153.035 27.4667 152.988 27.58 152.895 27.66C152.815 27.7533 152.702 27.8 152.555 27.8H150.855ZM155.375 22.06C156.815 22.06 157.582 21.1733 157.675 19.4C157.688 19.2667 157.695 19.0667 157.695 18.8C157.695 18.5333 157.688 18.3333 157.675 18.2C157.582 16.4267 156.815 15.54 155.375 15.54C154.602 15.54 154.028 15.7867 153.655 16.28C153.282 16.7733 153.075 17.38 153.035 18.1L153.015 18.86L153.035 19.64C153.062 20.3067 153.268 20.88 153.655 21.36C154.055 21.8267 154.628 22.06 155.375 22.06ZM163.14 27.8C163.007 27.8 162.894 27.7533 162.8 27.66C162.707 27.58 162.66 27.4667 162.66 27.32V14.08C162.66 13.9333 162.707 13.82 162.8 13.74C162.894 13.6467 163.007 13.6 163.14 13.6H164.72C164.867 13.6 164.98 13.6467 165.06 13.74C165.154 13.82 165.2 13.9333 165.2 14.08V14.88C165.947 13.8933 167.014 13.4 168.4 13.4C169.747 13.4 170.78 13.8267 171.5 14.68C172.22 15.52 172.607 16.66 172.66 18.1C172.674 18.26 172.68 18.4933 172.68 18.8C172.68 19.12 172.674 19.36 172.66 19.52C172.607 20.92 172.22 22.0533 171.5 22.92C170.78 23.7733 169.747 24.2 168.4 24.2C167.054 24.2 166.027 23.7267 165.32 22.78V27.32C165.32 27.4667 165.274 27.58 165.18 27.66C165.1 27.7533 164.987 27.8 164.84 27.8H163.14ZM167.66 22.06C169.1 22.06 169.867 21.1733 169.96 19.4C169.974 19.2667 169.98 19.0667 169.98 18.8C169.98 18.5333 169.974 18.3333 169.96 18.2C169.867 16.4267 169.1 15.54 167.66 15.54C166.887 15.54 166.314 15.7867 165.94 16.28C165.567 16.7733 165.36 17.38 165.32 18.1L165.3 18.86L165.32 19.64C165.347 20.3067 165.554 20.88 165.94 21.36C166.34 21.8267 166.914 22.06 167.66 22.06ZM179.525 24.2C177.965 24.2 176.759 23.8 175.905 23C175.052 22.1867 174.592 21.08 174.525 19.68L174.505 18.8L174.525 17.92C174.592 16.5333 175.059 15.4333 175.925 14.62C176.792 13.8067 177.992 13.4 179.525 13.4C181.059 13.4 182.259 13.8067 183.125 14.62C183.992 15.4333 184.459 16.5333 184.525 17.92C184.539 18.08 184.545 18.3733 184.545 18.8C184.545 19.2267 184.539 19.52 184.525 19.68C184.459 21.08 183.999 22.1867 183.145 23C182.292 23.8 181.085 24.2 179.525 24.2ZM179.525 22.22C180.232 22.22 180.779 22 181.165 21.56C181.552 21.1067 181.765 20.4467 181.805 19.58C181.819 19.4467 181.825 19.1867 181.825 18.8C181.825 18.4133 181.819 18.1533 181.805 18.02C181.765 17.1533 181.552 16.5 181.165 16.06C180.779 15.6067 180.232 15.38 179.525 15.38C178.819 15.38 178.272 15.6067 177.885 16.06C177.499 16.5 177.285 17.1533 177.245 18.02L177.225 18.8L177.245 19.58C177.285 20.4467 177.499 21.1067 177.885 21.56C178.272 22 178.819 22.22 179.525 22.22ZM187.241 24C187.108 24 186.995 23.9533 186.901 23.86C186.808 23.7667 186.761 23.6533 186.761 23.52V14.1C186.761 13.9667 186.808 13.8533 186.901 13.76C186.995 13.6533 187.108 13.6 187.241 13.6H188.861C189.008 13.6 189.128 13.6467 189.221 13.74C189.315 13.8333 189.361 13.9533 189.361 14.1V14.92C189.681 14.4933 190.081 14.1667 190.561 13.94C191.055 13.7133 191.615 13.6 192.241 13.6H193.061C193.208 13.6 193.321 13.6467 193.401 13.74C193.495 13.82 193.541 13.9333 193.541 14.08V15.52C193.541 15.6533 193.495 15.7667 193.401 15.86C193.321 15.9533 193.208 16 193.061 16H191.501C190.875 16 190.381 16.18 190.021 16.54C189.661 16.9 189.481 17.3933 189.481 18.02V23.52C189.481 23.6533 189.435 23.7667 189.341 23.86C189.248 23.9533 189.128 24 188.981 24H187.241ZM199.801 24C198.588 24 197.675 23.6867 197.061 23.06C196.461 22.42 196.161 21.4867 196.161 20.26V15.72H194.581C194.448 15.72 194.335 15.6733 194.241 15.58C194.148 15.4733 194.101 15.3533 194.101 15.22V14.08C194.101 13.9467 194.148 13.8333 194.241 13.74C194.335 13.6467 194.448 13.6 194.581 13.6H196.161V10.28C196.161 10.1333 196.208 10.02 196.301 9.94C196.395 9.84667 196.508 9.8 196.641 9.8H198.261C198.408 9.8 198.521 9.84667 198.601 9.94C198.695 10.02 198.741 10.1333 198.741 10.28V13.6H201.241C201.388 13.6 201.501 13.6467 201.581 13.74C201.675 13.82 201.721 13.9333 201.721 14.08V15.22C201.721 15.3667 201.675 15.4867 201.581 15.58C201.488 15.6733 201.375 15.72 201.241 15.72H198.741V20.06C198.741 20.6333 198.841 21.0667 199.041 21.36C199.241 21.6533 199.575 21.8 200.041 21.8H201.421C201.555 21.8 201.668 21.8467 201.761 21.94C201.855 22.0333 201.901 22.1467 201.901 22.28V23.52C201.901 23.6533 201.855 23.7667 201.761 23.86C201.681 23.9533 201.568 24 201.421 24H199.801Z" fill="#555555"/>
<path d="M80.532 47.91C80.4293 47.91 80.3407 47.8773 80.266 47.812C80.1913 47.756 80.1213 47.6813 80.056 47.588L79.482 46.804C78.9967 47.028 78.4133 47.14 77.732 47.14C76.5187 47.14 75.576 46.8227 74.904 46.188C74.2413 45.544 73.8913 44.578 73.854 43.29C73.8447 43.01 73.84 42.6133 73.84 42.1C73.84 41.5867 73.8447 41.1947 73.854 40.924C73.8913 39.664 74.2553 38.7073 74.946 38.054C75.6367 37.3913 76.5653 37.06 77.732 37.06C78.908 37.06 79.8367 37.3913 80.518 38.054C81.2087 38.7073 81.5727 39.664 81.61 40.924C81.6287 41.4653 81.638 41.8573 81.638 42.1C81.638 42.3333 81.6287 42.73 81.61 43.29C81.5727 44.5687 81.2367 45.5253 80.602 46.16L81.526 47.476C81.554 47.532 81.568 47.5833 81.568 47.63V47.658C81.568 47.7233 81.54 47.7793 81.484 47.826C81.428 47.882 81.3627 47.91 81.288 47.91H80.532ZM77.732 45.95C78.4693 45.95 79.0573 45.726 79.496 45.278C79.944 44.83 80.1867 44.144 80.224 43.22C80.2427 42.66 80.252 42.2867 80.252 42.1C80.252 41.8947 80.2427 41.5213 80.224 40.98C80.1867 40.056 79.944 39.37 79.496 38.922C79.0573 38.474 78.4693 38.25 77.732 38.25C76.9947 38.25 76.4067 38.474 75.968 38.922C75.5293 39.37 75.2913 40.056 75.254 40.98C75.2447 41.2507 75.24 41.624 75.24 42.1C75.24 42.5667 75.2447 42.94 75.254 43.22C75.2913 44.144 75.5293 44.83 75.968 45.278C76.4067 45.726 76.9947 45.95 77.732 45.95ZM86.2266 47.14C85.3399 47.14 84.6539 46.8553 84.1686 46.286C83.6833 45.7073 83.4406 44.942 83.4406 43.99V40.042C83.4406 39.9487 83.4686 39.874 83.5246 39.818C83.5899 39.7527 83.6693 39.72 83.7626 39.72H84.4626C84.5559 39.72 84.6306 39.7527 84.6866 39.818C84.7519 39.874 84.7846 39.9487 84.7846 40.042V43.92C84.7846 45.3107 85.3913 46.006 86.6046 46.006C87.1926 46.006 87.6593 45.824 88.0046 45.46C88.3499 45.0867 88.5226 44.5733 88.5226 43.92V40.042C88.5226 39.9487 88.5506 39.874 88.6066 39.818C88.6719 39.7527 88.7513 39.72 88.8446 39.72H89.5446C89.6379 39.72 89.7126 39.7527 89.7686 39.818C89.8246 39.874 89.8526 39.9487 89.8526 40.042V46.678C89.8526 46.7713 89.8246 46.8507 89.7686 46.916C89.7126 46.972 89.6379 47 89.5446 47H88.8866C88.7933 47 88.7139 46.972 88.6486 46.916C88.5926 46.8507 88.5646 46.7713 88.5646 46.678V46.062C88.3033 46.4167 87.9859 46.6873 87.6126 46.874C87.2393 47.0513 86.7773 47.14 86.2266 47.14ZM92.1425 38.362C92.0492 38.362 91.9698 38.334 91.9045 38.278C91.8485 38.2127 91.8205 38.1333 91.8205 38.04V37.284C91.8205 37.1907 91.8485 37.1113 91.9045 37.046C91.9698 36.9807 92.0492 36.948 92.1425 36.948H93.0245C93.1178 36.948 93.1972 36.9807 93.2625 37.046C93.3278 37.1113 93.3605 37.1907 93.3605 37.284V38.04C93.3605 38.1333 93.3278 38.2127 93.2625 38.278C93.1972 38.334 93.1178 38.362 93.0245 38.362H92.1425ZM92.2545 47C92.1612 47 92.0818 46.972 92.0165 46.916C91.9605 46.8507 91.9325 46.7713 91.9325 46.678V40.042C91.9325 39.9487 91.9605 39.874 92.0165 39.818C92.0818 39.7527 92.1612 39.72 92.2545 39.72H92.9265C93.0198 39.72 93.0945 39.7527 93.1505 39.818C93.2158 39.874 93.2485 39.9487 93.2485 40.042V46.678C93.2485 46.7713 93.2158 46.8507 93.1505 46.916C93.0945 46.972 93.0198 47 92.9265 47H92.2545ZM98.2631 47.14C97.2644 47.14 96.4804 46.86 95.9111 46.3C95.3511 45.7307 95.0524 44.9373 95.0151 43.92L95.0011 43.36L95.0151 42.8C95.0524 41.7827 95.3511 40.994 95.9111 40.434C96.4804 39.8647 97.2644 39.58 98.2631 39.58C98.9351 39.58 99.5044 39.7013 99.9711 39.944C100.438 40.1867 100.783 40.4853 101.007 40.84C101.24 41.1947 101.366 41.5493 101.385 41.904C101.394 41.9973 101.366 42.072 101.301 42.128C101.236 42.184 101.156 42.212 101.063 42.212H100.391C100.298 42.212 100.228 42.1933 100.181 42.156C100.134 42.1187 100.088 42.044 100.041 41.932C99.8824 41.484 99.6584 41.1667 99.3691 40.98C99.0798 40.784 98.7158 40.686 98.2771 40.686C97.6984 40.686 97.2364 40.868 96.8911 41.232C96.5551 41.5867 96.3731 42.1327 96.3451 42.87L96.3311 43.374L96.3451 43.85C96.3731 44.5967 96.5551 45.1473 96.8911 45.502C97.2271 45.8567 97.6891 46.034 98.2771 46.034C98.7158 46.034 99.0798 45.9407 99.3691 45.754C99.6584 45.558 99.8824 45.236 100.041 44.788C100.088 44.676 100.134 44.6013 100.181 44.564C100.228 44.5173 100.298 44.494 100.391 44.494H101.063C101.156 44.494 101.236 44.5267 101.301 44.592C101.366 44.648 101.394 44.7227 101.385 44.816C101.366 45.1613 101.24 45.516 101.007 45.88C100.783 46.2347 100.438 46.5333 99.9711 46.776C99.5138 47.0187 98.9444 47.14 98.2631 47.14ZM103.384 47C103.29 47 103.211 46.972 103.146 46.916C103.09 46.8507 103.062 46.7713 103.062 46.678V37.382C103.062 37.2887 103.09 37.214 103.146 37.158C103.211 37.0927 103.29 37.06 103.384 37.06H104.042C104.135 37.06 104.21 37.0927 104.266 37.158C104.331 37.214 104.364 37.2887 104.364 37.382V42.254L107.122 39.958C107.15 39.9393 107.196 39.902 107.262 39.846C107.327 39.7993 107.388 39.7667 107.444 39.748C107.509 39.7293 107.588 39.72 107.682 39.72H108.424C108.508 39.72 108.578 39.748 108.634 39.804C108.69 39.86 108.718 39.93 108.718 40.014C108.718 40.1167 108.662 40.2053 108.55 40.28L105.316 42.968L108.9 46.454C109.012 46.5473 109.068 46.6313 109.068 46.706C109.068 46.79 109.04 46.86 108.984 46.916C108.928 46.972 108.858 47 108.774 47H108.046C107.906 47 107.803 46.986 107.738 46.958C107.682 46.93 107.598 46.8647 107.486 46.762L104.364 43.78V46.678C104.364 46.7713 104.331 46.8507 104.266 46.916C104.21 46.972 104.135 47 104.042 47H103.384ZM116.081 47.14C115.428 47.14 114.877 47.0373 114.429 46.832C113.991 46.6173 113.659 46.3747 113.435 46.104C113.221 45.8333 113.113 45.6093 113.113 45.432C113.113 45.3387 113.146 45.2687 113.211 45.222C113.286 45.166 113.361 45.138 113.435 45.138H114.065C114.159 45.138 114.243 45.1847 114.317 45.278C114.541 45.5393 114.784 45.7447 115.045 45.894C115.307 46.0433 115.657 46.118 116.095 46.118C116.581 46.118 116.973 46.0247 117.271 45.838C117.579 45.642 117.733 45.376 117.733 45.04C117.733 44.816 117.668 44.634 117.537 44.494C117.416 44.3447 117.201 44.2187 116.893 44.116C116.595 44.004 116.147 43.8827 115.549 43.752C114.737 43.5747 114.159 43.318 113.813 42.982C113.477 42.646 113.309 42.212 113.309 41.68C113.309 41.3253 113.412 40.9893 113.617 40.672C113.832 40.3453 114.14 40.084 114.541 39.888C114.952 39.6827 115.442 39.58 116.011 39.58C116.609 39.58 117.117 39.678 117.537 39.874C117.957 40.07 118.27 40.3033 118.475 40.574C118.69 40.8353 118.797 41.0547 118.797 41.232C118.797 41.316 118.765 41.386 118.699 41.442C118.643 41.498 118.573 41.526 118.489 41.526H117.901C117.789 41.526 117.696 41.4793 117.621 41.386C117.472 41.2087 117.341 41.0733 117.229 40.98C117.127 40.8773 116.973 40.7887 116.767 40.714C116.571 40.6393 116.319 40.602 116.011 40.602C115.563 40.602 115.218 40.7 114.975 40.896C114.733 41.0827 114.611 41.33 114.611 41.638C114.611 41.834 114.663 42.002 114.765 42.142C114.868 42.2727 115.064 42.394 115.353 42.506C115.652 42.618 116.081 42.7347 116.641 42.856C117.528 43.0427 118.153 43.3133 118.517 43.668C118.891 44.0133 119.077 44.4567 119.077 44.998C119.077 45.3993 118.961 45.7633 118.727 46.09C118.494 46.4167 118.149 46.6733 117.691 46.86C117.243 47.0467 116.707 47.14 116.081 47.14ZM123.414 47.14C122.527 47.14 121.841 46.8553 121.356 46.286C120.871 45.7073 120.628 44.942 120.628 43.99V40.042C120.628 39.9487 120.656 39.874 120.712 39.818C120.777 39.7527 120.857 39.72 120.95 39.72H121.65C121.743 39.72 121.818 39.7527 121.874 39.818C121.939 39.874 121.972 39.9487 121.972 40.042V43.92C121.972 45.3107 122.579 46.006 123.792 46.006C124.38 46.006 124.847 45.824 125.192 45.46C125.537 45.0867 125.71 44.5733 125.71 43.92V40.042C125.71 39.9487 125.738 39.874 125.794 39.818C125.859 39.7527 125.939 39.72 126.032 39.72H126.732C126.825 39.72 126.9 39.7527 126.956 39.818C127.012 39.874 127.04 39.9487 127.04 40.042V46.678C127.04 46.7713 127.012 46.8507 126.956 46.916C126.9 46.972 126.825 47 126.732 47H126.074C125.981 47 125.901 46.972 125.836 46.916C125.78 46.8507 125.752 46.7713 125.752 46.678V46.062C125.491 46.4167 125.173 46.6873 124.8 46.874C124.427 47.0513 123.965 47.14 123.414 47.14ZM129.456 49.66C129.363 49.66 129.283 49.6273 129.218 49.562C129.162 49.506 129.134 49.4313 129.134 49.338V40.042C129.134 39.9487 129.162 39.874 129.218 39.818C129.283 39.7527 129.363 39.72 129.456 39.72H130.1C130.193 39.72 130.268 39.7527 130.324 39.818C130.389 39.874 130.422 39.9487 130.422 40.042V40.658C130.945 39.9393 131.71 39.58 132.718 39.58C133.698 39.58 134.431 39.888 134.916 40.504C135.411 41.12 135.677 41.9133 135.714 42.884C135.723 42.9867 135.728 43.1453 135.728 43.36C135.728 43.5747 135.723 43.7333 135.714 43.836C135.677 44.7973 135.411 45.5907 134.916 46.216C134.421 46.832 133.689 47.14 132.718 47.14C131.747 47.14 130.991 46.79 130.45 46.09V49.338C130.45 49.4313 130.422 49.506 130.366 49.562C130.31 49.6273 130.235 49.66 130.142 49.66H129.456ZM132.424 46.006C133.087 46.006 133.567 45.8007 133.866 45.39C134.174 44.9793 134.342 44.438 134.37 43.766C134.379 43.6727 134.384 43.5373 134.384 43.36C134.384 41.596 133.731 40.714 132.424 40.714C131.78 40.714 131.295 40.9287 130.968 41.358C130.651 41.778 130.478 42.282 130.45 42.87L130.436 43.402L130.45 43.948C130.469 44.4987 130.646 44.9793 130.982 45.39C131.318 45.8007 131.799 46.006 132.424 46.006ZM137.796 49.66C137.702 49.66 137.623 49.6273 137.558 49.562C137.502 49.506 137.474 49.4313 137.474 49.338V40.042C137.474 39.9487 137.502 39.874 137.558 39.818C137.623 39.7527 137.702 39.72 137.796 39.72H138.44C138.533 39.72 138.608 39.7527 138.664 39.818C138.729 39.874 138.762 39.9487 138.762 40.042V40.658C139.284 39.9393 140.05 39.58 141.058 39.58C142.038 39.58 142.77 39.888 143.256 40.504C143.75 41.12 144.016 41.9133 144.054 42.884C144.063 42.9867 144.068 43.1453 144.068 43.36C144.068 43.5747 144.063 43.7333 144.054 43.836C144.016 44.7973 143.75 45.5907 143.256 46.216C142.761 46.832 142.028 47.14 141.058 47.14C140.087 47.14 139.331 46.79 138.79 46.09V49.338C138.79 49.4313 138.762 49.506 138.706 49.562C138.65 49.6273 138.575 49.66 138.482 49.66H137.796ZM140.764 46.006C141.426 46.006 141.907 45.8007 142.206 45.39C142.514 44.9793 142.682 44.438 142.71 43.766C142.719 43.6727 142.724 43.5373 142.724 43.36C142.724 41.596 142.07 40.714 140.764 40.714C140.12 40.714 139.634 40.9287 139.308 41.358C138.99 41.778 138.818 42.282 138.79 42.87L138.776 43.402L138.79 43.948C138.808 44.4987 138.986 44.9793 139.322 45.39C139.658 45.8007 140.138 46.006 140.764 46.006ZM148.782 47.14C147.755 47.14 146.957 46.8507 146.388 46.272C145.828 45.6933 145.529 44.9233 145.492 43.962L145.478 43.36L145.492 42.758C145.529 41.806 145.832 41.0407 146.402 40.462C146.971 39.874 147.764 39.58 148.782 39.58C149.799 39.58 150.592 39.874 151.162 40.462C151.731 41.0407 152.034 41.806 152.072 42.758C152.081 42.8607 152.086 43.0613 152.086 43.36C152.086 43.6587 152.081 43.8593 152.072 43.962C152.034 44.9233 151.731 45.6933 151.162 46.272C150.602 46.8507 149.808 47.14 148.782 47.14ZM148.782 46.062C149.37 46.062 149.832 45.8753 150.168 45.502C150.513 45.1287 150.7 44.592 150.728 43.892C150.737 43.7987 150.742 43.6213 150.742 43.36C150.742 43.0987 150.737 42.9213 150.728 42.828C150.7 42.128 150.513 41.5913 150.168 41.218C149.832 40.8447 149.37 40.658 148.782 40.658C148.194 40.658 147.727 40.8447 147.382 41.218C147.036 41.5913 146.854 42.128 146.836 42.828L146.822 43.36L146.836 43.892C146.854 44.592 147.036 45.1287 147.382 45.502C147.727 45.8753 148.194 46.062 148.782 46.062ZM154.161 47C154.067 47 153.988 46.972 153.923 46.916C153.867 46.8507 153.839 46.7713 153.839 46.678V40.056C153.839 39.9627 153.867 39.8833 153.923 39.818C153.988 39.7527 154.067 39.72 154.161 39.72H154.805C154.898 39.72 154.977 39.7527 155.043 39.818C155.108 39.8833 155.141 39.9627 155.141 40.056V40.672C155.523 40.0373 156.177 39.72 157.101 39.72H157.647C157.74 39.72 157.815 39.7527 157.871 39.818C157.936 39.874 157.969 39.9487 157.969 40.042V40.616C157.969 40.7093 157.936 40.784 157.871 40.84C157.815 40.896 157.74 40.924 157.647 40.924H156.807C156.303 40.924 155.906 41.0733 155.617 41.372C155.327 41.6613 155.183 42.058 155.183 42.562V46.678C155.183 46.7713 155.15 46.8507 155.085 46.916C155.019 46.972 154.94 47 154.847 47H154.161ZM161.999 47C160.524 47 159.787 46.1787 159.787 44.536V40.84H158.695C158.602 40.84 158.522 40.812 158.457 40.756C158.401 40.6907 158.373 40.6113 158.373 40.518V40.042C158.373 39.9487 158.401 39.874 158.457 39.818C158.522 39.7527 158.602 39.72 158.695 39.72H159.787V37.382C159.787 37.2887 159.815 37.214 159.871 37.158C159.936 37.0927 160.016 37.06 160.109 37.06H160.767C160.86 37.06 160.935 37.0927 160.991 37.158C161.056 37.214 161.089 37.2887 161.089 37.382V39.72H162.825C162.918 39.72 162.993 39.7527 163.049 39.818C163.114 39.874 163.147 39.9487 163.147 40.042V40.518C163.147 40.6113 163.114 40.6907 163.049 40.756C162.993 40.812 162.918 40.84 162.825 40.84H161.089V44.438C161.089 44.9047 161.168 45.2593 161.327 45.502C161.486 45.7353 161.747 45.852 162.111 45.852H162.965C163.058 45.852 163.133 45.8847 163.189 45.95C163.254 46.006 163.287 46.0807 163.287 46.174V46.678C163.287 46.7713 163.254 46.8507 163.189 46.916C163.133 46.972 163.058 47 162.965 47H161.999Z" fill="#515151" fill-opacity="0.71"/>
<path d="M49.9608 23.9752H49.8172V20.4579C49.8172 9.15933 40.658 0 29.3593 0C18.0606 0 8.90141 9.15933 8.90141 20.4579V23.9752H8.04008C4.88163 23.9752 2.44108 26.7747 2.44108 30.005V38.9777C2.36152 42.1086 4.83519 44.7111 7.96602 44.7907C7.99075 44.7913 8.01535 44.7918 8.04008 44.792H13.3519C14.1043 44.7567 14.6856 44.118 14.6502 43.3656C14.6489 43.3385 14.6469 43.3115 14.644 43.2845V25.6979C14.644 24.8366 14.1415 23.9751 13.3519 23.9751H11.7727V20.4578C11.7727 10.745 19.6466 2.87115 29.3593 2.87115C39.0721 2.87115 46.946 10.745 46.946 20.4578V23.9751H45.3667C44.5771 23.9751 44.0747 24.8364 44.0747 25.6979V43.2845C43.9946 44.0335 44.5367 44.7056 45.2857 44.7857C45.3126 44.7886 45.3397 44.7907 45.3667 44.7919H47.0177L46.8741 45.0072C44.7201 47.8698 41.3402 49.5465 37.7578 49.5294C36.9735 45.6839 33.2201 43.2021 29.3746 43.9865C26.086 44.6571 23.715 47.5372 23.6885 50.8934C23.7278 54.8297 26.9302 58 30.8667 57.9997C32.8154 57.9681 34.6728 57.1685 36.035 55.7745C36.954 54.8333 37.5562 53.6288 37.7578 52.3289C42.244 52.3459 46.4748 50.2437 49.1711 46.6581L50.535 44.6482C53.6216 44.4329 55.5597 42.4948 55.5597 39.6952V30.7225C55.5598 27.6361 53.2628 23.9752 49.9608 23.9752ZM11.7727 41.9207H8.04008C6.49438 41.8831 5.27183 40.5997 5.30948 39.054C5.31017 39.0286 5.31113 39.0031 5.31237 38.9776V30.0048C5.31237 28.3539 6.46086 26.8464 8.04008 26.8464H11.7727V41.9207V41.9207ZM33.9534 53.7648C33.1579 54.6274 32.0402 55.1213 30.8668 55.1287C28.5314 55.0916 26.6361 53.228 26.5599 50.8935C26.5589 48.5545 28.4543 46.6576 30.7933 46.6566C33.1323 46.6557 35.0292 48.551 35.0302 50.8901C35.0302 50.8912 35.0302 50.8924 35.0302 50.8935C35.09 51.9593 34.6992 53.0011 33.9534 53.7648ZM52.6885 39.6955C52.6885 41.6336 50.8222 41.9207 49.9608 41.9207H46.946V26.8465H49.9608C51.54 26.8465 52.6885 29.0718 52.6885 30.7227V39.6955Z" fill="#7AC751"/>
</svg>
