<svg width="206" height="58" viewBox="0 0 206 58" fill="none" xmlns="http://www.w3.org/2000/svg">
<path d="M75.04 24C74.9067 24 74.7933 23.9533 74.7 23.86C74.6067 23.7667 74.56 23.6533 74.56 23.52V10.5C74.56 10.3533 74.6 10.2333 74.68 10.14C74.7733 10.0467 74.8933 10 75.04 10H83.72C83.8667 10 83.9867 10.0467 84.08 10.14C84.1733 10.2333 84.22 10.3533 84.22 10.5V11.9C84.22 12.0467 84.1733 12.1667 84.08 12.26C83.9867 12.34 83.8667 12.38 83.72 12.38H77.3V16.18H83.32C83.4667 16.18 83.5867 16.2267 83.68 16.32C83.7733 16.4133 83.82 16.5333 83.82 16.68V18.08C83.82 18.2267 83.7733 18.3467 83.68 18.44C83.5867 18.52 83.4667 18.56 83.32 18.56H77.3V23.52C77.3 23.6667 77.2533 23.7867 77.16 23.88C77.0667 23.96 76.9467 24 76.8 24H75.04ZM86.5773 24C86.444 24 86.3307 23.9533 86.2373 23.86C86.144 23.7667 86.0973 23.6533 86.0973 23.52V14.1C86.0973 13.9667 86.144 13.8533 86.2373 13.76C86.3307 13.6533 86.444 13.6 86.5773 13.6H88.1973C88.344 13.6 88.464 13.6467 88.5573 13.74C88.6507 13.8333 88.6973 13.9533 88.6973 14.1V14.92C89.0173 14.4933 89.4173 14.1667 89.8973 13.94C90.3907 13.7133 90.9507 13.6 91.5773 13.6H92.3973C92.544 13.6 92.6573 13.6467 92.7373 13.74C92.8307 13.82 92.8773 13.9333 92.8773 14.08V15.52C92.8773 15.6533 92.8307 15.7667 92.7373 15.86C92.6573 15.9533 92.544 16 92.3973 16H90.8373C90.2107 16 89.7173 16.18 89.3573 16.54C88.9973 16.9 88.8173 17.3933 88.8173 18.02V23.52C88.8173 23.6533 88.7707 23.7667 88.6773 23.86C88.584 23.9533 88.464 24 88.3173 24H86.5773ZM98.7805 24.2C97.3005 24.2 96.1205 23.7733 95.2405 22.92C94.3738 22.0533 93.9138 20.84 93.8605 19.28L93.8405 18.78L93.8605 18.28C93.9271 16.76 94.3938 15.5667 95.2605 14.7C96.1405 13.8333 97.3138 13.4 98.7805 13.4C100.354 13.4 101.567 13.88 102.42 14.84C103.287 15.8 103.72 17.08 103.72 18.68V19.1C103.72 19.2333 103.674 19.3467 103.58 19.44C103.487 19.5333 103.367 19.58 103.22 19.58H96.5805V19.74C96.6071 20.4733 96.8071 21.0933 97.1805 21.6C97.5671 22.0933 98.0938 22.34 98.7605 22.34C99.5471 22.34 100.18 22.0333 100.66 21.42C100.78 21.2733 100.874 21.18 100.94 21.14C101.02 21.1 101.134 21.08 101.28 21.08H103C103.12 21.08 103.22 21.12 103.3 21.2C103.394 21.2667 103.44 21.3533 103.44 21.46C103.44 21.78 103.247 22.16 102.86 22.6C102.487 23.0267 101.947 23.4 101.24 23.72C100.534 24.04 99.7138 24.2 98.7805 24.2ZM101 17.9V17.84C101 17.0533 100.8 16.42 100.4 15.94C100.014 15.46 99.4738 15.22 98.7805 15.22C98.0871 15.22 97.5471 15.46 97.1605 15.94C96.7738 16.42 96.5805 17.0533 96.5805 17.84V17.9H101ZM110.323 24.2C108.843 24.2 107.663 23.7733 106.783 22.92C105.917 22.0533 105.457 20.84 105.403 19.28L105.383 18.78L105.403 18.28C105.47 16.76 105.937 15.5667 106.803 14.7C107.683 13.8333 108.857 13.4 110.323 13.4C111.897 13.4 113.11 13.88 113.963 14.84C114.83 15.8 115.263 17.08 115.263 18.68V19.1C115.263 19.2333 115.217 19.3467 115.123 19.44C115.03 19.5333 114.91 19.58 114.763 19.58H108.123V19.74C108.15 20.4733 108.35 21.0933 108.723 21.6C109.11 22.0933 109.637 22.34 110.303 22.34C111.09 22.34 111.723 22.0333 112.203 21.42C112.323 21.2733 112.417 21.18 112.483 21.14C112.563 21.1 112.677 21.08 112.823 21.08H114.543C114.663 21.08 114.763 21.12 114.843 21.2C114.937 21.2667 114.983 21.3533 114.983 21.46C114.983 21.78 114.79 22.16 114.403 22.6C114.03 23.0267 113.49 23.4 112.783 23.72C112.077 24.04 111.257 24.2 110.323 24.2ZM112.543 17.9V17.84C112.543 17.0533 112.343 16.42 111.943 15.94C111.557 15.46 111.017 15.22 110.323 15.22C109.63 15.22 109.09 15.46 108.703 15.94C108.317 16.42 108.123 17.0533 108.123 17.84V17.9H112.543ZM127.057 24.2C125.87 24.2 124.85 24.02 123.997 23.66C123.143 23.3 122.497 22.8267 122.057 22.24C121.617 21.6533 121.383 21.02 121.357 20.34C121.357 20.22 121.397 20.12 121.477 20.04C121.557 19.96 121.657 19.92 121.777 19.92H123.557C123.717 19.92 123.837 19.9533 123.917 20.02C124.01 20.0733 124.097 20.1667 124.177 20.3C124.31 20.7533 124.617 21.1333 125.097 21.44C125.577 21.7467 126.23 21.9 127.057 21.9C128.003 21.9 128.717 21.7467 129.197 21.44C129.677 21.12 129.917 20.68 129.917 20.12C129.917 19.7467 129.79 19.44 129.537 19.2C129.297 18.96 128.93 18.7533 128.437 18.58C127.957 18.4067 127.237 18.1933 126.277 17.94C124.703 17.5667 123.55 17.0733 122.817 16.46C122.097 15.8333 121.737 14.9467 121.737 13.8C121.737 13.0267 121.943 12.34 122.357 11.74C122.783 11.14 123.39 10.6667 124.177 10.32C124.977 9.97333 125.903 9.8 126.957 9.8C128.05 9.8 128.997 9.99333 129.797 10.38C130.597 10.7667 131.203 11.2533 131.617 11.84C132.043 12.4133 132.27 12.9867 132.297 13.56C132.297 13.68 132.257 13.78 132.177 13.86C132.097 13.94 131.997 13.98 131.877 13.98H130.017C129.737 13.98 129.543 13.8533 129.437 13.6C129.357 13.1733 129.09 12.82 128.637 12.54C128.183 12.2467 127.623 12.1 126.957 12.1C126.21 12.1 125.623 12.24 125.197 12.52C124.77 12.8 124.557 13.2067 124.557 13.74C124.557 14.1133 124.663 14.42 124.877 14.66C125.09 14.9 125.423 15.1133 125.877 15.3C126.343 15.4867 127.01 15.6933 127.877 15.92C129.05 16.1867 129.983 16.4867 130.677 16.82C131.383 17.1533 131.903 17.5733 132.237 18.08C132.57 18.5867 132.737 19.2333 132.737 20.02C132.737 20.8733 132.497 21.62 132.017 22.26C131.55 22.8867 130.883 23.3667 130.017 23.7C129.163 24.0333 128.177 24.2 127.057 24.2ZM135.289 24C135.155 24 135.042 23.9533 134.949 23.86C134.855 23.7667 134.809 23.6533 134.809 23.52V10.28C134.809 10.1333 134.855 10.02 134.949 9.94C135.042 9.84667 135.155 9.8 135.289 9.8H137.069C137.215 9.8 137.329 9.84667 137.409 9.94C137.502 10.02 137.549 10.1333 137.549 10.28V14.84C138.349 13.88 139.429 13.4 140.789 13.4C142.015 13.4 142.995 13.8067 143.729 14.62C144.462 15.42 144.829 16.5133 144.829 17.9V23.52C144.829 23.6533 144.782 23.7667 144.689 23.86C144.609 23.9533 144.495 24 144.349 24H142.549C142.415 24 142.302 23.9533 142.209 23.86C142.115 23.7667 142.069 23.6533 142.069 23.52V18.02C142.069 17.2333 141.875 16.6267 141.489 16.2C141.115 15.76 140.569 15.54 139.849 15.54C139.142 15.54 138.582 15.76 138.169 16.2C137.755 16.64 137.549 17.2467 137.549 18.02V23.52C137.549 23.6533 137.502 23.7667 137.409 23.86C137.329 23.9533 137.215 24 137.069 24H135.289ZM147.767 11.88C147.634 11.88 147.52 11.8333 147.427 11.74C147.334 11.6467 147.287 11.5333 147.287 11.4V9.96C147.287 9.82667 147.334 9.71333 147.427 9.62C147.52 9.52667 147.634 9.48 147.767 9.48H149.587C149.72 9.48 149.834 9.52667 149.927 9.62C150.034 9.71333 150.087 9.82667 150.087 9.96V11.4C150.087 11.5333 150.04 11.6467 149.947 11.74C149.854 11.8333 149.734 11.88 149.587 11.88H147.767ZM147.847 24C147.714 24 147.6 23.9533 147.507 23.86C147.414 23.7667 147.367 23.6533 147.367 23.52V14.08C147.367 13.9467 147.414 13.8333 147.507 13.74C147.6 13.6467 147.714 13.6 147.847 13.6H149.507C149.654 13.6 149.767 13.6467 149.847 13.74C149.94 13.82 149.987 13.9333 149.987 14.08V23.52C149.987 23.6533 149.94 23.7667 149.847 23.86C149.767 23.9533 149.654 24 149.507 24H147.847ZM153.14 27.8C153.007 27.8 152.894 27.7533 152.8 27.66C152.707 27.58 152.66 27.4667 152.66 27.32V14.08C152.66 13.9333 152.707 13.82 152.8 13.74C152.894 13.6467 153.007 13.6 153.14 13.6H154.72C154.867 13.6 154.98 13.6467 155.06 13.74C155.154 13.82 155.2 13.9333 155.2 14.08V14.88C155.947 13.8933 157.014 13.4 158.4 13.4C159.747 13.4 160.78 13.8267 161.5 14.68C162.22 15.52 162.607 16.66 162.66 18.1C162.674 18.26 162.68 18.4933 162.68 18.8C162.68 19.12 162.674 19.36 162.66 19.52C162.607 20.92 162.22 22.0533 161.5 22.92C160.78 23.7733 159.747 24.2 158.4 24.2C157.054 24.2 156.027 23.7267 155.32 22.78V27.32C155.32 27.4667 155.274 27.58 155.18 27.66C155.1 27.7533 154.987 27.8 154.84 27.8H153.14ZM157.66 22.06C159.1 22.06 159.867 21.1733 159.96 19.4C159.974 19.2667 159.98 19.0667 159.98 18.8C159.98 18.5333 159.974 18.3333 159.96 18.2C159.867 16.4267 159.1 15.54 157.66 15.54C156.887 15.54 156.314 15.7867 155.94 16.28C155.567 16.7733 155.36 17.38 155.32 18.1L155.3 18.86L155.32 19.64C155.347 20.3067 155.554 20.88 155.94 21.36C156.34 21.8267 156.914 22.06 157.66 22.06ZM165.425 27.8C165.292 27.8 165.179 27.7533 165.085 27.66C164.992 27.58 164.945 27.4667 164.945 27.32V14.08C164.945 13.9333 164.992 13.82 165.085 13.74C165.179 13.6467 165.292 13.6 165.425 13.6H167.005C167.152 13.6 167.265 13.6467 167.345 13.74C167.439 13.82 167.485 13.9333 167.485 14.08V14.88C168.232 13.8933 169.299 13.4 170.685 13.4C172.032 13.4 173.065 13.8267 173.785 14.68C174.505 15.52 174.892 16.66 174.945 18.1C174.959 18.26 174.965 18.4933 174.965 18.8C174.965 19.12 174.959 19.36 174.945 19.52C174.892 20.92 174.505 22.0533 173.785 22.92C173.065 23.7733 172.032 24.2 170.685 24.2C169.339 24.2 168.312 23.7267 167.605 22.78V27.32C167.605 27.4667 167.559 27.58 167.465 27.66C167.385 27.7533 167.272 27.8 167.125 27.8H165.425ZM169.945 22.06C171.385 22.06 172.152 21.1733 172.245 19.4C172.259 19.2667 172.265 19.0667 172.265 18.8C172.265 18.5333 172.259 18.3333 172.245 18.2C172.152 16.4267 171.385 15.54 169.945 15.54C169.172 15.54 168.599 15.7867 168.225 16.28C167.852 16.7733 167.645 17.38 167.605 18.1L167.585 18.86L167.605 19.64C167.632 20.3067 167.839 20.88 168.225 21.36C168.625 21.8267 169.199 22.06 169.945 22.06ZM177.611 11.88C177.477 11.88 177.364 11.8333 177.271 11.74C177.177 11.6467 177.131 11.5333 177.131 11.4V9.96C177.131 9.82667 177.177 9.71333 177.271 9.62C177.364 9.52667 177.477 9.48 177.611 9.48H179.431C179.564 9.48 179.677 9.52667 179.771 9.62C179.877 9.71333 179.931 9.82667 179.931 9.96V11.4C179.931 11.5333 179.884 11.6467 179.791 11.74C179.697 11.8333 179.577 11.88 179.431 11.88H177.611ZM177.691 24C177.557 24 177.444 23.9533 177.351 23.86C177.257 23.7667 177.211 23.6533 177.211 23.52V14.08C177.211 13.9467 177.257 13.8333 177.351 13.74C177.444 13.6467 177.557 13.6 177.691 13.6H179.351C179.497 13.6 179.611 13.6467 179.691 13.74C179.784 13.82 179.831 13.9333 179.831 14.08V23.52C179.831 23.6533 179.784 23.7667 179.691 23.86C179.611 23.9533 179.497 24 179.351 24H177.691ZM182.964 24C182.831 24 182.717 23.9533 182.624 23.86C182.531 23.7667 182.484 23.6533 182.484 23.52V14.08C182.484 13.9467 182.531 13.8333 182.624 13.74C182.717 13.6467 182.831 13.6 182.964 13.6H184.604C184.737 13.6 184.851 13.6467 184.944 13.74C185.037 13.8333 185.084 13.9467 185.084 14.08V14.9C185.871 13.9 186.984 13.4 188.424 13.4C189.651 13.4 190.624 13.8067 191.344 14.62C192.064 15.42 192.424 16.5133 192.424 17.9V23.52C192.424 23.6533 192.377 23.7667 192.284 23.86C192.204 23.9533 192.091 24 191.944 24H190.184C190.051 24 189.937 23.9533 189.844 23.86C189.751 23.7667 189.704 23.6533 189.704 23.52V18.02C189.704 17.2333 189.511 16.6267 189.124 16.2C188.751 15.76 188.204 15.54 187.484 15.54C186.777 15.54 186.217 15.76 185.804 16.2C185.404 16.64 185.204 17.2467 185.204 18.02V23.52C185.204 23.6533 185.157 23.7667 185.064 23.86C184.984 23.9533 184.871 24 184.724 24H182.964ZM199.665 28.4C198.478 28.4 197.518 28.2 196.785 27.8C196.051 27.4133 195.531 26.9667 195.225 26.46C194.918 25.9533 194.765 25.52 194.765 25.16C194.765 25.04 194.811 24.9333 194.905 24.84C195.011 24.7467 195.125 24.7 195.245 24.7H196.985C197.105 24.7 197.205 24.7267 197.285 24.78C197.378 24.8467 197.451 24.96 197.505 25.12C197.638 25.48 197.851 25.78 198.145 26.02C198.451 26.2733 198.925 26.4 199.565 26.4C200.365 26.4 200.951 26.22 201.325 25.86C201.711 25.5 201.905 24.88 201.905 24V22.64C201.171 23.5067 200.145 23.94 198.825 23.94C197.438 23.94 196.391 23.5133 195.685 22.66C194.991 21.8067 194.618 20.66 194.565 19.22L194.545 18.68L194.565 18.14C194.618 16.7267 194.998 15.5867 195.705 14.72C196.411 13.84 197.451 13.4 198.825 13.4C199.531 13.4 200.151 13.5333 200.685 13.8C201.218 14.0667 201.665 14.4333 202.025 14.9V14.1C202.025 13.9533 202.071 13.8333 202.165 13.74C202.258 13.6467 202.371 13.6 202.505 13.6H204.125C204.258 13.6 204.371 13.6533 204.465 13.76C204.558 13.8533 204.605 13.9667 204.605 14.1L204.625 23.74C204.625 25.22 204.211 26.3667 203.385 27.18C202.558 27.9933 201.318 28.4 199.665 28.4ZM199.565 21.82C200.325 21.82 200.891 21.58 201.265 21.1C201.651 20.62 201.865 20.0333 201.905 19.34C201.918 19.2333 201.925 19.0133 201.925 18.68C201.925 18.36 201.918 18.1467 201.905 18.04C201.865 17.3333 201.651 16.74 201.265 16.26C200.891 15.78 200.325 15.54 199.565 15.54C198.125 15.54 197.365 16.4267 197.285 18.2L197.265 18.68C197.265 19.6267 197.431 20.3867 197.765 20.96C198.111 21.5333 198.711 21.82 199.565 21.82Z" fill="#555555"/>
<path d="M77.732 47.14C76.9387 47.14 76.2573 47.0047 75.688 46.734C75.1187 46.454 74.68 46.0293 74.372 45.46C74.064 44.8813 73.8913 44.158 73.854 43.29C73.8447 42.8793 73.84 42.4873 73.84 42.114C73.84 41.7313 73.8447 41.3347 73.854 40.924C73.8913 40.0653 74.0687 39.3513 74.386 38.782C74.7127 38.2033 75.1607 37.774 75.73 37.494C76.3087 37.2047 76.976 37.06 77.732 37.06C78.4973 37.06 79.1647 37.2047 79.734 37.494C80.3127 37.774 80.7653 38.2033 81.092 38.782C81.4187 39.3513 81.596 40.0653 81.624 40.924C81.6427 41.3347 81.652 41.7313 81.652 42.114C81.652 42.4873 81.6427 42.8793 81.624 43.29C81.596 44.158 81.4233 44.8813 81.106 45.46C80.798 46.0293 80.3593 46.454 79.79 46.734C79.2207 47.0047 78.5347 47.14 77.732 47.14ZM77.732 45.95C78.4507 45.95 79.034 45.7353 79.482 45.306C79.9393 44.8767 80.1867 44.1813 80.224 43.22C80.2427 42.8 80.252 42.4267 80.252 42.1C80.252 41.764 80.2427 41.3907 80.224 40.98C80.2053 40.336 80.084 39.8133 79.86 39.412C79.6453 39.0107 79.356 38.7167 78.992 38.53C78.628 38.3433 78.208 38.25 77.732 38.25C77.2747 38.25 76.864 38.3433 76.5 38.53C76.136 38.7167 75.842 39.0107 75.618 39.412C75.4033 39.8133 75.282 40.336 75.254 40.98C75.2447 41.3907 75.24 41.764 75.24 42.1C75.24 42.4267 75.2447 42.8 75.254 43.22C75.2913 44.1813 75.5387 44.8767 75.996 45.306C76.4533 45.7353 77.032 45.95 77.732 45.95ZM83.8326 47C83.7393 47 83.6599 46.972 83.5946 46.916C83.5386 46.8507 83.5106 46.7713 83.5106 46.678V40.056C83.5106 39.9627 83.5386 39.8833 83.5946 39.818C83.6599 39.7527 83.7393 39.72 83.8326 39.72H84.4766C84.5699 39.72 84.6493 39.7527 84.7146 39.818C84.7799 39.8833 84.8126 39.9627 84.8126 40.056V40.672C84.9993 40.3547 85.2559 40.1167 85.5826 39.958C85.9093 39.7993 86.3013 39.72 86.7586 39.72H87.3186C87.4119 39.72 87.4866 39.7527 87.5426 39.818C87.5986 39.874 87.6266 39.9487 87.6266 40.042V40.616C87.6266 40.7093 87.5986 40.784 87.5426 40.84C87.4866 40.896 87.4119 40.924 87.3186 40.924H86.4786C85.9746 40.924 85.5779 41.0733 85.2886 41.372C84.9993 41.6613 84.8546 42.058 84.8546 42.562V46.678C84.8546 46.7713 84.8219 46.8507 84.7566 46.916C84.6913 46.972 84.6119 47 84.5186 47H83.8326ZM91.3386 47.14C90.8252 47.14 90.3819 47.0513 90.0086 46.874C89.6352 46.6873 89.3272 46.44 89.0846 46.132C88.8512 45.8147 88.6739 45.4553 88.5526 45.054C88.4406 44.6527 88.3752 44.228 88.3566 43.78C88.3472 43.6307 88.3426 43.4907 88.3426 43.36C88.3426 43.2293 88.3472 43.0893 88.3566 42.94C88.3752 42.5013 88.4406 42.0813 88.5526 41.68C88.6739 41.2787 88.8512 40.9193 89.0846 40.602C89.3272 40.2847 89.6352 40.0373 90.0086 39.86C90.3819 39.6733 90.8252 39.58 91.3386 39.58C91.8892 39.58 92.3466 39.678 92.7106 39.874C93.0746 40.07 93.3732 40.3127 93.6066 40.602V37.382C93.6066 37.2887 93.6346 37.214 93.6906 37.158C93.7559 37.0927 93.8352 37.06 93.9286 37.06H94.6006C94.6939 37.06 94.7686 37.0927 94.8246 37.158C94.8899 37.214 94.9226 37.2887 94.9226 37.382V46.678C94.9226 46.7713 94.8899 46.8507 94.8246 46.916C94.7686 46.972 94.6939 47 94.6006 47H93.9706C93.8679 47 93.7886 46.972 93.7326 46.916C93.6766 46.8507 93.6486 46.7713 93.6486 46.678V46.09C93.4152 46.3887 93.1119 46.6407 92.7386 46.846C92.3652 47.042 91.8986 47.14 91.3386 47.14ZM91.6326 46.006C92.0992 46.006 92.4726 45.8987 92.7526 45.684C93.0326 45.4693 93.2426 45.1987 93.3826 44.872C93.5226 44.536 93.5972 44.1953 93.6066 43.85C93.6159 43.7007 93.6206 43.5233 93.6206 43.318C93.6206 43.1033 93.6159 42.9213 93.6066 42.772C93.5972 42.4453 93.5179 42.1233 93.3686 41.806C93.2286 41.4887 93.0139 41.2273 92.7246 41.022C92.4446 40.8167 92.0806 40.714 91.6326 40.714C91.1566 40.714 90.7786 40.8213 90.4986 41.036C90.2186 41.2413 90.0179 41.5167 89.8966 41.862C89.7752 42.198 89.7052 42.562 89.6866 42.954C89.6772 43.2247 89.6772 43.4953 89.6866 43.766C89.7052 44.158 89.7752 44.5267 89.8966 44.872C90.0179 45.208 90.2186 45.4833 90.4986 45.698C90.7786 45.9033 91.1566 46.006 91.6326 46.006ZM99.9028 47.14C98.9414 47.14 98.1761 46.846 97.6068 46.258C97.0374 45.6607 96.7248 44.8487 96.6688 43.822C96.6594 43.7007 96.6548 43.5467 96.6548 43.36C96.6548 43.164 96.6594 43.0053 96.6688 42.884C96.7061 42.2213 96.8601 41.6427 97.1308 41.148C97.4014 40.644 97.7701 40.2567 98.2368 39.986C98.7128 39.7153 99.2681 39.58 99.9028 39.58C100.612 39.58 101.205 39.7293 101.681 40.028C102.166 40.3267 102.535 40.7513 102.787 41.302C103.039 41.8527 103.165 42.4967 103.165 43.234V43.472C103.165 43.5747 103.132 43.654 103.067 43.71C103.011 43.766 102.936 43.794 102.843 43.794H97.9988C97.9988 43.8033 97.9988 43.822 97.9988 43.85C97.9988 43.878 97.9988 43.9013 97.9988 43.92C98.0174 44.3027 98.1014 44.662 98.2508 44.998C98.4001 45.3247 98.6148 45.5907 98.8948 45.796C99.1748 46.0013 99.5108 46.104 99.9028 46.104C100.239 46.104 100.519 46.0527 100.743 45.95C100.967 45.8473 101.149 45.7353 101.289 45.614C101.429 45.4833 101.522 45.3853 101.569 45.32C101.653 45.1987 101.718 45.1287 101.765 45.11C101.811 45.082 101.886 45.068 101.989 45.068H102.661C102.754 45.068 102.829 45.096 102.885 45.152C102.95 45.1987 102.978 45.2687 102.969 45.362C102.959 45.502 102.885 45.6747 102.745 45.88C102.605 46.076 102.404 46.272 102.143 46.468C101.881 46.664 101.564 46.8273 101.191 46.958C100.817 47.0793 100.388 47.14 99.9028 47.14ZM97.9988 42.828H101.835V42.786C101.835 42.366 101.755 41.9927 101.597 41.666C101.447 41.3393 101.228 41.0827 100.939 40.896C100.649 40.7 100.304 40.602 99.9028 40.602C99.5014 40.602 99.1561 40.7 98.8668 40.896C98.5868 41.0827 98.3721 41.3393 98.2228 41.666C98.0734 41.9927 97.9988 42.366 97.9988 42.786V42.828ZM105.161 47C105.067 47 104.988 46.972 104.923 46.916C104.867 46.8507 104.839 46.7713 104.839 46.678V40.056C104.839 39.9627 104.867 39.8833 104.923 39.818C104.988 39.7527 105.067 39.72 105.161 39.72H105.805C105.898 39.72 105.977 39.7527 106.043 39.818C106.108 39.8833 106.141 39.9627 106.141 40.056V40.672C106.327 40.3547 106.584 40.1167 106.911 39.958C107.237 39.7993 107.629 39.72 108.087 39.72H108.647C108.74 39.72 108.815 39.7527 108.871 39.818C108.927 39.874 108.955 39.9487 108.955 40.042V40.616C108.955 40.7093 108.927 40.784 108.871 40.84C108.815 40.896 108.74 40.924 108.647 40.924H107.807C107.303 40.924 106.906 41.0733 106.617 41.372C106.327 41.6613 106.183 42.058 106.183 42.562V46.678C106.183 46.7713 106.15 46.8507 106.085 46.916C106.019 46.972 105.94 47 105.847 47H105.161ZM112.677 47.14C112.154 47.14 111.706 47.0747 111.333 46.944C110.96 46.8133 110.656 46.6547 110.423 46.468C110.19 46.2813 110.012 46.0947 109.891 45.908C109.779 45.7213 109.718 45.572 109.709 45.46C109.7 45.3573 109.732 45.278 109.807 45.222C109.882 45.166 109.956 45.138 110.031 45.138H110.647C110.703 45.138 110.745 45.1473 110.773 45.166C110.81 45.1753 110.857 45.2127 110.913 45.278C111.034 45.4087 111.17 45.5393 111.319 45.67C111.468 45.8007 111.65 45.908 111.865 45.992C112.089 46.076 112.364 46.118 112.691 46.118C113.167 46.118 113.559 46.0293 113.867 45.852C114.175 45.6653 114.329 45.3947 114.329 45.04C114.329 44.8067 114.264 44.62 114.133 44.48C114.012 44.34 113.788 44.214 113.461 44.102C113.144 43.99 112.705 43.8733 112.145 43.752C111.585 43.6213 111.142 43.4627 110.815 43.276C110.488 43.08 110.255 42.8513 110.115 42.59C109.975 42.3193 109.905 42.016 109.905 41.68C109.905 41.3347 110.008 41.0033 110.213 40.686C110.418 40.3593 110.717 40.0933 111.109 39.888C111.51 39.6827 112.01 39.58 112.607 39.58C113.092 39.58 113.508 39.6407 113.853 39.762C114.198 39.8833 114.483 40.0373 114.707 40.224C114.931 40.4013 115.099 40.5787 115.211 40.756C115.323 40.9333 115.384 41.0827 115.393 41.204C115.402 41.2973 115.374 41.3767 115.309 41.442C115.244 41.498 115.169 41.526 115.085 41.526H114.497C114.432 41.526 114.376 41.512 114.329 41.484C114.292 41.456 114.254 41.4233 114.217 41.386C114.124 41.2647 114.012 41.1433 113.881 41.022C113.76 40.9007 113.596 40.8027 113.391 40.728C113.195 40.644 112.934 40.602 112.607 40.602C112.14 40.602 111.79 40.7 111.557 40.896C111.324 41.092 111.207 41.3393 111.207 41.638C111.207 41.8153 111.258 41.974 111.361 42.114C111.464 42.254 111.66 42.38 111.949 42.492C112.238 42.604 112.668 42.7253 113.237 42.856C113.853 42.9773 114.338 43.1407 114.693 43.346C115.048 43.5513 115.3 43.7893 115.449 44.06C115.598 44.3307 115.673 44.6433 115.673 44.998C115.673 45.39 115.556 45.7493 115.323 46.076C115.099 46.4027 114.763 46.664 114.315 46.86C113.876 47.0467 113.33 47.14 112.677 47.14ZM123.707 47.14C122.998 47.14 122.405 47.0047 121.929 46.734C121.453 46.4633 121.089 46.09 120.837 45.614C120.585 45.1287 120.445 44.578 120.417 43.962C120.408 43.8033 120.403 43.6027 120.403 43.36C120.403 43.108 120.408 42.9073 120.417 42.758C120.445 42.1327 120.585 41.582 120.837 41.106C121.099 40.63 121.467 40.2567 121.943 39.986C122.419 39.7153 123.007 39.58 123.707 39.58C124.407 39.58 124.995 39.7153 125.471 39.986C125.947 40.2567 126.311 40.63 126.563 41.106C126.825 41.582 126.969 42.1327 126.997 42.758C127.007 42.9073 127.011 43.108 127.011 43.36C127.011 43.6027 127.007 43.8033 126.997 43.962C126.969 44.578 126.829 45.1287 126.577 45.614C126.325 46.09 125.961 46.4633 125.485 46.734C125.009 47.0047 124.417 47.14 123.707 47.14ZM123.707 46.062C124.286 46.062 124.748 45.88 125.093 45.516C125.439 45.1427 125.625 44.6013 125.653 43.892C125.663 43.752 125.667 43.5747 125.667 43.36C125.667 43.1453 125.663 42.968 125.653 42.828C125.625 42.1187 125.439 41.582 125.093 41.218C124.748 40.8447 124.286 40.658 123.707 40.658C123.129 40.658 122.662 40.8447 122.307 41.218C121.962 41.582 121.78 42.1187 121.761 42.828C121.752 42.968 121.747 43.1453 121.747 43.36C121.747 43.5747 121.752 43.752 121.761 43.892C121.78 44.6013 121.962 45.1427 122.307 45.516C122.662 45.88 123.129 46.062 123.707 46.062ZM131.039 47C130.899 47 130.787 46.9673 130.703 46.902C130.628 46.8367 130.567 46.7527 130.521 46.65L127.931 40.154C127.912 40.1073 127.903 40.0607 127.903 40.014C127.903 39.93 127.931 39.86 127.987 39.804C128.043 39.748 128.113 39.72 128.197 39.72H128.869C128.971 39.72 129.051 39.748 129.107 39.804C129.163 39.86 129.195 39.9113 129.205 39.958L131.347 45.474L133.475 39.958C133.493 39.9113 133.526 39.86 133.573 39.804C133.629 39.748 133.708 39.72 133.811 39.72H134.497C134.571 39.72 134.637 39.748 134.693 39.804C134.758 39.86 134.791 39.93 134.791 40.014C134.791 40.0607 134.781 40.1073 134.763 40.154L132.159 46.65C132.121 46.7527 132.061 46.8367 131.977 46.902C131.902 46.9673 131.79 47 131.641 47H131.039ZM138.895 47.14C137.934 47.14 137.168 46.846 136.599 46.258C136.03 45.6607 135.717 44.8487 135.661 43.822C135.652 43.7007 135.647 43.5467 135.647 43.36C135.647 43.164 135.652 43.0053 135.661 42.884C135.698 42.2213 135.852 41.6427 136.123 41.148C136.394 40.644 136.762 40.2567 137.229 39.986C137.705 39.7153 138.26 39.58 138.895 39.58C139.604 39.58 140.197 39.7293 140.673 40.028C141.158 40.3267 141.527 40.7513 141.779 41.302C142.031 41.8527 142.157 42.4967 142.157 43.234V43.472C142.157 43.5747 142.124 43.654 142.059 43.71C142.003 43.766 141.928 43.794 141.835 43.794H136.991C136.991 43.8033 136.991 43.822 136.991 43.85C136.991 43.878 136.991 43.9013 136.991 43.92C137.01 44.3027 137.094 44.662 137.243 44.998C137.392 45.3247 137.607 45.5907 137.887 45.796C138.167 46.0013 138.503 46.104 138.895 46.104C139.231 46.104 139.511 46.0527 139.735 45.95C139.959 45.8473 140.141 45.7353 140.281 45.614C140.421 45.4833 140.514 45.3853 140.561 45.32C140.645 45.1987 140.71 45.1287 140.757 45.11C140.804 45.082 140.878 45.068 140.981 45.068H141.653C141.746 45.068 141.821 45.096 141.877 45.152C141.942 45.1987 141.97 45.2687 141.961 45.362C141.952 45.502 141.877 45.6747 141.737 45.88C141.597 46.076 141.396 46.272 141.135 46.468C140.874 46.664 140.556 46.8273 140.183 46.958C139.81 47.0793 139.38 47.14 138.895 47.14ZM136.991 42.828H140.827V42.786C140.827 42.366 140.748 41.9927 140.589 41.666C140.44 41.3393 140.22 41.0827 139.931 40.896C139.642 40.7 139.296 40.602 138.895 40.602C138.494 40.602 138.148 40.7 137.859 40.896C137.579 41.0827 137.364 41.3393 137.215 41.666C137.066 41.9927 136.991 42.366 136.991 42.786V42.828ZM144.153 47C144.06 47 143.98 46.972 143.915 46.916C143.859 46.8507 143.831 46.7713 143.831 46.678V40.056C143.831 39.9627 143.859 39.8833 143.915 39.818C143.98 39.7527 144.06 39.72 144.153 39.72H144.797C144.89 39.72 144.97 39.7527 145.035 39.818C145.1 39.8833 145.133 39.9627 145.133 40.056V40.672C145.32 40.3547 145.576 40.1167 145.903 39.958C146.23 39.7993 146.622 39.72 147.079 39.72H147.639C147.732 39.72 147.807 39.7527 147.863 39.818C147.919 39.874 147.947 39.9487 147.947 40.042V40.616C147.947 40.7093 147.919 40.784 147.863 40.84C147.807 40.896 147.732 40.924 147.639 40.924H146.799C146.295 40.924 145.898 41.0733 145.609 41.372C145.32 41.6613 145.175 42.058 145.175 42.562V46.678C145.175 46.7713 145.142 46.8507 145.077 46.916C145.012 46.972 144.932 47 144.839 47H144.153ZM155.277 48.4C155.174 48.4 155.095 48.3673 155.039 48.302C154.983 48.246 154.955 48.1713 154.955 48.078V47.098C154.273 47.042 153.699 46.888 153.233 46.636C152.766 46.3747 152.411 46.062 152.169 45.698C151.926 45.334 151.795 44.9467 151.777 44.536C151.777 44.4613 151.805 44.396 151.861 44.34C151.926 44.2747 152.001 44.242 152.085 44.242H152.799C152.911 44.242 152.995 44.27 153.051 44.326C153.107 44.382 153.144 44.4473 153.163 44.522C153.219 44.746 153.335 44.97 153.513 45.194C153.69 45.4087 153.942 45.5907 154.269 45.74C154.605 45.88 155.034 45.95 155.557 45.95C156.359 45.95 156.947 45.81 157.321 45.53C157.703 45.2407 157.895 44.858 157.895 44.382C157.895 44.0553 157.792 43.794 157.587 43.598C157.391 43.3927 157.087 43.2107 156.677 43.052C156.266 42.8933 155.734 42.7207 155.081 42.534C154.399 42.338 153.835 42.1233 153.387 41.89C152.939 41.6567 152.603 41.3673 152.379 41.022C152.164 40.6767 152.057 40.238 152.057 39.706C152.057 39.0247 152.309 38.4413 152.813 37.956C153.317 37.4613 154.031 37.172 154.955 37.088V36.122C154.955 36.0287 154.983 35.954 155.039 35.898C155.095 35.8327 155.174 35.8 155.277 35.8H155.809C155.902 35.8 155.977 35.8327 156.033 35.898C156.098 35.954 156.131 36.0287 156.131 36.122V37.102C156.756 37.1767 157.279 37.3493 157.699 37.62C158.119 37.8907 158.436 38.2033 158.651 38.558C158.865 38.9127 158.977 39.258 158.987 39.594C158.987 39.6593 158.963 39.7247 158.917 39.79C158.87 39.846 158.795 39.874 158.693 39.874H157.951C157.885 39.874 157.815 39.8553 157.741 39.818C157.675 39.7807 157.624 39.7107 157.587 39.608C157.531 39.2253 157.316 38.9033 156.943 38.642C156.569 38.3807 156.084 38.25 155.487 38.25C154.88 38.25 154.385 38.3667 154.003 38.6C153.629 38.8333 153.443 39.1973 153.443 39.692C153.443 40.0093 153.531 40.2753 153.709 40.49C153.886 40.6953 154.166 40.8773 154.549 41.036C154.931 41.1947 155.431 41.3627 156.047 41.54C156.793 41.7453 157.405 41.9647 157.881 42.198C158.357 42.422 158.707 42.7067 158.931 43.052C159.164 43.388 159.281 43.822 159.281 44.354C159.281 44.886 159.15 45.348 158.889 45.74C158.637 46.132 158.273 46.4447 157.797 46.678C157.33 46.9113 156.775 47.056 156.131 47.112V48.078C156.131 48.1713 156.098 48.246 156.033 48.302C155.977 48.3673 155.902 48.4 155.809 48.4H155.277ZM163.735 47C163.642 47 163.562 46.972 163.497 46.916C163.441 46.8507 163.413 46.7713 163.413 46.678V38.838L161.089 40.63C161.014 40.686 160.935 40.7093 160.851 40.7C160.767 40.6907 160.697 40.6487 160.641 40.574L160.277 40.112C160.221 40.028 160.198 39.944 160.207 39.86C160.226 39.776 160.272 39.706 160.347 39.65L163.399 37.298C163.464 37.2513 163.525 37.2233 163.581 37.214C163.637 37.2047 163.698 37.2 163.763 37.2H164.477C164.57 37.2 164.645 37.2327 164.701 37.298C164.757 37.354 164.785 37.4287 164.785 37.522V46.678C164.785 46.7713 164.757 46.8507 164.701 46.916C164.645 46.972 164.57 47 164.477 47H163.735ZM170.297 47.14C169.653 47.14 169.107 47.042 168.659 46.846C168.221 46.6407 167.861 46.3607 167.581 46.006C167.301 45.6513 167.096 45.2453 166.965 44.788C166.844 44.3307 166.774 43.8453 166.755 43.332C166.746 43.08 166.737 42.814 166.727 42.534C166.727 42.254 166.727 41.974 166.727 41.694C166.737 41.4047 166.746 41.1293 166.755 40.868C166.765 40.3547 166.835 39.8693 166.965 39.412C167.105 38.9453 167.311 38.5393 167.581 38.194C167.861 37.8393 168.225 37.564 168.673 37.368C169.121 37.1627 169.663 37.06 170.297 37.06C170.941 37.06 171.483 37.1627 171.921 37.368C172.369 37.564 172.733 37.8393 173.013 38.194C173.293 38.5393 173.499 38.9453 173.629 39.412C173.769 39.8693 173.844 40.3547 173.853 40.868C173.863 41.1293 173.867 41.4047 173.867 41.694C173.877 41.974 173.877 42.254 173.867 42.534C173.867 42.814 173.863 43.08 173.853 43.332C173.844 43.8453 173.769 44.3307 173.629 44.788C173.499 45.2453 173.293 45.6513 173.013 46.006C172.743 46.3607 172.383 46.6407 171.935 46.846C171.497 47.042 170.951 47.14 170.297 47.14ZM170.297 45.95C171.025 45.95 171.562 45.712 171.907 45.236C172.262 44.7507 172.444 44.0927 172.453 43.262C172.472 42.9913 172.481 42.73 172.481 42.478C172.481 42.2167 172.481 41.96 172.481 41.708C172.481 41.4467 172.472 41.19 172.453 40.938C172.444 40.126 172.262 39.4773 171.907 38.992C171.562 38.4973 171.025 38.25 170.297 38.25C169.579 38.25 169.042 38.4973 168.687 38.992C168.342 39.4773 168.16 40.126 168.141 40.938C168.141 41.19 168.137 41.4467 168.127 41.708C168.127 41.96 168.127 42.2167 168.127 42.478C168.137 42.73 168.141 42.9913 168.141 43.262C168.16 44.0927 168.347 44.7507 168.701 45.236C169.056 45.712 169.588 45.95 170.297 45.95ZM179.184 47.14C178.54 47.14 177.994 47.042 177.546 46.846C177.107 46.6407 176.748 46.3607 176.468 46.006C176.188 45.6513 175.983 45.2453 175.852 44.788C175.731 44.3307 175.661 43.8453 175.642 43.332C175.633 43.08 175.623 42.814 175.614 42.534C175.614 42.254 175.614 41.974 175.614 41.694C175.623 41.4047 175.633 41.1293 175.642 40.868C175.651 40.3547 175.721 39.8693 175.852 39.412C175.992 38.9453 176.197 38.5393 176.468 38.194C176.748 37.8393 177.112 37.564 177.56 37.368C178.008 37.1627 178.549 37.06 179.184 37.06C179.828 37.06 180.369 37.1627 180.808 37.368C181.256 37.564 181.62 37.8393 181.9 38.194C182.18 38.5393 182.385 38.9453 182.516 39.412C182.656 39.8693 182.731 40.3547 182.74 40.868C182.749 41.1293 182.754 41.4047 182.754 41.694C182.763 41.974 182.763 42.254 182.754 42.534C182.754 42.814 182.749 43.08 182.74 43.332C182.731 43.8453 182.656 44.3307 182.516 44.788C182.385 45.2453 182.18 45.6513 181.9 46.006C181.629 46.3607 181.27 46.6407 180.822 46.846C180.383 47.042 179.837 47.14 179.184 47.14ZM179.184 45.95C179.912 45.95 180.449 45.712 180.794 45.236C181.149 44.7507 181.331 44.0927 181.34 43.262C181.359 42.9913 181.368 42.73 181.368 42.478C181.368 42.2167 181.368 41.96 181.368 41.708C181.368 41.4467 181.359 41.19 181.34 40.938C181.331 40.126 181.149 39.4773 180.794 38.992C180.449 38.4973 179.912 38.25 179.184 38.25C178.465 38.25 177.929 38.4973 177.574 38.992C177.229 39.4773 177.047 40.126 177.028 40.938C177.028 41.19 177.023 41.4467 177.014 41.708C177.014 41.96 177.014 42.2167 177.014 42.478C177.023 42.73 177.028 42.9913 177.028 43.262C177.047 44.0927 177.233 44.7507 177.588 45.236C177.943 45.712 178.475 45.95 179.184 45.95Z" fill="#515151" fill-opacity="0.71"/>
<path d="M53.9398 32.5048L52.4378 26.4969C52.8484 26.4097 53.1565 26.0454 53.1565 25.6089V24.6402C53.1565 22.537 51.4454 20.826 49.3424 20.826H42.5011V18.8281C42.5011 17.7932 41.6592 16.9513 40.6242 16.9513H27.9034L35.6337 13.8591C36.0994 13.6729 36.3259 13.1443 36.1397 12.6786C35.9534 12.213 35.4252 11.9864 34.9592 12.1727L28.6297 14.7044C30.5584 13.4669 32.4666 12.105 33.1931 11.1525C34.6074 9.2982 34.2492 6.63903 32.3949 5.22472C30.5406 3.81029 27.8815 4.1686 26.4671 6.0229C25.4338 7.37797 24.0703 11.1855 23.1879 13.8685C22.3054 11.1857 20.942 7.37797 19.9086 6.0229C18.4944 4.1686 15.8351 3.81051 13.9808 5.22472C12.1265 6.63892 11.7684 9.29808 13.1827 11.1525C13.9091 12.1051 15.8172 13.4669 17.7461 14.7044L11.4166 12.1727C10.9507 11.9861 10.4223 12.2129 10.2361 12.6786C10.0497 13.1443 10.2763 13.6729 10.742 13.8591L18.4723 16.9513H5.75152C4.71658 16.9513 3.87467 17.7932 3.87467 18.8281V35.2958C3.87467 35.7973 4.28124 36.204 4.78285 36.204C5.28434 36.204 5.69102 35.7974 5.69102 35.2958V18.8281C5.69102 18.7947 5.7181 18.7676 5.75152 18.7676H40.6241C40.6575 18.7676 40.6846 18.7947 40.6846 18.8281V35.296C40.6846 35.7975 41.0912 36.2042 41.5928 36.2042C42.0943 36.2042 42.501 35.7976 42.501 35.296V34.2665H53.2135C53.2145 34.2665 53.2153 34.2667 53.2164 34.2667C53.2174 34.2667 53.2183 34.2666 53.2193 34.2666C54.5374 34.2676 55.6567 35.1329 56.0409 36.3251H53.217C52.7155 36.3251 52.3089 36.7316 52.3089 37.2332V39.1706C52.3089 40.7396 53.5853 42.0161 55.1544 42.0161H56.1836V46.0119H53.809C53.029 43.7596 50.8879 42.1371 48.3736 42.1371C45.8593 42.1371 43.7181 43.7595 42.9381 46.0119H42.5009V39.1705C42.5009 38.669 42.0943 38.2623 41.5927 38.2623C41.0912 38.2623 40.6845 38.6689 40.6845 39.1705V46.0117H21.8425C21.0625 43.7595 18.9214 42.137 16.4071 42.137C13.8928 42.137 11.7516 43.7594 10.9716 46.0117H5.75152C5.7181 46.0117 5.69102 45.9847 5.69102 45.9513V43.9533H9.6263C10.1278 43.9533 10.5345 43.5467 10.5345 43.0451C10.5345 42.5435 10.1279 42.137 9.6263 42.137H0.908176C0.40668 42.137 0 42.5435 0 43.0451C0 43.5467 0.406566 43.9533 0.908176 43.9533H3.87479V45.9513C3.87479 46.9862 4.71669 47.8281 5.75163 47.8281H10.6572C10.6569 47.8483 10.6556 47.8683 10.6556 47.8886C10.6556 51.0599 13.2358 53.6401 16.4071 53.6401C19.5784 53.6401 22.1586 51.0599 22.1586 47.8886C22.1586 47.8682 22.1572 47.8483 22.157 47.8281H42.6235C42.6233 47.8483 42.622 47.8683 42.622 47.8886C42.622 51.0599 45.2022 53.6401 48.3735 53.6401C51.5448 53.6401 54.125 51.0599 54.125 47.8886C54.125 47.8682 54.1236 47.8483 54.1234 47.8281H57.0917C57.5932 47.8281 57.9999 47.4215 57.9999 46.9199V37.2331C58 34.8413 56.2354 32.8541 53.9398 32.5048ZM19.5863 13.7138C16.004 11.4877 14.9415 10.4635 14.6269 10.051C13.82 8.99302 14.0243 7.47584 15.0824 6.66894C15.5185 6.33635 16.0326 6.1756 16.5429 6.1756C17.2704 6.1756 17.9902 6.50253 18.4645 7.12444C19.343 8.27629 20.7188 12.1531 21.6271 14.9467C21.0141 14.5858 20.3095 14.1634 19.5863 13.7138ZM24.7489 14.9466C25.6572 12.1531 27.033 8.2764 27.9114 7.12433C28.7183 6.0664 30.2354 5.86215 31.2934 6.66894C32.3514 7.47584 32.5557 8.99302 31.7489 10.051C31.4343 10.4634 30.3717 11.4877 26.7897 13.7137C26.0666 14.1632 25.362 14.5857 24.7489 14.9466ZM42.5011 22.6422H49.3424C50.444 22.6422 51.3403 23.5384 51.3403 24.6401V24.7006H42.5011V22.6422ZM42.5011 32.4502V26.5169H50.5707L52.054 32.4502H42.5011ZM16.4071 51.8239C14.2372 51.8239 12.4718 50.0585 12.4718 47.8886C12.4718 45.7187 14.2372 43.9533 16.4071 43.9533C18.577 43.9533 20.3424 45.7187 20.3424 47.8886C20.3424 50.0585 18.577 51.8239 16.4071 51.8239ZM48.3737 51.8239C46.2038 51.8239 44.4384 50.0585 44.4384 47.8886C44.4384 45.7187 46.2038 43.9533 48.3737 43.9533C50.5436 43.9533 52.309 45.7187 52.309 47.8886C52.309 50.0585 50.5436 51.8239 48.3737 51.8239ZM56.1838 40.1996H55.1545C54.5869 40.1996 54.1252 39.7379 54.1252 39.1703V38.1411H56.1836V40.1996H56.1838Z" fill="#7AC751"/>
<path d="M16.4075 46.0117C15.3725 46.0117 14.5306 46.8536 14.5306 47.8886C14.5306 48.9235 15.3725 49.7654 16.4075 49.7654C17.4424 49.7654 18.2843 48.9235 18.2843 47.8886C18.2843 46.8536 17.4424 46.0117 16.4075 46.0117Z" fill="#7AC751"/>
<path d="M48.3734 46.0117C47.3385 46.0117 46.4966 46.8536 46.4966 47.8886C46.4966 48.9235 47.3385 49.7654 48.3734 49.7654C49.4084 49.7654 50.2503 48.9235 50.2503 47.8886C50.2503 46.8536 49.4084 46.0117 48.3734 46.0117Z" fill="#7AC751"/>
<path d="M37.7185 42.137H24.1569C23.6554 42.137 23.2487 42.5435 23.2487 43.0451C23.2487 43.5467 23.6553 43.9533 24.1569 43.9533H37.7185C38.22 43.9533 38.6266 43.5467 38.6266 43.0451C38.6266 42.5435 38.2201 42.137 37.7185 42.137Z" fill="#7AC751"/>
<path d="M14.4702 38.2622H2.84598C2.34448 38.2622 1.93781 38.6688 1.93781 39.1704C1.93781 39.672 2.34437 40.0786 2.84598 40.0786H14.4702C14.9717 40.0786 15.3784 39.672 15.3784 39.1704C15.3784 38.6688 14.9717 38.2622 14.4702 38.2622Z" fill="#7AC751"/>
<path d="M14.4697 24.7004H10.5949C10.0934 24.7004 9.68677 25.107 9.68677 25.6086V33.3581C9.68677 33.8596 10.0933 34.2663 10.5949 34.2663C11.0966 34.2663 11.5031 33.8597 11.5031 33.3581V30.3915H13.5011C14.0026 30.3915 14.4092 29.9849 14.4092 29.4833C14.4092 28.9817 14.0027 28.5751 13.5011 28.5751H11.5031V26.5168H14.4697C14.9712 26.5168 15.3779 26.1102 15.3779 25.6086C15.3778 25.1071 14.9712 24.7004 14.4697 24.7004Z" fill="#7AC751"/>
<path d="M21.6164 30.8173C22.5253 30.222 23.1273 29.1954 23.1273 28.0303C23.1273 26.1942 21.6335 24.7004 19.7974 24.7004H17.3756C16.8741 24.7004 16.4675 25.107 16.4675 25.6086V33.3581C16.4675 33.8596 16.874 34.2663 17.3756 34.2663C17.8773 34.2663 18.2838 33.8597 18.2838 33.3581V31.3601H19.7957L21.4634 33.8617C21.6384 34.1242 21.9263 34.2663 22.2198 34.2663C22.393 34.2663 22.5679 34.2169 22.7226 34.1136C23.1401 33.8354 23.2528 33.2715 22.9745 32.8543L21.6164 30.8173ZM19.7974 29.5439H18.2838V26.5168H19.7974C20.632 26.5168 21.3109 27.1957 21.3109 28.0303C21.3109 28.865 20.632 29.5439 19.7974 29.5439Z" fill="#7AC751"/>
<path d="M28.9997 32.45H26.0331V30.3885C26.0532 30.3899 26.0732 30.3916 26.0936 30.3916H28.031C28.5325 30.3916 28.9391 29.985 28.9391 29.4834C28.9391 28.9818 28.5326 28.5752 28.031 28.5752H26.0936C26.0731 28.5752 26.0532 28.5769 26.0331 28.5783V26.5168H28.9997C29.5012 26.5168 29.9079 26.1102 29.9079 25.6086C29.9079 25.1071 29.5014 24.7004 28.9997 24.7004H25.125C24.6235 24.7004 24.2168 25.107 24.2168 25.6086V33.3581C24.2168 33.8596 24.6234 34.2663 25.125 34.2663H28.9997C29.5012 34.2663 29.9079 33.8597 29.9079 33.3581C29.9079 32.8565 29.5012 32.45 28.9997 32.45Z" fill="#7AC751"/>
<path d="M35.781 32.45H32.8144V30.3916H33.8437C34.3452 30.3916 34.7518 29.985 34.7518 29.4834C34.7518 28.9818 34.3453 28.5752 33.8437 28.5752H32.8144V26.5168H35.781C36.2825 26.5168 36.6892 26.1102 36.6892 25.6086C36.6892 25.1071 36.2826 24.7004 35.781 24.7004H31.9062C31.4047 24.7004 30.998 25.107 30.998 25.6086V33.3581C30.998 33.8596 31.4046 34.2663 31.9062 34.2663H35.781C36.2825 34.2663 36.6892 33.8597 36.6892 33.3581C36.6892 32.8565 36.2825 32.45 35.781 32.45Z" fill="#7AC751"/>
</svg>
